  0
SECTION
  2
HEADER
  9
$ACADVER
  1
AC1024
  9
$ACADMAINTVER
 70
     6
  9
$DWGCODEPAGE
  3
UNDEFINED
  9
$INSBASE
 10
0.0
 20
0.0
 30
0.0
  9
$EXTMIN
 10
1.000000000000000E+20
 20
1.000000000000000E+20
 30
1.000000000000000E+20
  9
$EXTMAX
 10
-1.000000000000000E+20
 20
-1.000000000000000E+20
 30
-1.000000000000000E+20
  9
$LIMMIN
 10
0.0
 20
0.0
  9
$LIMMAX
 10
12.0
 20
9.0
  9
$ORTHOMODE
 70
     0
  9
$REGENMODE
 70
     1
  9
$FILLMODE
 70
     1
  9
$QTEXTMODE
 70
     0
  9
$MIRRTEXT
 70
     1
  9
$LTSCALE
 40
1.0
  9
$ATTMODE
 70
     1
  9
$TEXTSIZE
 40
0.2
  9
$TRACEWID
 40
0.05
  9
$TEXTSTYLE
  7
Standard
  9
$CLAYER
  8
0
  9
$CELTYPE
  6
ByLayer
  9
$CECOLOR
 62
   256
  9
$CELTSCALE
 40
1.0
  9
$DISPSILH
 70
     0
  9
$DIMSCALE
 40
1.0
  9
$DIMASZ
 40
0.18
  9
$DIMEXO
 40
0.0625
  9
$DIMDLI
 40
0.38
  9
$DIMRND
 40
0.0
  9
$DIMDLE
 40
0.0
  9
$DIMEXE
 40
0.18
  9
$DIMTP
 40
0.0
  9
$DIMTM
 40
0.0
  9
$DIMTXT
 40
0.18
  9
$DIMCEN
 40
0.09
  9
$DIMTSZ
 40
0.0
  9
$DIMTOL
 70
     0
  9
$DIMLIM
 70
     0
  9
$DIMTIH
 70
     1
  9
$DIMTOH
 70
     1
  9
$DIMSE1
 70
     0
  9
$DIMSE2
 70
     0
  9
$DIMTAD
 70
     0
  9
$DIMZIN
 70
     0
  9
$DIMBLK
  1

  9
$DIMASO
 70
     1
  9
$DIMSHO
 70
     1
  9
$DIMPOST
  1

  9
$DIMAPOST
  1

  9
$DIMALT
 70
     0
  9
$DIMALTD
 70
     2
  9
$DIMALTF
 40
25.4
  9
$DIMLFAC
 40
1.0
  9
$DIMTOFL
 70
     0
  9
$DIMTVP
 40
0.0
  9
$DIMTIX
 70
     0
  9
$DIMSOXD
 70
     0
  9
$DIMSAH
 70
     0
  9
$DIMBLK1
  1

  9
$DIMBLK2
  1

  9
$DIMSTYLE
  2
Standard
  9
$DIMCLRD
 70
     0
  9
$DIMCLRE
 70
     0
  9
$DIMCLRT
 70
     0
  9
$DIMTFAC
 40
1.0
  9
$DIMGAP
 40
0.09
  9
$DIMJUST
 70
     0
  9
$DIMSD1
 70
     0
  9
$DIMSD2
 70
     0
  9
$DIMTOLJ
 70
     1
  9
$DIMTZIN
 70
     0
  9
$DIMALTZ
 70
     0
  9
$DIMALTTZ
 70
     0
  9
$DIMUPT
 70
     0
  9
$DIMDEC
 70
     4
  9
$DIMTDEC
 70
     4
  9
$DIMALTU
 70
     2
  9
$DIMALTTD
 70
     2
  9
$DIMTXSTY
  7
Standard
  9
$DIMAUNIT
 70
     0
  9
$DIMADEC
 70
     0
  9
$DIMALTRND
 40
0.0
  9
$DIMAZIN
 70
     0
  9
$DIMDSEP
 70
    46
  9
$DIMATFIT
 70
     3
  9
$DIMFRAC
 70
     0
  9
$DIMLDRBLK
  1

  9
$DIMLUNIT
 70
     2
  9
$DIMLWD
 70
    -2
  9
$DIMLWE
 70
    -2
  9
$DIMTMOVE
 70
     0
  9
$DIMFXL
 40
1.0
  9
$DIMFXLON
 70
     0
  9
$DIMJOGANG
 40
0.7853981633974483
  9
$DIMTFILL
 70
     0
  9
$DIMTFILLCLR
 70
     0
  9
$DIMARCSYM
 70
     0
  9
$DIMLTYPE
  6

  9
$DIMLTEX1
  6

  9
$DIMLTEX2
  6

  9
$DIMTXTDIRECTION
 70
     0
  9
$LUNITS
 70
     2
  9
$LUPREC
 70
     4
  9
$SKETCHINC
 40
0.1
  9
$FILLETRAD
 40
0.5
  9
$AUNITS
 70
     0
  9
$AUPREC
 70
     0
  9
$MENU
  1
.
  9
$ELEVATION
 40
0.0
  9
$PELEVATION
 40
0.0
  9
$THICKNESS
 40
0.0
  9
$LIMCHECK
 70
     0
  9
$CHAMFERA
 40
0.5
  9
$CHAMFERB
 40
0.5
  9
$CHAMFERC
 40
1.0
  9
$CHAMFERD
 40
0.0
  9
$SKPOLY
 70
     0
  9
$TDCREATE
 40
2458129.654282396
  9
$TDUCREATE
 40
2458129.987615741
  9
$TDUPDATE
 40
2458129.654282396
  9
$TDUUPDATE
 40
2458129.987615741
  9
$TDINDWG
 40
0.0000000116
  9
$TDUSRTIMER
 40
0.0000000116
  9
$USRTIMER
 70
     1
  9
$ANGBASE
 50
0.0
  9
$ANGDIR
 70
     0
  9
$PDMODE
 70
     0
  9
$PDSIZE
 40
0.0
  9
$PLINEWID
 40
0.0
  9
$SPLFRAME
 70
     0
  9
$SPLINETYPE
 70
     6
  9
$SPLINESEGS
 70
     8
  9
$HANDSEED
  5
11D
  9
$SURFTAB1
 70
     6
  9
$SURFTAB2
 70
     6
  9
$SURFTYPE
 70
     6
  9
$SURFU
 70
     6
  9
$SURFV
 70
     6
  9
$UCSBASE
  2

  9
$UCSNAME
  2

  9
$UCSORG
 10
0.0
 20
0.0
 30
0.0
  9
$UCSXDIR
 10
1.0
 20
0.0
 30
0.0
  9
$UCSYDIR
 10
0.0
 20
1.0
 30
0.0
  9
$UCSORTHOREF
  2

  9
$UCSORTHOVIEW
 70
     0
  9
$UCSORGTOP
 10
0.0
 20
0.0
 30
0.0
  9
$UCSORGBOTTOM
 10
0.0
 20
0.0
 30
0.0
  9
$UCSORGLEFT
 10
0.0
 20
0.0
 30
0.0
  9
$UCSORGRIGHT
 10
0.0
 20
0.0
 30
0.0
  9
$UCSORGFRONT
 10
0.0
 20
0.0
 30
0.0
  9
$UCSORGBACK
 10
0.0
 20
0.0
 30
0.0
  9
$PUCSBASE
  2

  9
$PUCSNAME
  2

  9
$PUCSORG
 10
0.0
 20
0.0
 30
0.0
  9
$PUCSXDIR
 10
1.0
 20
0.0
 30
0.0
  9
$PUCSYDIR
 10
0.0
 20
1.0
 30
0.0
  9
$PUCSORTHOREF
  2

  9
$PUCSORTHOVIEW
 70
     0
  9
$PUCSORGTOP
 10
0.0
 20
0.0
 30
0.0
  9
$PUCSORGBOTTOM
 10
0.0
 20
0.0
 30
0.0
  9
$PUCSORGLEFT
 10
0.0
 20
0.0
 30
0.0
  9
$PUCSORGRIGHT
 10
0.0
 20
0.0
 30
0.0
  9
$PUCSORGFRONT
 10
0.0
 20
0.0
 30
0.0
  9
$PUCSORGBACK
 10
0.0
 20
0.0
 30
0.0
  9
$USERI1
 70
     0
  9
$USERI2
 70
     0
  9
$USERI3
 70
     0
  9
$USERI4
 70
     0
  9
$USERI5
 70
     0
  9
$USERR1
 40
0.0
  9
$USERR2
 40
0.0
  9
$USERR3
 40
0.0
  9
$USERR4
 40
0.0
  9
$USERR5
 40
0.0
  9
$WORLDVIEW
 70
     1
  9
$SHADEDGE
 70
     3
  9
$SHADEDIF
 70
    70
  9
$TILEMODE
 70
     1
  9
$MAXACTVP
 70
    64
  9
$PINSBASE
 10
0.0
 20
0.0
 30
0.0
  9
$PLIMCHECK
 70
     0
  9
$PEXTMIN
 10
1.000000000000000E+20
 20
1.000000000000000E+20
 30
1.000000000000000E+20
  9
$PEXTMAX
 10
-1.000000000000000E+20
 20
-1.000000000000000E+20
 30
-1.000000000000000E+20
  9
$PLIMMIN
 10
0.0
 20
0.0
  9
$PLIMMAX
 10
12.0
 20
9.0
  9
$UNITMODE
 70
     0
  9
$VISRETAIN
 70
     1
  9
$PLINEGEN
 70
     0
  9
$PSLTSCALE
 70
     1
  9
$TREEDEPTH
 70
  3020
  9
$CMLSTYLE
  2
Standard
  9
$CMLJUST
 70
     0
  9
$CMLSCALE
 40
1.0
  9
$PROXYGRAPHICS
 70
     1
  9
$MEASUREMENT
 70
     0
  9
$CELWEIGHT
370
    -1
  9
$ENDCAPS
280
     0
  9
$JOINSTYLE
280
     0
  9
$LWDISPLAY
290
     1
  9
$INSUNITS
 70
     1
  9
$HYPERLINKBASE
  1

  9
$STYLESHEET
  1

  9
$XEDIT
290
     1
  9
$CEPSNTYPE
380
     0
  9
$PSTYLEMODE
290
     1
  9
$FINGERPRINTGUID
  2
{A8C31679-2D2D-C54B-48AE-946B8C65D629}
  9
$VERSIONGUID
  2
{FAEB1C32-E019-11D5-929B-00C0DF256EC4}
  9
$EXTNAMES
290
     1
  9
$PSVPSCALE
 40
0.0
  9
$OLESTARTUP
290
     0
  9
$SORTENTS
280
   127
  9
$INDEXCTL
280
     0
  9
$HIDETEXT
280
     1
  9
$XCLIPFRAME
280
     2
  9
$HALOGAP
280
     0
  9
$OBSCOLOR
 70
   257
  9
$OBSLTYPE
280
     0
  9
$INTERSECTIONDISPLAY
280
     0
  9
$INTERSECTIONCOLOR
 70
   257
  9
$DIMASSOC
280
     2
  9
$PROJECTNAME
  1

  9
$CAMERADISPLAY
290
     0
  9
$LENSLENGTH
 40
50.0
  9
$CAMERAHEIGHT
 40
0.0
  9
$STEPSPERSEC
 40
2.0
  9
$STEPSIZE
 40
6.0
  9
$3DDWFPREC
 40
2.0
  9
$PSOLWIDTH
 40
0.25
  9
$PSOLHEIGHT
 40
4.0
  9
$LOFTANG1
 40
1.570796326794897
  9
$LOFTANG2
 40
1.570796326794897
  9
$LOFTMAG1
 40
0.0
  9
$LOFTMAG2
 40
0.0
  9
$LOFTPARAM
 70
     7
  9
$LOFTNORMALS
280
     1
  9
$LATITUDE
 40
37.795
  9
$LONGITUDE
 40
-122.394
  9
$NORTHDIRECTION
 40
0.0
  9
$TIMEZONE
 70
 -8000
  9
$LIGHTGLYPHDISPLAY
280
     1
  9
$TILEMODELIGHTSYNCH
280
     1
  9
$CMATERIAL
347
3C
  9
$SOLIDHIST
280
     1
  9
$SHOWHIST
280
     1
  9
$DWFFRAME
280
     2
  9
$DGNFRAME
280
     2
  9
$REALWORLDSCALE
290
     1
  9
$INTERFERECOLOR
 62
   256
  9
$CSHADOW
280
     0
  9
$SHADOWPLANELOCATION
 40
0.0
  0
ENDSEC
  0
SECTION
  2
CLASSES
  0
CLASS
  1
ACDBDICTIONARYWDFLT
  2
AcDbDictionaryWithDefault
  3
ObjectDBX Classes
 90
        0
 91
        4
280
     0
281
     0
  0
CLASS
  1
VISUALSTYLE
  2
AcDbVisualStyle
  3
ObjectDBX Classes
 90
     4095
 91
        4
280
     0
281
     0
  0
CLASS
  1
MATERIAL
  2
AcDbMaterial
  3
ObjectDBX Classes
 90
     1153
 91
        4
280
     0
281
     0
  0
CLASS
  1
SUN
  2
AcDbSun
  3
SCENEOE
 90
     1024
 91
        4
280
     0
281
     0
  0
ENDSEC
  0
SECTION
  2
TABLES
  0
TABLE
  2
VPORT
  5
8
330
0
100
AcDbSymbolTable
 70
     1
  0
VPORT
  5
29
330
8
100
AcDbSymbolTableRecord
100
AcDbViewportTableRecord
  2
*Active
 70
     0
 10
0.0
 20
0.0
 11
1.0
 21
1.0
 12
0.0
 22
0.0
 13
0.0
 23
0.0
 14
0.5
 24
0.5
 15
0.5
 25
0.5
 16
0.0
 26
0.0
 36
1.0
 17
139.5795943192236
 27
-108.1594617785157
 37
0.0
 40
149.2911457960105
 41
0.8774299460988033
 42
50.0
 43
0.0
 44
0.0
 50
0.0
 51
0.0
 71
     0
 72
   100
 73
     1
 74
     3
 75
     0
 76
     0
 77
     0
 78
     0
281
     0
 65
     1
110
0.0
120
0.0
130
0.0
111
1.0
121
0.0
131
0.0
112
0.0
122
1.0
132
0.0
 79
     0
146
0.0
 60
     3
 61
     5
292
     1
282
     1
141
0.0
142
0.0
 63
   250
361
3F
  0
ENDTAB
  0
TABLE
  2
LTYPE
  5
5
330
0
100
AcDbSymbolTable
 70
     1
  0
LTYPE
  5
14
330
5
100
AcDbSymbolTableRecord
100
AcDbLinetypeTableRecord
  2
ByBlock
 70
     0
  3

 72
    65
 73
     0
 40
0.0
  0
LTYPE
  5
15
330
5
100
AcDbSymbolTableRecord
100
AcDbLinetypeTableRecord
  2
ByLayer
 70
     0
  3

 72
    65
 73
     0
 40
0.0
  0
LTYPE
  5
16
330
5
100
AcDbSymbolTableRecord
100
AcDbLinetypeTableRecord
  2
Continuous
 70
     0
  3
Solid line
 72
    65
 73
     0
 40
0.0
  0
ENDTAB
  0
TABLE
  2
LAYER
  5
2
330
0
100
AcDbSymbolTable
 70
     5
  0
LAYER
  5
10
330
2
100
AcDbSymbolTableRecord
100
AcDbLayerTableRecord
  2
0
 70
     0
 62
     7
  6
Continuous
370
    -3
390
F
347
3E
  0
LAYER
  5
40
330
2
100
AcDbSymbolTableRecord
100
AcDbLayerTableRecord
  2
Main outline
 70
     0
 62
     7
  6
Continuous
370
    -3
390
F
347
3E
  0
LAYER
  5
44
330
2
100
AcDbSymbolTableRecord
100
AcDbLayerTableRecord
  2
Standoffs
 70
     0
 62
     7
  6
Continuous
370
    -3
390
F
347
3E
  0
LAYER
  5
4B
330
2
100
AcDbSymbolTableRecord
100
AcDbLayerTableRecord
  2
Nunchuky mount
 70
     0
 62
     7
  6
Continuous
370
    -3
390
F
347
3E
  0
LAYER
  5
4E
330
2
100
AcDbSymbolTableRecord
100
AcDbLayerTableRecord
  2
Servos
 70
     0
 62
     7
  6
Continuous
370
    -3
390
F
347
3E
  0
ENDTAB
  0
TABLE
  2
STYLE
  5
3
330
0
100
AcDbSymbolTable
 70
     1
  0
STYLE
  5
11
330
3
100
AcDbSymbolTableRecord
100
AcDbTextStyleTableRecord
  2
Standard
 70
     0
 40
0.0
 41
1.0
 50
0.0
 71
     0
 42
0.2
  3
txt
  4

  0
ENDTAB
  0
TABLE
  2
VIEW
  5
6
330
0
100
AcDbSymbolTable
 70
     0
  0
ENDTAB
  0
TABLE
  2
UCS
  5
7
330
0
100
AcDbSymbolTable
 70
     0
  0
ENDTAB
  0
TABLE
  2
APPID
  5
9
330
0
100
AcDbSymbolTable
 70
     1
  0
APPID
  5
12
330
9
100
AcDbSymbolTableRecord
100
AcDbRegAppTableRecord
  2
ACAD
 70
     0
  0
ENDTAB
  0
TABLE
  2
DIMSTYLE
  5
A
330
0
100
AcDbSymbolTable
 70
     1
100
AcDbDimStyleTable
  0
DIMSTYLE
105
27
330
A
100
AcDbSymbolTableRecord
100
AcDbDimStyleTableRecord
  2
Standard
 70
     0
178
     0
340
11
  0
ENDTAB
  0
TABLE
  2
BLOCK_RECORD
  5
1
330
0
100
AcDbSymbolTable
 70
     1
  0
BLOCK_RECORD
  5
1F
330
1
100
AcDbSymbolTableRecord
100
AcDbBlockTableRecord
  2
*Model_Space
340
22
 70
     0
280
     1
281
     0
  0
BLOCK_RECORD
  5
1B
330
1
100
AcDbSymbolTableRecord
100
AcDbBlockTableRecord
  2
*Paper_Space
340
1E
 70
     0
280
     1
281
     0
  0
BLOCK_RECORD
  5
23
330
1
100
AcDbSymbolTableRecord
100
AcDbBlockTableRecord
  2
*Paper_Space0
340
26
 70
     0
280
     1
281
     0
  0
ENDTAB
  0
ENDSEC
  0
SECTION
  2
BLOCKS
  0
BLOCK
  5
20
330
1F
100
AcDbEntity
  8
0
100
AcDbBlockBegin
  2
*Model_Space
 70
     0
 10
0.0
 20
0.0
 30
0.0
  3
*Model_Space
  1

  0
ENDBLK
  5
21
330
1F
100
AcDbEntity
  8
0
100
AcDbBlockEnd
  0
BLOCK
  5
1C
330
1B
100
AcDbEntity
 67
     1
  8
0
100
AcDbBlockBegin
  2
*Paper_Space
 70
     0
 10
0.0
 20
0.0
 30
0.0
  3
*Paper_Space
  1

  0
ENDBLK
  5
1D
330
1B
100
AcDbEntity
 67
     1
  8
0
100
AcDbBlockEnd
  0
BLOCK
  5
24
330
23
100
AcDbEntity
  8
0
100
AcDbBlockBegin
  2
*Paper_Space0
 70
     0
 10
0.0
 20
0.0
 30
0.0
  3
*Paper_Space0
  1

  0
ENDBLK
  5
25
330
23
100
AcDbEntity
  8
0
100
AcDbBlockEnd
  0
ENDSEC
  0
SECTION
  2
ENTITIES
  0
SPLINE
  5
41
330
1F
100
AcDbEntity
  8
Main outline
370
     0
100
AcDbSpline
210
0.0
220
0.0
230
1.0
 70
    11
 71
     3
 72
    47
 73
    43
 74
     0
 42
0.0000000001
 43
0.0000000001
 12
1.0
 22
0.0
 32
0.0
 13
1.0
 23
0.0
 33
0.0
 40
0.0
 40
0.0
 40
0.0
 40
0.0
 40
1.0
 40
1.0
 40
1.0
 40
2.0
 40
2.0
 40
2.0
 40
3.0
 40
3.0
 40
3.0
 40
4.0
 40
4.0
 40
4.0
 40
5.0
 40
5.0
 40
5.0
 40
6.0
 40
6.0
 40
6.0
 40
7.0
 40
7.0
 40
7.0
 40
8.0
 40
8.0
 40
8.0
 40
9.0
 40
9.0
 40
9.0
 40
10.0
 40
10.0
 40
10.0
 40
11.0
 40
11.0
 40
11.0
 40
12.0
 40
12.0
 40
12.0
 40
13.0
 40
13.0
 40
13.0
 40
14.0
 40
14.0
 40
14.0
 40
14.0
 10
158.0275423572704
 20
-181.9489135656241
 30
0.0
 10
158.0275423572704
 20
-181.9489135656241
 30
0.0
 10
201.8956695714346
 20
-156.6219738497335
 30
0.0
 10
201.8956695714346
 20
-156.6219738497335
 30
0.0
 10
203.8607527268124
 20
-155.4868055166839
 30
0.0
 10
205.0710222682024
 20
-153.392187461652
 30
0.0
 10
205.0706694904336
 20
-151.1225563511082
 30
0.0
 10
205.0706694904336
 20
-151.1225563511082
 30
0.0
 10
205.0703519904417
 20
-65.19636720592324
 30
0.0
 10
205.0703519904417
 20
-65.19636720592324
 30
0.0
 10
205.0699992126729
 20
-62.92691248426831
 30
0.0
 10
203.8611055045902
 20
-60.831412484792
 30
0.0
 10
201.8953520714427
 20
-59.69712609618674
 30
0.0
 10
201.8953520714427
 20
-59.69712609618674
 30
0.0
 10
158.0275423572704
 20
-34.37000999140756
 30
0.0
 10
158.0275423572704
 20
-34.37000999140756
 30
0.0
 10
156.0617940740875
 20
-33.23568832502446
 30
0.0
 10
153.6423030247027
 20
-33.2348416583579
 30
0.0
 10
151.6775425192724
 20
-34.37000999140756
 30
0.0
 10
151.6775425192724
 20
-34.37000999140756
 30
0.0
 10
77.26334080662573
 20
-77.33308692511126
 30
0.0
 10
77.26334080662573
 20
-77.33308692511126
 30
0.0
 10
75.29822752342662
 20
-78.46843164704948
 30
0.0
 10
74.08798810985796
 20
-80.56322609097028
 30
0.0
 10
74.08834088762673
 20
-82.83215164595856
 30
0.0
 10
74.08834088762673
 20
-82.83215164595856
 30
0.0
 10
74.08834088762673
 20
-133.4871246888503
 30
0.0
 10
74.08834088762673
 20
-133.4871246888503
 30
0.0
 10
74.08865838761864
 20
-135.7560502438386
 30
0.0
 10
75.29773363455033
 20
-137.8516913544262
 30
0.0
 10
77.26334080662573
 20
-138.9854838541424
 30
0.0
 10
77.26334080662573
 20
-138.9854838541424
 30
0.0
 10
151.6775425192724
 20
-181.9489135656241
 30
0.0
 10
151.6775425192724
 20
-181.9489135656241
 30
0.0
 10
153.6429733024634
 20
-183.0834116208958
 30
0.0
 10
156.0624643518482
 20
-183.0840818986732
 30
0.0
 10
158.0275423572704
 20
-181.9489135656241
 30
0.0
 10
158.0275423572704
 20
-181.9489135656241
 30
0.0
 10
158.0275423572704
 20
-181.9489135656241
 30
0.0
 10
158.0275423572704
 20
-181.9489135656241
 30
0.0
 10
158.0275423572704
 20
-181.9489135656241
 30
0.0
 10
158.0275423572704
 20
-181.9489135656241
 30
0.0
 10
158.0275423572704
 20
-181.9489135656241
 30
0.0
  0
SPLINE
  5
42
330
1F
100
AcDbEntity
  8
Main outline
370
     0
100
AcDbSpline
210
0.0
220
0.0
230
1.0
 70
    11
 71
     3
 72
    47
 73
    43
 74
     0
 42
0.0000000001
 43
0.0000000001
 12
1.0
 22
0.0
 32
0.0
 13
1.0
 23
0.0
 33
0.0
 40
0.0
 40
0.0
 40
0.0
 40
0.0
 40
1.0
 40
1.0
 40
1.0
 40
2.0
 40
2.0
 40
2.0
 40
3.0
 40
3.0
 40
3.0
 40
4.0
 40
4.0
 40
4.0
 40
5.0
 40
5.0
 40
5.0
 40
6.0
 40
6.0
 40
6.0
 40
7.0
 40
7.0
 40
7.0
 40
8.0
 40
8.0
 40
8.0
 40
9.0
 40
9.0
 40
9.0
 40
10.0
 40
10.0
 40
10.0
 40
11.0
 40
11.0
 40
11.0
 40
12.0
 40
12.0
 40
12.0
 40
13.0
 40
13.0
 40
13.0
 40
14.0
 40
14.0
 40
14.0
 40
14.0
 10
158.0292103764113
 20
-80.35262604901494
 30
0.0
 10
158.0292103764113
 20
-80.35262604901494
 30
0.0
 10
158.0292103761828
 20
-82.89266132615772
 30
0.0
 10
158.0292103761828
 20
-82.89266132615772
 30
0.0
 10
158.0295631539221
 20
-83.2289291038514
 30
0.0
 10
157.8958956573034
 20
-83.55207354820325
 30
0.0
 10
157.6580142812443
 20
-83.79012799256692
 30
0.0
 10
157.4203159471712
 20
-84.0281824369306
 30
0.0
 10
157.0957603998842
 20
-84.162202714645
 30
0.0
 10
156.7591751306934
 20
-84.16255549239293
 30
0.0
 10
156.7591751306934
 20
-84.16255549239293
 30
0.0
 10
132.5785874142583
 20
-84.16255549022237
 30
0.0
 10
132.5785874142583
 20
-84.16255549022237
 30
0.0
 10
132.2423196450594
 20
-84.1628729901915
 30
0.0
 10
131.9191752088706
 20
-84.0292054901955
 30
0.0
 10
131.6807679927525
 20
-83.79150382356755
 30
0.0
 10
131.4427135544018
 20
-83.55344937916152
 30
0.0
 10
131.3087285578496
 20
-83.2289291014521
 30
0.0
 10
131.3083757801116
 20
-82.8926613237584
 30
0.0
 10
131.3083757801116
 20
-82.8926613237584
 30
0.0
 10
131.3083757803388
 20
-80.35262604661563
 30
0.0
 10
131.3083757803388
 20
-80.35262604661563
 30
0.0
 10
131.3083757803699
 20
-80.01604076892235
 30
0.0
 10
131.4416865103882
 20
-79.6932138245701
 30
0.0
 10
131.6797449376119
 20
-79.45480660242899
 30
0.0
 10
131.9177993760049
 20
-79.21675215806563
 30
0.0
 10
132.242319645515
 20
-79.08308465812867
 30
0.0
 10
132.5785874147139
 20
-79.08241438038083
 30
0.0
 10
132.5785874147139
 20
-79.08241438038083
 30
0.0
 10
156.759175131149
 20
-79.08241438255169
 30
0.0
 10
156.759175131149
 20
-79.08241438255169
 30
0.0
 10
157.0957604003398
 20
-79.08241438258185
 30
0.0
 10
157.4189048365286
 20
-79.21537632702297
 30
0.0
 10
157.6569945526548
 20
-79.45378354920643
 30
0.0
 10
157.8950489910048
 20
-79.69148521583503
 30
0.0
 10
158.0292103764414
 20
-80.01604077132166
 30
0.0
 10
158.0292103764113
 20
-80.35262604901494
 30
0.0
 10
158.0292103764113
 20
-80.35262604901494
 30
0.0
 10
158.0292103764113
 20
-80.35262604901494
 30
0.0
 10
158.0292103764113
 20
-80.35262604901494
 30
0.0
 10
158.0292103764113
 20
-80.35262604901494
 30
0.0
 10
158.0292103764113
 20
-80.35262604901494
 30
0.0
 10
158.0292103764113
 20
-80.35262604901494
 30
0.0
  0
SPLINE
  5
43
330
1F
100
AcDbEntity
  8
Main outline
370
     0
100
AcDbSpline
210
0.0
220
0.0
230
1.0
 70
    11
 71
     3
 72
    47
 73
    43
 74
     0
 42
0.0000000001
 43
0.0000000001
 12
1.0
 22
0.0
 32
0.0
 13
1.0
 23
0.0
 33
0.0
 40
0.0
 40
0.0
 40
0.0
 40
0.0
 40
1.0
 40
1.0
 40
1.0
 40
2.0
 40
2.0
 40
2.0
 40
3.0
 40
3.0
 40
3.0
 40
4.0
 40
4.0
 40
4.0
 40
5.0
 40
5.0
 40
5.0
 40
6.0
 40
6.0
 40
6.0
 40
7.0
 40
7.0
 40
7.0
 40
8.0
 40
8.0
 40
8.0
 40
9.0
 40
9.0
 40
9.0
 40
10.0
 40
10.0
 40
10.0
 40
11.0
 40
11.0
 40
11.0
 40
12.0
 40
12.0
 40
12.0
 40
13.0
 40
13.0
 40
13.0
 40
14.0
 40
14.0
 40
14.0
 40
14.0
 10
131.3083764744403
 20
-136.0052223166255
 30
0.0
 10
131.3083764744403
 20
-136.0052223166255
 30
0.0
 10
131.3083764748971
 20
-133.4651870394821
 30
0.0
 10
131.3083764748971
 20
-133.4651870394821
 30
0.0
 10
131.308023697188
 20
-133.1289192617884
 30
0.0
 10
131.4416911938357
 20
-132.8057748174487
 30
0.0
 10
131.6795725699159
 20
-132.5677203731072
 30
0.0
 10
131.9172709040108
 20
-132.3296659287644
 30
0.0
 10
132.2418264513094
 20
-132.1956456510785
 30
0.0
 10
132.5784117205001
 20
-132.1952928733611
 30
0.0
 10
132.5784117205001
 20
-132.1952928733611
 30
0.0
 10
156.7589994369359
 20
-132.1952928777035
 30
0.0
 10
156.7589994369359
 20
-132.1952928777035
 30
0.0
 10
157.0952672061348
 20
-132.1949753777642
 30
0.0
 10
157.4184116423108
 20
-132.328642877789
 30
0.0
 10
157.6568188584083
 20
-132.5663445444382
 30
0.0
 10
157.8948732967372
 20
-132.8043989888663
 30
0.0
 10
158.0288582932599
 20
-133.128919266587
 30
0.0
 10
158.0292110709684
 20
-133.4651870442807
 30
0.0
 10
158.0292110709684
 20
-133.4651870442807
 30
0.0
 10
158.0292110705128
 20
-136.0052223214241
 30
0.0
 10
158.0292110705128
 20
-136.0052223214241
 30
0.0
 10
158.0292110704518
 20
-136.3418075991174
 30
0.0
 10
157.8959003404043
 20
-136.6646345434574
 30
0.0
 10
157.6578419131588
 20
-136.9030417655767
 30
0.0
 10
157.4197874747453
 20
-137.1410962099196
 30
0.0
 10
157.0952672052223
 20
-137.274763709827
 30
0.0
 10
156.7589994360234
 20
-137.2754339875447
 30
0.0
 10
156.7589994360234
 20
-137.2754339875447
 30
0.0
 10
132.5784117195883
 20
-137.2754339832023
 30
0.0
 10
132.5784117195883
 20
-137.2754339832023
 30
0.0
 10
132.2418264503975
 20
-137.275433983142
 30
0.0
 10
131.9186820142209
 20
-137.142472038672
 30
0.0
 10
131.6805922981159
 20
-136.9040648164667
 30
0.0
 10
131.4425378597877
 20
-136.6663631498169
 30
0.0
 10
131.3083764743799
 20
-136.3418075943188
 30
0.0
 10
131.3083764744403
 20
-136.0052223166255
 30
0.0
 10
131.3083764744403
 20
-136.0052223166255
 30
0.0
 10
131.3083764744403
 20
-136.0052223166255
 30
0.0
 10
131.3083764744403
 20
-136.0052223166255
 30
0.0
 10
131.3083764744403
 20
-136.0052223166255
 30
0.0
 10
131.3083764744403
 20
-136.0052223166255
 30
0.0
 10
131.3083764744403
 20
-136.0052223166255
 30
0.0
  0
SPLINE
  5
45
330
1F
100
AcDbEntity
  8
Standoffs
370
     0
100
AcDbSpline
210
0.0
220
0.0
230
1.0
 70
    11
 71
     3
 72
    17
 73
    13
 74
     0
 42
0.0000000001
 43
0.0000000001
 12
1.0
 22
0.0
 32
0.0
 13
1.0
 23
0.0
 33
0.0
 40
0.0
 40
0.0
 40
0.0
 40
0.0
 40
1.0
 40
1.0
 40
1.0
 40
2.0
 40
2.0
 40
2.0
 40
3.0
 40
3.0
 40
3.0
 40
4.0
 40
4.0
 40
4.0
 40
4.0
 10
103.3265160331519
 20
-73.12584438615104
 30
0.0
 10
103.3265160331519
 20
-73.98188574812706
 30
0.0
 10
102.6325573955156
 20
-74.67584438576368
 30
0.0
 10
101.7765160335396
 20
-74.67584438576368
 30
0.0
 10
100.9204746715636
 20
-74.67584438576368
 30
0.0
 10
100.226516033927
 20
-73.98188574812706
 30
0.0
 10
100.226516033927
 20
-73.12584438615104
 30
0.0
 10
100.226516033927
 20
-72.26980302417505
 30
0.0
 10
100.9204746715636
 20
-71.57584438653875
 30
0.0
 10
101.7765160335396
 20
-71.57584438653875
 30
0.0
 10
102.6325573955156
 20
-71.57584438653875
 30
0.0
 10
103.3265160331519
 20
-72.26980302417505
 30
0.0
 10
103.3265160331519
 20
-73.12584438615104
 30
0.0
  0
SPLINE
  5
46
330
1F
100
AcDbEntity
  8
Standoffs
370
     0
100
AcDbSpline
210
0.0
220
0.0
230
1.0
 70
    11
 71
     3
 72
    17
 73
    13
 74
     0
 42
0.0000000001
 43
0.0000000001
 12
1.0
 22
0.0
 32
0.0
 13
1.0
 23
0.0
 33
0.0
 40
0.0
 40
0.0
 40
0.0
 40
0.0
 40
1.0
 40
1.0
 40
1.0
 40
2.0
 40
2.0
 40
2.0
 40
3.0
 40
3.0
 40
3.0
 40
4.0
 40
4.0
 40
4.0
 40
4.0
 10
136.9874078205484
 20
-54.56687842865329
 30
0.0
 10
136.427148496996
 20
-55.21411586869026
 30
0.0
 10
135.4482789630785
 20
-55.28462556355004
 30
0.0
 10
134.8010415230416
 20
-54.72436623999733
 30
0.0
 10
134.153804083004
 20
-54.16410691644494
 30
0.0
 10
134.0832943881451
 20
-53.18523738252686
 30
0.0
 10
134.6435537116975
 20
-52.53799994248989
 30
0.0
 10
135.2038130352509
 20
-51.89076250245228
 30
0.0
 10
136.1826825691683
 20
-51.82025280759411
 30
0.0
 10
136.829920009205
 20
-52.3805121311465
 30
0.0
 10
137.4771574492419
 20
-52.94077145469888
 30
0.0
 10
137.5476671441014
 20
-53.91964098861632
 30
0.0
 10
136.9874078205484
 20
-54.56687842865329
 30
0.0
  0
SPLINE
  5
47
330
1F
100
AcDbEntity
  8
Standoffs
370
     0
100
AcDbSpline
210
0.0
220
0.0
230
1.0
 70
    11
 71
     3
 72
    17
 73
    13
 74
     0
 42
0.0000000001
 43
0.0000000001
 12
1.0
 22
0.0
 32
0.0
 13
1.0
 23
0.0
 33
0.0
 40
0.0
 40
0.0
 40
0.0
 40
0.0
 40
1.0
 40
1.0
 40
1.0
 40
2.0
 40
2.0
 40
2.0
 40
3.0
 40
3.0
 40
3.0
 40
4.0
 40
4.0
 40
4.0
 40
4.0
 10
195.6824938709507
 20
-89.87724049131081
 30
0.0
 10
194.9411403047639
 20
-89.44921981036724
 30
0.0
 10
194.6871338141555
 20
-88.50125468219595
 30
0.0
 10
195.1151544950997
 20
-87.75990111600855
 30
0.0
 10
195.5431751760432
 20
-87.01854754982148
 30
0.0
 10
196.4911403042152
 20
-86.76454105921397
 30
0.0
 10
197.2324938704025
 20
-87.19256174015754
 30
0.0
 10
197.9738474365893
 20
-87.62058242110143
 30
0.0
 10
198.2278539271965
 20
-88.56854754927336
 30
0.0
 10
197.7998332462529
 20
-89.30990111546043
 30
0.0
 10
197.3718125653093
 20
-90.0512546816475
 30
0.0
 10
196.4238474371374
 20
-90.30526117225469
 30
0.0
 10
195.6824938709507
 20
-89.87724049131081
 30
0.0
  0
SPLINE
  5
48
330
1F
100
AcDbEntity
  8
Standoffs
370
     0
100
AcDbSpline
210
0.0
220
0.0
230
1.0
 70
    11
 71
     3
 72
    17
 73
    13
 74
     0
 42
0.0000000001
 43
0.0000000001
 12
1.0
 22
0.0
 32
0.0
 13
1.0
 23
0.0
 33
0.0
 40
0.0
 40
0.0
 40
0.0
 40
0.0
 40
1.0
 40
1.0
 40
1.0
 40
2.0
 40
2.0
 40
2.0
 40
3.0
 40
3.0
 40
3.0
 40
4.0
 40
4.0
 40
4.0
 40
4.0
 10
194.9245839667165
 20
-128.3079108720297
 30
0.0
 10
194.6441895630917
 20
-127.4990933451248
 30
0.0
 10
195.0725611430363
 20
-126.616112614306
 30
0.0
 10
195.8813786699418
 20
-126.3357182106817
 30
0.0
 10
196.6901961968473
 20
-126.0553238070562
 30
0.0
 10
197.5731769276655
 20
-126.4836953870014
 30
0.0
 10
197.8535713312904
 20
-127.2925129139069
 30
0.0
 10
198.1339657349153
 20
-128.1013304408125
 30
0.0
 10
197.70559415497
 20
-128.9843111716307
 30
0.0
 10
196.8967766280645
 20
-129.2647055752549
 30
0.0
 10
196.0879591011597
 20
-129.5450999788798
 30
0.0
 10
195.2049783703408
 20
-129.1167283989352
 30
0.0
 10
194.9245839667165
 20
-128.3079108720297
 30
0.0
  0
SPLINE
  5
49
330
1F
100
AcDbEntity
  8
Standoffs
370
     0
100
AcDbSpline
210
0.0
220
0.0
230
1.0
 70
    11
 71
     3
 72
    17
 73
    13
 74
     0
 42
0.0000000001
 43
0.0000000001
 12
1.0
 22
0.0
 32
0.0
 13
1.0
 23
0.0
 33
0.0
 40
0.0
 40
0.0
 40
0.0
 40
0.0
 40
1.0
 40
1.0
 40
1.0
 40
2.0
 40
2.0
 40
2.0
 40
3.0
 40
3.0
 40
3.0
 40
4.0
 40
4.0
 40
4.0
 40
4.0
 10
134.9973703804132
 20
-161.4841654412502
 30
0.0
 10
135.7387239465235
 20
-161.0561447601739
 30
0.0
 10
136.6866890747411
 20
-161.3101512506097
 30
0.0
 10
137.1147097558184
 20
-162.0515048167207
 30
0.0
 10
137.5427304368945
 20
-162.7928583828305
 30
0.0
 10
137.288723946458
 20
-163.7408235110486
 30
0.0
 10
136.5473703803476
 20
-164.1688441921256
 30
0.0
 10
135.8060168142372
 20
-164.5968648732021
 30
0.0
 10
134.8580516860197
 20
-164.3428583827643
 30
0.0
 10
134.430031004943
 20
-163.6015048166545
 30
0.0
 10
134.0020103238663
 20
-162.8601512505441
 30
0.0
 10
134.2560168143034
 20
-161.9121861223267
 30
0.0
 10
134.9973703804132
 20
-161.4841654412502
 30
0.0
  0
SPLINE
  5
4A
330
1F
100
AcDbEntity
  8
Standoffs
370
     0
100
AcDbSpline
210
0.0
220
0.0
230
1.0
 70
    11
 71
     3
 72
    17
 73
    13
 74
     0
 42
0.0000000001
 43
0.0000000001
 12
1.0
 22
0.0
 32
0.0
 13
1.0
 23
0.0
 33
0.0
 40
0.0
 40
0.0
 40
0.0
 40
0.0
 40
1.0
 40
1.0
 40
1.0
 40
2.0
 40
2.0
 40
2.0
 40
3.0
 40
3.0
 40
3.0
 40
4.0
 40
4.0
 40
4.0
 40
4.0
 10
102.0943884971722
 20
-141.6124610220141
 30
0.0
 10
102.93504222432
 20
-141.7740411087979
 30
0.0
 10
103.4855401783377
 20
-142.5865121446662
 30
0.0
 10
103.3239600915526
 20
-143.4271658718139
 30
0.0
 10
103.1623800047694
 20
-144.267819598963
 30
0.0
 10
102.3499089689011
 20
-144.8183175529788
 30
0.0
 10
101.5092552417534
 20
-144.656737466195
 30
0.0
 10
100.6686015146043
 20
-144.4951573794111
 30
0.0
 10
100.1181035605879
 20
-143.6826863435429
 30
0.0
 10
100.2796836473724
 20
-142.8420326163944
 30
0.0
 10
100.4412637341568
 20
-142.0013788892467
 30
0.0
 10
101.2537347700245
 20
-141.450880935229
 30
0.0
 10
102.0943884971722
 20
-141.6124610220141
 30
0.0
  0
SPLINE
  5
4C
330
1F
100
AcDbEntity
  8
Nunchuky mount
370
     0
100
AcDbSpline
210
0.0
220
0.0
230
1.0
 70
    11
 71
     3
 72
    17
 73
    13
 74
     0
 42
0.0000000001
 43
0.0000000001
 12
1.0
 22
0.0
 32
0.0
 13
1.0
 23
0.0
 33
0.0
 40
0.0
 40
0.0
 40
0.0
 40
0.0
 40
1.0
 40
1.0
 40
1.0
 40
2.0
 40
2.0
 40
2.0
 40
3.0
 40
3.0
 40
3.0
 40
4.0
 40
4.0
 40
4.0
 40
4.0
 10
83.182785502319
 20
-100.1963203659736
 30
0.0
 10
83.182785502319
 20
-100.6381481657029
 30
0.0
 10
82.82461307662847
 20
-100.9963203657734
 30
0.0
 10
82.38278499858203
 20
-100.9963203657734
 30
0.0
 10
81.94095692053592
 20
-100.9963203657734
 30
0.0
 10
81.58278449484504
 20
-100.6381481657029
 30
0.0
 10
81.58278449484504
 20
-100.1963203659736
 30
0.0
 10
81.58278449484504
 20
-99.75449256624387
 30
0.0
 10
81.94095692053592
 20
-99.39632036617341
 30
0.0
 10
82.38278499858203
 20
-99.39632036617341
 30
0.0
 10
82.82461307662847
 20
-99.39632036617341
 30
0.0
 10
83.182785502319
 20
-99.75449256624387
 30
0.0
 10
83.182785502319
 20
-100.1963203659736
 30
0.0
  0
SPLINE
  5
4D
330
1F
100
AcDbEntity
  8
Nunchuky mount
370
     0
100
AcDbSpline
210
0.0
220
0.0
230
1.0
 70
    11
 71
     3
 72
    17
 73
    13
 74
     0
 42
0.0000000001
 43
0.0000000001
 12
1.0
 22
0.0
 32
0.0
 13
1.0
 23
0.0
 33
0.0
 40
0.0
 40
0.0
 40
0.0
 40
0.0
 40
1.0
 40
1.0
 40
1.0
 40
2.0
 40
2.0
 40
2.0
 40
3.0
 40
3.0
 40
3.0
 40
4.0
 40
4.0
 40
4.0
 40
4.0
 10
83.182785502319
 20
-116.196319747383
 30
0.0
 10
83.182785502319
 20
-116.6381475471124
 30
0.0
 10
82.82461307662847
 20
-116.9963197471828
 30
0.0
 10
82.38278499858203
 20
-116.9963197471828
 30
0.0
 10
81.94095692053592
 20
-116.9963197471828
 30
0.0
 10
81.58278449484504
 20
-116.6381475471124
 30
0.0
 10
81.58278449484504
 20
-116.196319747383
 30
0.0
 10
81.58278449484504
 20
-115.7544919476536
 30
0.0
 10
81.94095692053592
 20
-115.3963197475832
 30
0.0
 10
82.38278499858203
 20
-115.3963197475832
 30
0.0
 10
82.82461307662847
 20
-115.3963197475832
 30
0.0
 10
83.182785502319
 20
-115.7544919476536
 30
0.0
 10
83.182785502319
 20
-116.196319747383
 30
0.0
  0
POLYLINE
  5
4F
330
1F
100
AcDbEntity
  8
Servos
370
     0
100
AcDb2dPolyline
 66
     1
 10
0.0
 20
0.0
 30
0.0
  0
VERTEX
  5
50
330
4F
100
AcDbEntity
  8
Servos
370
     0
100
AcDbVertex
100
AcDb2dVertex
 10
96.54630327989989
 20
-73.12584438615104
 30
0.0
  0
VERTEX
  5
51
330
4F
100
AcDbEntity
  8
Servos
370
     0
100
AcDbVertex
100
AcDb2dVertex
 10
97.78630080427521
 20
-75.27358689015784
 30
0.0
  0
VERTEX
  5
52
330
4F
100
AcDbEntity
  8
Servos
370
     0
100
AcDbVertex
100
AcDb2dVertex
 10
81.34914196947663
 20
-84.76359225379284
 30
0.0
  0
VERTEX
  5
53
330
4F
100
AcDbEntity
  8
Servos
370
     0
100
AcDbVertex
100
AcDb2dVertex
 10
80.1091444451013
 20
-82.61584436682466
 30
0.0
  0
VERTEX
  5
54
330
4F
100
AcDbEntity
  8
Servos
370
     0
100
AcDbVertex
100
AcDb2dVertex
 10
87.76480333465331
 20
-78.19584607182745
 30
0.0
  0
VERTEX
  5
55
330
4F
100
AcDbEntity
  8
Servos
370
     0
100
AcDbVertex
100
AcDb2dVertex
 10
87.7734645200217
 20
-78.19084530041215
 30
0.0
  0
VERTEX
  5
56
330
4F
100
AcDbEntity
  8
Servos
370
     0
100
AcDbVertex
100
AcDb2dVertex
 10
87.7684637486064
 20
-78.18218411504375
 30
0.0
  0
VERTEX
  5
57
330
4F
100
AcDbEntity
  8
Servos
370
     0
100
AcDbVertex
100
AcDb2dVertex
 10
86.82740900200191
 20
-76.55222869654662
 30
0.0
  0
VERTEX
  5
58
330
4F
100
AcDbEntity
  8
Servos
370
     0
100
AcDbVertex
100
AcDb2dVertex
 10
87.9359276869597
 20
-75.91222146573604
 30
0.0
  0
VERTEX
  5
59
330
4F
100
AcDbEntity
  8
Servos
370
     0
100
AcDbVertex
100
AcDb2dVertex
 10
88.87698243356418
 20
-77.54218226719486
 30
0.0
  0
VERTEX
  5
5A
330
4F
100
AcDbEntity
  8
Servos
370
     0
100
AcDbVertex
100
AcDb2dVertex
 10
88.88198320497949
 20
-77.55083806960155
 30
0.0
  0
VERTEX
  5
5B
330
4F
100
AcDbEntity
  8
Servos
370
     0
100
AcDbVertex
100
AcDb2dVertex
 10
88.89064439034787
 20
-77.54584268114795
 30
0.0
  0
VERTEX
  5
5C
330
4F
100
AcDbEntity
  8
Servos
370
     0
100
AcDbVertex
100
AcDb2dVertex
 10
96.54630327989989
 20
-73.12584438615104
 30
0.0
  0
SEQEND
  5
5D
330
4F
100
AcDbEntity
  8
Servos
370
     0
  0
POLYLINE
  5
5E
330
1F
100
AcDbEntity
  8
Servos
370
     0
100
AcDb2dPolyline
 66
     1
 10
0.0
 20
0.0
 30
0.0
  0
VERTEX
  5
5F
330
5E
100
AcDbEntity
  8
Servos
370
     0
100
AcDbVertex
100
AcDb2dVertex
 10
96.54996369385329
 20
-73.11218242936735
 30
0.0
  0
VERTEX
  5
60
330
5E
100
AcDbEntity
  8
Servos
370
     0
100
AcDbVertex
100
AcDb2dVertex
 10
88.88564361893256
 20
-77.53718149577955
 30
0.0
  0
VERTEX
  5
61
330
5E
100
AcDbEntity
  8
Servos
370
     0
100
AcDbVertex
100
AcDb2dVertex
 10
87.93958810091279
 20
-75.89856489191403
 30
0.0
  0
VERTEX
  5
62
330
5E
100
AcDbEntity
  8
Servos
370
     0
100
AcDbVertex
100
AcDb2dVertex
 10
86.81374704521822
 20
-76.54856828259355
 30
0.0
  0
VERTEX
  5
63
330
5E
100
AcDbEntity
  8
Servos
370
     0
100
AcDbVertex
100
AcDb2dVertex
 10
87.75980256323832
 20
-78.18718488645906
 30
0.0
  0
VERTEX
  5
64
330
5E
100
AcDbEntity
  8
Servos
370
     0
100
AcDbVertex
100
AcDb2dVertex
 10
80.0954824883176
 20
-82.61218395287126
 30
0.0
  0
VERTEX
  5
65
330
5E
100
AcDbEntity
  8
Servos
370
     0
100
AcDbVertex
100
AcDb2dVertex
 10
81.34548155552355
 20
-84.77724882761483
 30
0.0
  0
VERTEX
  5
66
330
5E
100
AcDbEntity
  8
Servos
370
     0
100
AcDbVertex
100
AcDb2dVertex
 10
97.79996276105891
 20
-75.27724730411092
 30
0.0
  0
VERTEX
  5
67
330
5E
100
AcDbEntity
  8
Servos
370
     0
100
AcDbVertex
100
AcDb2dVertex
 10
96.54996369385329
 20
-73.11218242936735
 30
0.0
  0
VERTEX
  5
68
330
5E
100
AcDbEntity
  8
Servos
370
     0
100
AcDbVertex
100
AcDb2dVertex
 10
96.54996369385329
 20
-73.11218242936735
 30
0.0
  0
SEQEND
  5
69
330
5E
100
AcDbEntity
  8
Servos
370
     0
  0
POLYLINE
  5
6A
330
1F
100
AcDbEntity
  8
Servos
370
     0
100
AcDb2dPolyline
 66
     1
 10
0.0
 20
0.0
 30
0.0
  0
VERTEX
  5
6B
330
6A
100
AcDbEntity
  8
Servos
370
     0
100
AcDbVertex
100
AcDb2dVertex
 10
105.224029412285
 20
-99.13610691458018
 30
0.0
  0
VERTEX
  5
6C
330
6A
100
AcDbEntity
  8
Servos
370
     0
100
AcDbVertex
100
AcDb2dVertex
 10
98.2958263978002
 20
-103.1361049760544
 30
0.0
  0
VERTEX
  5
6D
330
6A
100
AcDbEntity
  8
Servos
370
     0
100
AcDbVertex
100
AcDb2dVertex
 10
96.04582739787925
 20
-99.23899008292736
 30
0.0
  0
VERTEX
  5
6E
330
6A
100
AcDbEntity
  8
Servos
370
     0
100
AcDbVertex
100
AcDb2dVertex
 10
102.9740304123643
 20
-95.23899202145222
 30
0.0
  0
VERTEX
  5
6F
330
6A
100
AcDbEntity
  8
Servos
370
     0
100
AcDbVertex
100
AcDb2dVertex
 10
105.224029412285
 20
-99.13610691458018
 30
0.0
  0
SEQEND
  5
70
330
6A
100
AcDbEntity
  8
Servos
370
     0
  0
POLYLINE
  5
71
330
1F
100
AcDbEntity
  8
Servos
370
     0
100
AcDb2dPolyline
 66
     1
 10
0.0
 20
0.0
 30
0.0
  0
VERTEX
  5
72
330
71
100
AcDbEntity
  8
Servos
370
     0
100
AcDbVertex
100
AcDb2dVertex
 10
154.8280278984404
 20
-39.47482724792345
 30
0.0
  0
VERTEX
  5
73
330
71
100
AcDbEntity
  8
Servos
370
     0
100
AcDbVertex
100
AcDb2dVertex
 10
156.0680254228157
 20
-41.62256706044972
 30
0.0
  0
VERTEX
  5
74
330
71
100
AcDbEntity
  8
Servos
370
     0
100
AcDbVertex
100
AcDb2dVertex
 10
139.6308612050554
 20
-51.11257242408438
 30
0.0
  0
VERTEX
  5
75
330
71
100
AcDbEntity
  8
Servos
370
     0
100
AcDbVertex
100
AcDb2dVertex
 10
138.3908636806801
 20
-48.96482992007759
 30
0.0
  0
VERTEX
  5
76
330
71
100
AcDbEntity
  8
Servos
370
     0
100
AcDbVertex
100
AcDb2dVertex
 10
146.0465225702321
 20
-44.54482893360017
 30
0.0
  0
VERTEX
  5
77
330
71
100
AcDbEntity
  8
Servos
370
     0
100
AcDbVertex
100
AcDb2dVertex
 10
146.0551891385622
 20
-44.53983085366539
 30
0.0
  0
VERTEX
  5
78
330
71
100
AcDbEntity
  8
Servos
370
     0
100
AcDbVertex
100
AcDb2dVertex
 10
146.0501829841852
 20
-44.531169668297
 30
0.0
  0
VERTEX
  5
79
330
71
100
AcDbEntity
  8
Servos
370
     0
100
AcDbVertex
100
AcDb2dVertex
 10
145.1091336205424
 20
-42.90121155831903
 30
0.0
  0
VERTEX
  5
7A
330
71
100
AcDbEntity
  8
Servos
370
     0
100
AcDbVertex
100
AcDb2dVertex
 10
146.2176469225385
 20
-42.26120701898928
 30
0.0
  0
VERTEX
  5
7B
330
71
100
AcDbEntity
  8
Servos
370
     0
100
AcDbVertex
100
AcDb2dVertex
 10
147.1587070521046
 20
-43.89116243748673
 30
0.0
  0
VERTEX
  5
7C
330
71
100
AcDbEntity
  8
Servos
370
     0
100
AcDbVertex
100
AcDb2dVertex
 10
147.1637024405583
 20
-43.8998236228548
 30
0.0
  0
VERTEX
  5
7D
330
71
100
AcDbEntity
  8
Servos
370
     0
100
AcDbVertex
100
AcDb2dVertex
 10
147.1723582429649
 20
-43.89482554292066
 30
0.0
  0
VERTEX
  5
7E
330
71
100
AcDbEntity
  8
Servos
370
     0
100
AcDbVertex
100
AcDb2dVertex
 10
154.8280278984404
 20
-39.47482724792345
 30
0.0
  0
SEQEND
  5
7F
330
71
100
AcDbEntity
  8
Servos
370
     0
  0
POLYLINE
  5
80
330
1F
100
AcDbEntity
  8
Servos
370
     0
100
AcDb2dPolyline
 66
     1
 10
0.0
 20
0.0
 30
0.0
  0
VERTEX
  5
81
330
80
100
AcDbEntity
  8
Servos
370
     0
100
AcDbVertex
100
AcDb2dVertex
 10
154.8316883123934
 20
-39.4611679826206
 30
0.0
  0
VERTEX
  5
82
330
80
100
AcDbEntity
  8
Servos
370
     0
100
AcDbVertex
100
AcDb2dVertex
 10
147.1673628545113
 20
-43.88616435755196
 30
0.0
  0
VERTEX
  5
83
330
80
100
AcDbEntity
  8
Servos
370
     0
100
AcDbVertex
100
AcDb2dVertex
 10
146.2213073364915
 20
-42.24754775368611
 30
0.0
  0
VERTEX
  5
84
330
80
100
AcDbEntity
  8
Servos
370
     0
100
AcDbVertex
100
AcDb2dVertex
 10
145.0954716637587
 20
-42.89755114436563
 30
0.0
  0
VERTEX
  5
85
330
80
100
AcDbEntity
  8
Servos
370
     0
100
AcDbVertex
100
AcDb2dVertex
 10
146.0415271817785
 20
-44.53616774823146
 30
0.0
  0
VERTEX
  5
86
330
80
100
AcDbEntity
  8
Servos
370
     0
100
AcDbVertex
100
AcDb2dVertex
 10
138.3772017238964
 20
-48.96116950612451
 30
0.0
  0
VERTEX
  5
87
330
80
100
AcDbEntity
  8
Servos
370
     0
100
AcDbVertex
100
AcDb2dVertex
 10
139.6272007911023
 20
-51.12622899790638
 30
0.0
  0
VERTEX
  5
88
330
80
100
AcDbEntity
  8
Servos
370
     0
100
AcDbVertex
100
AcDb2dVertex
 10
156.0816873795994
 20
-41.62622747440247
 30
0.0
  0
VERTEX
  5
89
330
80
100
AcDbEntity
  8
Servos
370
     0
100
AcDbVertex
100
AcDb2dVertex
 10
154.8316883123934
 20
-39.4611679826206
 30
0.0
  0
VERTEX
  5
8A
330
80
100
AcDbEntity
  8
Servos
370
     0
100
AcDbVertex
100
AcDb2dVertex
 10
154.8316883123934
 20
-39.4611679826206
 30
0.0
  0
SEQEND
  5
8B
330
80
100
AcDbEntity
  8
Servos
370
     0
  0
POLYLINE
  5
8C
330
1F
100
AcDbEntity
  8
Servos
370
     0
100
AcDb2dPolyline
 66
     1
 10
0.0
 20
0.0
 30
0.0
  0
VERTEX
  5
8D
330
8C
100
AcDbEntity
  8
Servos
370
     0
100
AcDbVertex
100
AcDb2dVertex
 10
163.5057538068535
 20
-65.48509001984914
 30
0.0
  0
VERTEX
  5
8E
330
8C
100
AcDbEntity
  8
Servos
370
     0
100
AcDbVertex
100
AcDb2dVertex
 10
156.5775507923694
 20
-69.48508808132365
 30
0.0
  0
VERTEX
  5
8F
330
8C
100
AcDbEntity
  8
Servos
370
     0
100
AcDbVertex
100
AcDb2dVertex
 10
154.3275517924481
 20
-65.58797318819663
 30
0.0
  0
VERTEX
  5
90
330
8C
100
AcDbEntity
  8
Servos
370
     0
100
AcDbVertex
100
AcDb2dVertex
 10
161.2557548069329
 20
-61.58797512672116
 30
0.0
  0
VERTEX
  5
91
330
8C
100
AcDbEntity
  8
Servos
370
     0
100
AcDbVertex
100
AcDb2dVertex
 10
163.5057538068535
 20
-65.48509001984914
 30
0.0
  0
SEQEND
  5
92
330
8C
100
AcDbEntity
  8
Servos
370
     0
  0
POLYLINE
  5
93
330
1F
100
AcDbEntity
  8
Servos
370
     0
100
AcDb2dPolyline
 66
     1
 10
0.0
 20
0.0
 30
0.0
  0
VERTEX
  5
94
330
93
100
AcDbEntity
  8
Servos
370
     0
100
AcDbVertex
100
AcDb2dVertex
 10
139.639183263837
 20
-165.1406305536042
 30
0.0
  0
VERTEX
  5
95
330
93
100
AcDbEntity
  8
Servos
370
     0
100
AcDbVertex
100
AcDb2dVertex
 10
156.0763474815973
 20
-174.6306305342775
 30
0.0
  0
VERTEX
  5
96
330
93
100
AcDbEntity
  8
Servos
370
     0
100
AcDbVertex
100
AcDb2dVertex
 10
154.8363499572219
 20
-176.7783676553226
 30
0.0
  0
VERTEX
  5
97
330
93
100
AcDbEntity
  8
Servos
370
     0
100
AcDbVertex
100
AcDb2dVertex
 10
147.1806803017465
 20
-172.3583747432874
 30
0.0
  0
VERTEX
  5
98
330
93
100
AcDbEntity
  8
Servos
370
     0
100
AcDbVertex
100
AcDb2dVertex
 10
147.1720244993398
 20
-172.3533685889104
 30
0.0
  0
VERTEX
  5
99
330
93
100
AcDbEntity
  8
Servos
370
     0
100
AcDbVertex
100
AcDb2dVertex
 10
147.1670291108862
 20
-172.3620351572405
 30
0.0
  0
VERTEX
  5
9A
330
93
100
AcDbEntity
  8
Servos
370
     0
100
AcDbVertex
100
AcDb2dVertex
 10
146.22596898132
 20
-173.9919851927759
 30
0.0
  0
VERTEX
  5
9B
330
93
100
AcDbEntity
  8
Servos
370
     0
100
AcDbVertex
100
AcDb2dVertex
 10
145.1174556793239
 20
-173.351983344927
 30
0.0
  0
VERTEX
  5
9C
330
93
100
AcDbEntity
  8
Servos
370
     0
100
AcDbVertex
100
AcDb2dVertex
 10
146.0585050429667
 20
-171.7220225434682
 30
0.0
  0
VERTEX
  5
9D
330
93
100
AcDbEntity
  8
Servos
370
     0
100
AcDbVertex
100
AcDb2dVertex
 10
146.0635111973437
 20
-171.7133667410615
 30
0.0
  0
VERTEX
  5
9E
330
93
100
AcDbEntity
  8
Servos
370
     0
100
AcDbVertex
100
AcDb2dVertex
 10
146.0548446290136
 20
-171.7083713526079
 30
0.0
  0
VERTEX
  5
9F
330
93
100
AcDbEntity
  8
Servos
370
     0
100
AcDbVertex
100
AcDb2dVertex
 10
138.3991857394616
 20
-167.2883676746493
 30
0.0
  0
VERTEX
  5
A0
330
93
100
AcDbEntity
  8
Servos
370
     0
100
AcDbVertex
100
AcDb2dVertex
 10
139.639183263837
 20
-165.1406305536042
 30
0.0
  0
SEQEND
  5
A1
330
93
100
AcDbEntity
  8
Servos
370
     0
  0
POLYLINE
  5
A2
330
1F
100
AcDbEntity
  8
Servos
370
     0
100
AcDb2dPolyline
 66
     1
 10
0.0
 20
0.0
 30
0.0
  0
VERTEX
  5
A3
330
A2
100
AcDbEntity
  8
Servos
370
     0
100
AcDbVertex
100
AcDb2dVertex
 10
139.6355228498839
 20
-165.1269685968205
 30
0.0
  0
VERTEX
  5
A4
330
A2
100
AcDbEntity
  8
Servos
370
     0
100
AcDbVertex
100
AcDb2dVertex
 10
138.3855237826779
 20
-167.2920280886023
 30
0.0
  0
VERTEX
  5
A5
330
A2
100
AcDbEntity
  8
Servos
370
     0
100
AcDbVertex
100
AcDb2dVertex
 10
146.04984924056
 20
-171.7170271550145
 30
0.0
  0
VERTEX
  5
A6
330
A2
100
AcDbEntity
  8
Servos
370
     0
100
AcDbVertex
100
AcDb2dVertex
 10
145.1037937225402
 20
-173.3556437588801
 30
0.0
  0
VERTEX
  5
A7
330
A2
100
AcDbEntity
  8
Servos
370
     0
100
AcDbVertex
100
AcDb2dVertex
 10
146.2296293952731
 20
-174.0056471495596
 30
0.0
  0
VERTEX
  5
A8
330
A2
100
AcDbEntity
  8
Servos
370
     0
100
AcDbVertex
100
AcDb2dVertex
 10
147.1756849132929
 20
-172.3670305456941
 30
0.0
  0
VERTEX
  5
A9
330
A2
100
AcDbEntity
  8
Servos
370
     0
100
AcDbVertex
100
AcDb2dVertex
 10
154.840010371175
 20
-176.7920296121063
 30
0.0
  0
VERTEX
  5
AA
330
A2
100
AcDbEntity
  8
Servos
370
     0
100
AcDbVertex
100
AcDb2dVertex
 10
156.0900094383809
 20
-174.6269701203244
 30
0.0
  0
VERTEX
  5
AB
330
A2
100
AcDbEntity
  8
Servos
370
     0
100
AcDbVertex
100
AcDb2dVertex
 10
139.6355228498839
 20
-165.1269685968205
 30
0.0
  0
VERTEX
  5
AC
330
A2
100
AcDbEntity
  8
Servos
370
     0
100
AcDbVertex
100
AcDb2dVertex
 10
139.6355228498839
 20
-165.1269685968205
 30
0.0
  0
SEQEND
  5
AD
330
A2
100
AcDbEntity
  8
Servos
370
     0
  0
POLYLINE
  5
AE
330
1F
100
AcDbEntity
  8
Servos
370
     0
100
AcDb2dPolyline
 66
     1
 10
0.0
 20
0.0
 30
0.0
  0
VERTEX
  5
AF
330
AE
100
AcDbEntity
  8
Servos
370
     0
100
AcDbVertex
100
AcDb2dVertex
 10
156.5858740337169
 20
-146.768108213962
 30
0.0
  0
VERTEX
  5
B0
330
AE
100
AcDbEntity
  8
Servos
370
     0
100
AcDbVertex
100
AcDb2dVertex
 10
163.5140762912291
 20
-150.7681086391237
 30
0.0
  0
VERTEX
  5
B1
330
AE
100
AcDbEntity
  8
Servos
370
     0
100
AcDbVertex
100
AcDb2dVertex
 10
161.2640757480525
 20
-154.6652226412523
 30
0.0
  0
VERTEX
  5
B2
330
AE
100
AcDbEntity
  8
Servos
370
     0
100
AcDbVertex
100
AcDb2dVertex
 10
154.3358734905403
 20
-150.6652222160886
 30
0.0
  0
VERTEX
  5
B3
330
AE
100
AcDbEntity
  8
Servos
370
     0
100
AcDbVertex
100
AcDb2dVertex
 10
156.5858740337169
 20
-146.768108213962
 30
0.0
  0
SEQEND
  5
B4
330
AE
100
AcDbEntity
  8
Servos
370
     0
  0
POLYLINE
  5
B5
330
1F
100
AcDbEntity
  8
Servos
370
     0
100
AcDb2dPolyline
 66
     1
 10
0.0
 20
0.0
 30
0.0
  0
VERTEX
  5
B6
330
B5
100
AcDbEntity
  8
Servos
370
     0
100
AcDbVertex
100
AcDb2dVertex
 10
81.3556876508986
 20
-131.492684395024
 30
0.0
  0
VERTEX
  5
B7
330
B5
100
AcDbEntity
  8
Servos
370
     0
100
AcDbVertex
100
AcDb2dVertex
 10
97.7928464856972
 20
-140.9826843756973
 30
0.0
  0
VERTEX
  5
B8
330
B5
100
AcDbEntity
  8
Servos
370
     0
100
AcDbVertex
100
AcDb2dVertex
 10
96.55284896132186
 20
-143.1304214967424
 30
0.0
  0
VERTEX
  5
B9
330
B5
100
AcDbEntity
  8
Servos
370
     0
100
AcDbVertex
100
AcDb2dVertex
 10
88.89719007176984
 20
-138.7104285847072
 30
0.0
  0
VERTEX
  5
BA
330
B5
100
AcDbEntity
  8
Servos
370
     0
100
AcDbVertex
100
AcDb2dVertex
 10
88.88852888640146
 20
-138.7054224303302
 30
0.0
  0
VERTEX
  5
BB
330
B5
100
AcDbEntity
  8
Servos
370
     0
100
AcDbVertex
100
AcDb2dVertex
 10
88.88352811498615
 20
-138.7140889986602
 30
0.0
  0
VERTEX
  5
BC
330
B5
100
AcDbEntity
  8
Servos
370
     0
100
AcDbVertex
100
AcDb2dVertex
 10
87.94247336838168
 20
-140.3440390341957
 30
0.0
  0
VERTEX
  5
BD
330
B5
100
AcDbEntity
  8
Servos
370
     0
100
AcDbVertex
100
AcDb2dVertex
 10
86.8339546834239
 20
-139.7040371863468
 30
0.0
  0
VERTEX
  5
BE
330
B5
100
AcDbEntity
  8
Servos
370
     0
100
AcDbVertex
100
AcDb2dVertex
 10
87.77501481299007
 20
-138.0740763848879
 30
0.0
  0
VERTEX
  5
BF
330
B5
100
AcDbEntity
  8
Servos
370
     0
100
AcDbVertex
100
AcDb2dVertex
 10
87.78001558440536
 20
-138.0654205824813
 30
0.0
  0
VERTEX
  5
C0
330
B5
100
AcDbEntity
  8
Servos
370
     0
100
AcDbVertex
100
AcDb2dVertex
 10
87.77135439903698
 20
-138.0604251940277
 30
0.0
  0
VERTEX
  5
C1
330
B5
100
AcDbEntity
  8
Servos
370
     0
100
AcDbVertex
100
AcDb2dVertex
 10
80.11569012652328
 20
-133.6404215160691
 30
0.0
  0
VERTEX
  5
C2
330
B5
100
AcDbEntity
  8
Servos
370
     0
100
AcDbVertex
100
AcDb2dVertex
 10
81.3556876508986
 20
-131.492684395024
 30
0.0
  0
SEQEND
  5
C3
330
B5
100
AcDbEntity
  8
Servos
370
     0
  0
POLYLINE
  5
C4
330
1F
100
AcDbEntity
  8
Servos
370
     0
100
AcDb2dPolyline
 66
     1
 10
0.0
 20
0.0
 30
0.0
  0
VERTEX
  5
C5
330
C4
100
AcDbEntity
  8
Servos
370
     0
100
AcDbVertex
100
AcDb2dVertex
 10
81.35202723694553
 20
-131.4790224382403
 30
0.0
  0
VERTEX
  5
C6
330
C4
100
AcDbEntity
  8
Servos
370
     0
100
AcDbVertex
100
AcDb2dVertex
 10
80.10202816973958
 20
-133.6440819300221
 30
0.0
  0
VERTEX
  5
C7
330
C4
100
AcDbEntity
  8
Servos
370
     0
100
AcDbVertex
100
AcDb2dVertex
 10
87.76635362762167
 20
-138.0690809964343
 30
0.0
  0
VERTEX
  5
C8
330
C4
100
AcDbEntity
  8
Servos
370
     0
100
AcDbVertex
100
AcDb2dVertex
 10
86.8202981096019
 20
-139.7076976002999
 30
0.0
  0
VERTEX
  5
C9
330
C4
100
AcDbEntity
  8
Servos
370
     0
100
AcDbVertex
100
AcDb2dVertex
 10
87.94613378233475
 20
-140.3577009909794
 30
0.0
  0
VERTEX
  5
CA
330
C4
100
AcDbEntity
  8
Servos
370
     0
100
AcDbVertex
100
AcDb2dVertex
 10
88.89218930035454
 20
-138.7190843871139
 30
0.0
  0
VERTEX
  5
CB
330
C4
100
AcDbEntity
  8
Servos
370
     0
100
AcDbVertex
100
AcDb2dVertex
 10
96.55650937527525
 20
-143.1440834535261
 30
0.0
  0
VERTEX
  5
CC
330
C4
100
AcDbEntity
  8
Servos
370
     0
100
AcDbVertex
100
AcDb2dVertex
 10
97.80650844248089
 20
-140.9790239617442
 30
0.0
  0
VERTEX
  5
CD
330
C4
100
AcDbEntity
  8
Servos
370
     0
100
AcDbVertex
100
AcDb2dVertex
 10
81.35202723694553
 20
-131.4790224382403
 30
0.0
  0
VERTEX
  5
CE
330
C4
100
AcDbEntity
  8
Servos
370
     0
100
AcDbVertex
100
AcDb2dVertex
 10
81.35202723694553
 20
-131.4790224382403
 30
0.0
  0
SEQEND
  5
CF
330
C4
100
AcDbEntity
  8
Servos
370
     0
  0
POLYLINE
  5
D0
330
1F
100
AcDbEntity
  8
Servos
370
     0
100
AcDb2dPolyline
 66
     1
 10
0.0
 20
0.0
 30
0.0
  0
VERTEX
  5
D1
330
D0
100
AcDbEntity
  8
Servos
370
     0
100
AcDbVertex
100
AcDb2dVertex
 10
98.30237634443142
 20
-113.1201627557784
 30
0.0
  0
VERTEX
  5
D2
330
D0
100
AcDbEntity
  8
Servos
370
     0
100
AcDbVertex
100
AcDb2dVertex
 10
105.2305786019427
 20
-117.1201631809413
 30
0.0
  0
VERTEX
  5
D3
330
D0
100
AcDbEntity
  8
Servos
370
     0
100
AcDbVertex
100
AcDb2dVertex
 10
102.980578058765
 20
-121.0172771830686
 30
0.0
  0
VERTEX
  5
D4
330
D0
100
AcDbEntity
  8
Servos
370
     0
100
AcDbVertex
100
AcDb2dVertex
 10
96.05237580125348
 20
-117.0172767579062
 30
0.0
  0
VERTEX
  5
D5
330
D0
100
AcDbEntity
  8
Servos
370
     0
100
AcDbVertex
100
AcDb2dVertex
 10
98.30237634443142
 20
-113.1201627557784
 30
0.0
  0
SEQEND
  5
D6
330
D0
100
AcDbEntity
  8
Servos
370
     0
  0
POLYLINE
  5
D7
330
1F
100
AcDbEntity
  8
Servos
370
     0
100
AcDb2dPolyline
 66
     1
 10
0.0
 20
0.0
 30
0.0
  0
VERTEX
  5
D8
330
D7
100
AcDbEntity
  8
Servos
370
     0
100
AcDbVertex
100
AcDb2dVertex
 10
199.0584999434537
 20
-65.06013838942887
 30
0.0
  0
VERTEX
  5
D9
330
D7
100
AcDbEntity
  8
Servos
370
     0
100
AcDbVertex
100
AcDb2dVertex
 10
199.0584999434537
 20
-73.90013497942265
 30
0.0
  0
VERTEX
  5
DA
330
D7
100
AcDbEntity
  8
Servos
370
     0
100
AcDbVertex
100
AcDb2dVertex
 10
199.0584999434537
 20
-73.91013652225327
 30
0.0
  0
VERTEX
  5
DB
330
D7
100
AcDbEntity
  8
Servos
370
     0
100
AcDbVertex
100
AcDb2dVertex
 10
199.0685122522077
 20
-73.91013652225327
 30
0.0
  0
VERTEX
  5
DC
330
D7
100
AcDbEntity
  8
Servos
370
     0
100
AcDbVertex
100
AcDb2dVertex
 10
200.95063251134
 20
-73.91013652225327
 30
0.0
  0
VERTEX
  5
DD
330
D7
100
AcDbEntity
  8
Servos
370
     0
100
AcDbVertex
100
AcDb2dVertex
 10
200.95063251134
 20
-75.19014021795105
 30
0.0
  0
VERTEX
  5
DE
330
D7
100
AcDbEntity
  8
Servos
370
     0
100
AcDbVertex
100
AcDb2dVertex
 10
199.0685122522077
 20
-75.19014021795105
 30
0.0
  0
VERTEX
  5
DF
330
D7
100
AcDbEntity
  8
Servos
370
     0
100
AcDbVertex
100
AcDb2dVertex
 10
199.0584999434537
 20
-75.19014021795105
 30
0.0
  0
VERTEX
  5
E0
330
D7
100
AcDbEntity
  8
Servos
370
     0
100
AcDbVertex
100
AcDb2dVertex
 10
199.0584999434537
 20
-75.20014176078168
 30
0.0
  0
VERTEX
  5
E1
330
D7
100
AcDbEntity
  8
Servos
370
     0
100
AcDbVertex
100
AcDb2dVertex
 10
199.0584999434537
 20
-84.04013835077545
 30
0.0
  0
VERTEX
  5
E2
330
D7
100
AcDbEntity
  8
Servos
370
     0
100
AcDbVertex
100
AcDb2dVertex
 10
196.578504894703
 20
-84.04013835077545
 30
0.0
  0
VERTEX
  5
E3
330
D7
100
AcDbEntity
  8
Servos
370
     0
100
AcDbVertex
100
AcDb2dVertex
 10
196.578504894703
 20
-65.06013838942887
 30
0.0
  0
VERTEX
  5
E4
330
D7
100
AcDbEntity
  8
Servos
370
     0
100
AcDbVertex
100
AcDb2dVertex
 10
199.0584999434537
 20
-65.06013838942887
 30
0.0
  0
SEQEND
  5
E5
330
D7
100
AcDbEntity
  8
Servos
370
     0
  0
POLYLINE
  5
E6
330
1F
100
AcDbEntity
  8
Servos
370
     0
100
AcDb2dPolyline
 66
     1
 10
0.0
 20
0.0
 30
0.0
  0
VERTEX
  5
E7
330
E6
100
AcDbEntity
  8
Servos
370
     0
100
AcDbVertex
100
AcDb2dVertex
 10
199.0685122522077
 20
-65.05013684659825
 30
0.0
  0
VERTEX
  5
E8
330
E6
100
AcDbEntity
  8
Servos
370
     0
100
AcDbVertex
100
AcDb2dVertex
 10
196.5685141177958
 20
-65.05013684659825
 30
0.0
  0
VERTEX
  5
E9
330
E6
100
AcDbEntity
  8
Servos
370
     0
100
AcDbVertex
100
AcDb2dVertex
 10
196.5685141177958
 20
-84.05013989360607
 30
0.0
  0
VERTEX
  5
EA
330
E6
100
AcDbEntity
  8
Servos
370
     0
100
AcDbVertex
100
AcDb2dVertex
 10
199.0685122522077
 20
-84.05013989360607
 30
0.0
  0
VERTEX
  5
EB
330
E6
100
AcDbEntity
  8
Servos
370
     0
100
AcDbVertex
100
AcDb2dVertex
 10
199.0685122522077
 20
-75.20014176078168
 30
0.0
  0
VERTEX
  5
EC
330
E6
100
AcDbEntity
  8
Servos
370
     0
100
AcDbVertex
100
AcDb2dVertex
 10
200.9606232882473
 20
-75.20014176078168
 30
0.0
  0
VERTEX
  5
ED
330
E6
100
AcDbEntity
  8
Servos
370
     0
100
AcDbVertex
100
AcDb2dVertex
 10
200.9606232882473
 20
-73.90013497942265
 30
0.0
  0
VERTEX
  5
EE
330
E6
100
AcDbEntity
  8
Servos
370
     0
100
AcDbVertex
100
AcDb2dVertex
 10
199.0685122522077
 20
-73.90013497942265
 30
0.0
  0
VERTEX
  5
EF
330
E6
100
AcDbEntity
  8
Servos
370
     0
100
AcDbVertex
100
AcDb2dVertex
 10
199.0685122522077
 20
-65.05013684659825
 30
0.0
  0
VERTEX
  5
F0
330
E6
100
AcDbEntity
  8
Servos
370
     0
100
AcDbVertex
100
AcDb2dVertex
 10
199.0685122522077
 20
-65.05013684659825
 30
0.0
  0
SEQEND
  5
F1
330
E6
100
AcDbEntity
  8
Servos
370
     0
  0
POLYLINE
  5
F2
330
1F
100
AcDbEntity
  8
Servos
370
     0
100
AcDb2dPolyline
 66
     1
 10
0.0
 20
0.0
 30
0.0
  0
VERTEX
  5
F3
330
F2
100
AcDbEntity
  8
Servos
370
     0
100
AcDbVertex
100
AcDb2dVertex
 10
172.1940972404549
 20
-78.55013747274715
 30
0.0
  0
VERTEX
  5
F4
330
F2
100
AcDbEntity
  8
Servos
370
     0
100
AcDbVertex
100
AcDb2dVertex
 10
172.1940972413969
 20
-70.55013747544008
 30
0.0
  0
VERTEX
  5
F5
330
F2
100
AcDbEntity
  8
Servos
370
     0
100
AcDbVertex
100
AcDb2dVertex
 10
176.6940972402731
 20
-70.55013747613184
 30
0.0
  0
VERTEX
  5
F6
330
F2
100
AcDbEntity
  8
Servos
370
     0
100
AcDbVertex
100
AcDb2dVertex
 10
176.6940972393298
 20
-78.55013747344019
 30
0.0
  0
VERTEX
  5
F7
330
F2
100
AcDbEntity
  8
Servos
370
     0
100
AcDbVertex
100
AcDb2dVertex
 10
172.1940972404549
 20
-78.55013747274715
 30
0.0
  0
SEQEND
  5
F8
330
F2
100
AcDbEntity
  8
Servos
370
     0
  0
POLYLINE
  5
F9
330
1F
100
AcDbEntity
  8
Servos
370
     0
100
AcDb2dPolyline
 66
     1
 10
0.0
 20
0.0
 30
0.0
  0
VERTEX
  5
FA
330
F9
100
AcDbEntity
  8
Servos
370
     0
100
AcDbVertex
100
AcDb2dVertex
 10
199.0602655548899
 20
-132.3591043777175
 30
0.0
  0
VERTEX
  5
FB
330
F9
100
AcDbEntity
  8
Servos
370
     0
100
AcDbVertex
100
AcDb2dVertex
 10
199.0602655548899
 20
-141.1991009677113
 30
0.0
  0
VERTEX
  5
FC
330
F9
100
AcDbEntity
  8
Servos
370
     0
100
AcDbVertex
100
AcDb2dVertex
 10
199.0602655548899
 20
-141.2091025105419
 30
0.0
  0
VERTEX
  5
FD
330
F9
100
AcDbEntity
  8
Servos
370
     0
100
AcDbVertex
100
AcDb2dVertex
 10
199.0702778636439
 20
-141.2091025105419
 30
0.0
  0
VERTEX
  5
FE
330
F9
100
AcDbEntity
  8
Servos
370
     0
100
AcDbVertex
100
AcDb2dVertex
 10
200.9523981227762
 20
-141.2091025105419
 30
0.0
  0
VERTEX
  5
FF
330
F9
100
AcDbEntity
  8
Servos
370
     0
100
AcDbVertex
100
AcDb2dVertex
 10
200.9523981227762
 20
-142.4891062062397
 30
0.0
  0
VERTEX
  5
100
330
F9
100
AcDbEntity
  8
Servos
370
     0
100
AcDbVertex
100
AcDb2dVertex
 10
199.0702778636439
 20
-142.4891062062397
 30
0.0
  0
VERTEX
  5
101
330
F9
100
AcDbEntity
  8
Servos
370
     0
100
AcDbVertex
100
AcDb2dVertex
 10
199.0602655548899
 20
-142.4891062062397
 30
0.0
  0
VERTEX
  5
102
330
F9
100
AcDbEntity
  8
Servos
370
     0
100
AcDbVertex
100
AcDb2dVertex
 10
199.0602655548899
 20
-142.4991077490703
 30
0.0
  0
VERTEX
  5
103
330
F9
100
AcDbEntity
  8
Servos
370
     0
100
AcDbVertex
100
AcDb2dVertex
 10
199.0602655548899
 20
-151.3391043390641
 30
0.0
  0
VERTEX
  5
104
330
F9
100
AcDbEntity
  8
Servos
370
     0
100
AcDbVertex
100
AcDb2dVertex
 10
196.5802705061392
 20
-151.3391043390641
 30
0.0
  0
VERTEX
  5
105
330
F9
100
AcDbEntity
  8
Servos
370
     0
100
AcDbVertex
100
AcDb2dVertex
 10
196.5802705061392
 20
-132.3591043777175
 30
0.0
  0
VERTEX
  5
106
330
F9
100
AcDbEntity
  8
Servos
370
     0
100
AcDbVertex
100
AcDb2dVertex
 10
199.0602655548899
 20
-132.3591043777175
 30
0.0
  0
SEQEND
  5
107
330
F9
100
AcDbEntity
  8
Servos
370
     0
  0
POLYLINE
  5
108
330
1F
100
AcDbEntity
  8
Servos
370
     0
100
AcDb2dPolyline
 66
     1
 10
0.0
 20
0.0
 30
0.0
  0
VERTEX
  5
109
330
108
100
AcDbEntity
  8
Servos
370
     0
100
AcDbVertex
100
AcDb2dVertex
 10
199.0702778636439
 20
-132.3491028348869
 30
0.0
  0
VERTEX
  5
10A
330
108
100
AcDbEntity
  8
Servos
370
     0
100
AcDbVertex
100
AcDb2dVertex
 10
196.570279729232
 20
-132.3491028348869
 30
0.0
  0
VERTEX
  5
10B
330
108
100
AcDbEntity
  8
Servos
370
     0
100
AcDbVertex
100
AcDb2dVertex
 10
196.570279729232
 20
-151.3491058818947
 30
0.0
  0
VERTEX
  5
10C
330
108
100
AcDbEntity
  8
Servos
370
     0
100
AcDbVertex
100
AcDb2dVertex
 10
199.0702778636439
 20
-151.3491058818947
 30
0.0
  0
VERTEX
  5
10D
330
108
100
AcDbEntity
  8
Servos
370
     0
100
AcDbVertex
100
AcDb2dVertex
 10
199.0702778636439
 20
-142.4991077490703
 30
0.0
  0
VERTEX
  5
10E
330
108
100
AcDbEntity
  8
Servos
370
     0
100
AcDbVertex
100
AcDb2dVertex
 10
200.9623888996834
 20
-142.4991077490703
 30
0.0
  0
VERTEX
  5
10F
330
108
100
AcDbEntity
  8
Servos
370
     0
100
AcDbVertex
100
AcDb2dVertex
 10
200.9623888996834
 20
-141.1991009677113
 30
0.0
  0
VERTEX
  5
110
330
108
100
AcDbEntity
  8
Servos
370
     0
100
AcDbVertex
100
AcDb2dVertex
 10
199.0702778636439
 20
-141.1991009677113
 30
0.0
  0
VERTEX
  5
111
330
108
100
AcDbEntity
  8
Servos
370
     0
100
AcDbVertex
100
AcDb2dVertex
 10
199.0702778636439
 20
-132.3491028348869
 30
0.0
  0
VERTEX
  5
112
330
108
100
AcDbEntity
  8
Servos
370
     0
100
AcDbVertex
100
AcDb2dVertex
 10
199.0702778636439
 20
-132.3491028348869
 30
0.0
  0
SEQEND
  5
113
330
108
100
AcDbEntity
  8
Servos
370
     0
  0
POLYLINE
  5
114
330
1F
100
AcDbEntity
  8
Servos
370
     0
100
AcDb2dPolyline
 66
     1
 10
0.0
 20
0.0
 30
0.0
  0
VERTEX
  5
115
330
114
100
AcDbEntity
  8
Servos
370
     0
100
AcDbVertex
100
AcDb2dVertex
 10
172.1958705291289
 20
-145.8490998221704
 30
0.0
  0
VERTEX
  5
116
330
114
100
AcDbEntity
  8
Servos
370
     0
100
AcDbVertex
100
AcDb2dVertex
 10
172.1958705300716
 20
-137.8490998248646
 30
0.0
  0
VERTEX
  5
117
330
114
100
AcDbEntity
  8
Servos
370
     0
100
AcDbVertex
100
AcDb2dVertex
 10
176.6958705289472
 20
-137.8490998255564
 30
0.0
  0
VERTEX
  5
118
330
114
100
AcDbEntity
  8
Servos
370
     0
100
AcDbVertex
100
AcDb2dVertex
 10
176.6958705280045
 20
-145.8490998228641
 30
0.0
  0
VERTEX
  5
119
330
114
100
AcDbEntity
  8
Servos
370
     0
100
AcDbVertex
100
AcDb2dVertex
 10
172.1958705291289
 20
-145.8490998221704
 30
0.0
  0
SEQEND
  5
11A
330
114
100
AcDbEntity
  8
Servos
370
     0
  0
ENDSEC
  0
SECTION
  2
OBJECTS
  0
DICTIONARY
  5
C
330
0
100
AcDbDictionary
281
     1
  3
ACAD_GROUP
350
D
  3
ACAD_LAYOUT
350
1A
  3
ACAD_MATERIAL
350
3B
  3
ACAD_MLEADERSTYLE
350
11C
  3
ACAD_MLINESTYLE
350
17
  3
ACAD_PLOTSETTINGS
350
19
  3
ACAD_PLOTSTYLENAME
350
E
  3
ACAD_TABLESTYLE
350
11B
  3
ACAD_VISUALSTYLE
350
2A
  0
SUN
  5
3F
330
29
100
AcDbSun
 90
        1
290
     0
 63
     7
421
 16777215
 40
1.0
291
     1
 91
  2455826
 92
 54000000
292
     0
 70
     2
 71
   256
280
     1
  0
DICTIONARY
  5
D
102
{ACAD_REACTORS
330
C
102
}
330
C
100
AcDbDictionary
281
     1
  0
DICTIONARY
  5
1A
102
{ACAD_REACTORS
330
C
102
}
330
C
100
AcDbDictionary
281
     1
  3
Layout1
350
1E
  3
Layout2
350
26
  3
Model
350
22
  0
DICTIONARY
  5
3B
102
{ACAD_REACTORS
330
C
102
}
330
C
100
AcDbDictionary
281
     1
  3
ByBlock
350
3D
  3
ByLayer
350
3C
  3
Global
350
3E
  0
DICTIONARY
  5
11C
102
{ACAD_REACTORS
330
C
102
}
330
C
100
AcDbDictionary
281
     1
  0
DICTIONARY
  5
17
102
{ACAD_REACTORS
330
C
102
}
330
C
100
AcDbDictionary
281
     1
  3
Standard
350
18
  0
DICTIONARY
  5
19
102
{ACAD_REACTORS
330
C
102
}
330
C
100
AcDbDictionary
281
     1
  0
ACDBDICTIONARYWDFLT
  5
E
102
{ACAD_REACTORS
330
C
102
}
330
C
100
AcDbDictionary
281
     1
  3
Normal
350
F
100
AcDbDictionaryWithDefault
340
F
  0
DICTIONARY
  5
11B
102
{ACAD_REACTORS
330
C
102
}
330
C
100
AcDbDictionary
281
     1
  0
DICTIONARY
  5
2A
102
{ACAD_REACTORS
330
C
102
}
330
C
100
AcDbDictionary
281
     1
  3
2dWireframe
350
2F
  3
3D Hidden
350
31
  3
3dWireframe
350
30
  3
Basic
350
32
  3
Brighten
350
36
  3
ColorChange
350
3A
  3
Conceptual
350
34
  3
Dim
350
35
  3
Facepattern
350
39
  3
Flat
350
2B
  3
FlatWithEdges
350
2C
  3
Gouraud
350
2D
  3
GouraudWithEdges
350
2E
  3
Linepattern
350
38
  3
Realistic
350
33
  3
Thicken
350
37
  0
LAYOUT
  5
1E
102
{ACAD_REACTORS
330
1A
102
}
330
1A
100
AcDbPlotSettings
  1

  2
none_device
  4

  6

 40
0.0
 41
0.0
 42
0.0
 43
0.0
 44
0.0
 45
0.0
 46
0.0
 47
0.0
 48
0.0
 49
0.0
140
0.0
141
0.0
142
1.0
143
1.0
 70
   688
 72
     0
 73
     0
 74
     5
  7

 75
    16
 76
     0
 77
     2
 78
   300
147
1.0
148
0.0
149
0.0
100
AcDbLayout
  1
Layout1
 70
     1
 71
     1
 10
0.0
 20
0.0
 11
12.0
 21
9.0
 12
0.0
 22
0.0
 32
0.0
 14
1.000000000000000E+20
 24
1.000000000000000E+20
 34
1.000000000000000E+20
 15
-1.000000000000000E+20
 25
-1.000000000000000E+20
 35
-1.000000000000000E+20
146
0.0
 13
0.0
 23
0.0
 33
0.0
 16
1.0
 26
0.0
 36
0.0
 17
0.0
 27
1.0
 37
0.0
 76
     0
330
1B
  0
LAYOUT
  5
26
102
{ACAD_REACTORS
330
1A
102
}
330
1A
100
AcDbPlotSettings
  1

  2
none_device
  4

  6

 40
0.0
 41
0.0
 42
0.0
 43
0.0
 44
0.0
 45
0.0
 46
0.0
 47
0.0
 48
0.0
 49
0.0
140
0.0
141
0.0
142
1.0
143
1.0
 70
   688
 72
     0
 73
     0
 74
     5
  7

 75
    16
 76
     0
 77
     2
 78
   300
147
1.0
148
0.0
149
0.0
100
AcDbLayout
  1
Layout2
 70
     1
 71
     2
 10
0.0
 20
0.0
 11
0.0
 21
0.0
 12
0.0
 22
0.0
 32
0.0
 14
0.0
 24
0.0
 34
0.0
 15
0.0
 25
0.0
 35
0.0
146
0.0
 13
0.0
 23
0.0
 33
0.0
 16
1.0
 26
0.0
 36
0.0
 17
0.0
 27
1.0
 37
0.0
 76
     0
330
23
  0
LAYOUT
  5
22
102
{ACAD_REACTORS
330
1A
102
}
330
1A
100
AcDbPlotSettings
  1

  2
none_device
  4

  6

 40
0.0
 41
0.0
 42
0.0
 43
0.0
 44
0.0
 45
0.0
 46
0.0
 47
0.0
 48
0.0
 49
0.0
140
0.0
141
0.0
142
1.0
143
1.0
 70
  1712
 72
     0
 73
     0
 74
     0
  7

 75
     0
 76
     0
 77
     2
 78
   300
147
1.0
148
0.0
149
0.0
100
AcDbLayout
  1
Model
 70
     1
 71
     0
 10
0.0
 20
0.0
 11
12.0
 21
9.0
 12
0.0
 22
0.0
 32
0.0
 14
1.000000000000000E+20
 24
1.000000000000000E+20
 34
1.000000000000000E+20
 15
-1.000000000000000E+20
 25
-1.000000000000000E+20
 35
-1.000000000000000E+20
146
0.0
 13
0.0
 23
0.0
 33
0.0
 16
1.0
 26
0.0
 36
0.0
 17
0.0
 27
1.0
 37
0.0
 76
     0
330
1F
331
29
  0
MATERIAL
  5
3D
102
{ACAD_REACTORS
330
3B
102
}
330
3B
100
AcDbMaterial
  1
ByBlock
 72
     1
 94
      127
  0
MATERIAL
  5
3C
102
{ACAD_REACTORS
330
3B
102
}
330
3B
100
AcDbMaterial
  1
ByLayer
 72
     1
 94
      127
  0
MATERIAL
  5
3E
102
{ACAD_REACTORS
330
3B
102
}
330
3B
100
AcDbMaterial
  1
Global
 72
     1
 94
      127
  0
MLINESTYLE
  5
18
102
{ACAD_REACTORS
330
17
102
}
330
17
100
AcDbMlineStyle
  2
Standard
 70
     0
  3

 62
   256
 51
90.0
 52
90.0
 71
     2
 49
0.5
 62
   256
  6
BYLAYER
 49
-0.5
 62
   256
  6
BYLAYER
  0
ACDBPLACEHOLDER
  5
F
102
{ACAD_REACTORS
330
E
102
}
330
E
  0
VISUALSTYLE
  5
2F
102
{ACAD_REACTORS
330
2A
102
}
330
2A
100
AcDbVisualStyle
  2
2dWireframe
 70
     4
177
     2
291
     0
 71
     0
176
     1
 72
     2
176
     1
 73
     0
176
     1
 90
        0
176
     1
 40
-0.6
176
     1
 41
-30.0
176
     1
 62
     5
 63
     7
421
 16777215
176
     1
 74
     1
176
     1
 91
        4
176
     1
 64
     7
176
     1
 65
   257
176
     1
 75
     1
176
     1
175
     1
176
     1
 42
1.0
176
     1
 92
        0
176
     1
 66
   257
176
     1
 43
1.0
176
     1
 76
     1
176
     1
 77
     6
176
     1
 78
     2
176
     1
 67
     7
176
     1
 79
     5
176
     1
170
     0
176
     1
171
     0
176
     1
290
     0
176
     1
 93
        1
176
     1
 44
0.0
176
     1
173
     0
176
     1
  0
VISUALSTYLE
  5
31
102
{ACAD_REACTORS
330
2A
102
}
330
2A
100
AcDbVisualStyle
  2
3D Hidden
 70
     6
177
     2
291
     0
 71
     1
176
     1
 72
     2
176
     1
 73
     2
176
     1
 90
        0
176
     1
 40
-0.6
176
     1
 41
-30.0
176
     1
 62
     5
 63
     7
421
 16777215
176
     1
 74
     2
176
     1
 91
        2
176
     1
 64
     7
176
     1
 65
   257
176
     1
 75
     2
176
     1
175
     1
176
     1
 42
40.0
176
     1
 92
        0
176
     1
 66
   257
176
     1
 43
1.0
176
     1
 76
     1
176
     1
 77
     6
176
     1
 78
     2
176
     1
 67
     7
176
     1
 79
     3
176
     1
170
     0
176
     1
171
     0
176
     1
290
     0
176
     1
 93
        1
176
     1
 44
0.0
176
     1
173
     0
176
     1
  0
VISUALSTYLE
  5
30
102
{ACAD_REACTORS
330
2A
102
}
330
2A
100
AcDbVisualStyle
  2
3dWireframe
 70
     5
177
     2
291
     0
 71
     0
176
     1
 72
     2
176
     1
 73
     0
176
     1
 90
        0
176
     1
 40
-0.6
176
     1
 41
-30.0
176
     1
 62
     5
 63
     7
421
 16777215
176
     1
 74
     1
176
     1
 91
        4
176
     1
 64
     7
176
     1
 65
   257
176
     1
 75
     1
176
     1
175
     1
176
     1
 42
1.0
176
     1
 92
        0
176
     1
 66
   257
176
     1
 43
1.0
176
     1
 76
     1
176
     1
 77
     6
176
     1
 78
     2
176
     1
 67
     7
176
     1
 79
     5
176
     1
170
     0
176
     1
171
     0
176
     1
290
     0
176
     1
 93
        1
176
     1
 44
0.0
176
     1
173
     0
176
     1
  0
VISUALSTYLE
  5
32
102
{ACAD_REACTORS
330
2A
102
}
330
2A
100
AcDbVisualStyle
  2
Basic
 70
     7
177
     2
291
     1
 71
     1
176
     1
 72
     0
176
     1
 73
     1
176
     1
 90
        0
176
     1
 40
-0.6
176
     1
 41
-30.0
176
     1
 62
     5
 63
     7
421
 16777215
176
     1
 74
     0
176
     1
 91
        4
176
     1
 64
     7
176
     1
 65
   257
176
     1
 75
     1
176
     1
175
     1
176
     1
 42
1.0
176
     1
 92
        8
176
     1
 66
     7
176
     1
 43
1.0
176
     1
 76
     1
176
     1
 77
     6
176
     1
 78
     2
176
     1
 67
     7
176
     1
 79
     5
176
     1
170
     0
176
     1
171
     0
176
     1
290
     0
176
     1
 93
        1
176
     1
 44
0.0
176
     1
173
     0
176
     1
  0
VISUALSTYLE
  5
36
102
{ACAD_REACTORS
330
2A
102
}
330
2A
100
AcDbVisualStyle
  2
Brighten
 70
    12
177
     2
291
     1
 71
     2
176
     1
 72
     2
176
     1
 73
     0
176
     1
 90
        0
176
     1
 40
-0.6
176
     1
 41
-30.0
176
     1
 62
     5
 63
     7
421
 16777215
176
     1
 74
     1
176
     1
 91
        4
176
     1
 64
     7
176
     1
 65
   257
176
     1
 75
     1
176
     1
175
     1
176
     1
 42
1.0
176
     1
 92
        8
176
     1
 66
     7
176
     1
 43
1.0
176
     1
 76
     1
176
     1
 77
     6
176
     1
 78
     2
176
     1
 67
     7
176
     1
 79
     5
176
     1
170
     0
176
     1
171
     0
176
     1
290
     0
176
     1
 93
        1
176
     1
 44
50.0
176
     1
173
     0
176
     1
  0
VISUALSTYLE
  5
3A
102
{ACAD_REACTORS
330
2A
102
}
330
2A
100
AcDbVisualStyle
  2
ColorChange
 70
    16
177
     2
291
     1
 71
     2
176
     1
 72
     2
176
     1
 73
     3
176
     1
 90
        0
176
     1
 40
-0.6
176
     1
 41
-30.0
176
     1
 62
     5
 63
     8
421
  8421504
176
     1
 74
     1
176
     1
 91
        4
176
     1
 64
     7
176
     1
 65
   257
176
     1
 75
     1
176
     1
175
     1
176
     1
 42
1.0
176
     1
 92
        8
176
     1
 66
     8
424
  8421504
176
     1
 43
1.0
176
     1
 76
     1
176
     1
 77
     6
176
     1
 78
     2
176
     1
 67
     7
176
     1
 79
     5
176
     1
170
     0
176
     1
171
     0
176
     1
290
     0
176
     1
 93
        1
176
     1
 44
0.0
176
     1
173
     0
176
     1
  0
VISUALSTYLE
  5
34
102
{ACAD_REACTORS
330
2A
102
}
330
2A
100
AcDbVisualStyle
  2
Conceptual
 70
     9
177
     2
291
     0
 71
     3
176
     1
 72
     2
176
     1
 73
     0
176
     1
 90
        0
176
     1
 40
-0.6
176
     1
 41
-30.0
176
     1
 62
     5
 63
     7
421
 16777215
176
     1
 74
     2
176
     1
 91
        2
176
     1
 64
     7
176
     1
 65
   257
176
     1
 75
     1
176
     1
175
     1
176
     1
 42
40.0
176
     1
 92
        8
176
     1
 66
     7
176
     1
 43
1.0
176
     1
 76
     1
176
     1
 77
     6
176
     1
 78
     2
176
     1
 67
     7
176
     1
 79
     3
176
     1
170
     0
176
     1
171
     0
176
     1
290
     0
176
     1
 93
        1
176
     1
 44
0.0
176
     1
173
     0
176
     1
  0
VISUALSTYLE
  5
35
102
{ACAD_REACTORS
330
2A
102
}
330
2A
100
AcDbVisualStyle
  2
Dim
 70
    11
177
     2
291
     1
 71
     2
176
     1
 72
     2
176
     1
 73
     0
176
     1
 90
        0
176
     1
 40
-0.6
176
     1
 41
-30.0
176
     1
 62
     5
 63
     7
421
 16777215
176
     1
 74
     1
176
     1
 91
        4
176
     1
 64
     7
176
     1
 65
   257
176
     1
 75
     1
176
     1
175
     1
176
     1
 42
1.0
176
     1
 92
        8
176
     1
 66
     7
176
     1
 43
1.0
176
     1
 76
     1
176
     1
 77
     6
176
     1
 78
     2
176
     1
 67
     7
176
     1
 79
     5
176
     1
170
     0
176
     1
171
     0
176
     1
290
     0
176
     1
 93
        1
176
     1
 44
-50.0
176
     1
173
     0
176
     1
  0
VISUALSTYLE
  5
39
102
{ACAD_REACTORS
330
2A
102
}
330
2A
100
AcDbVisualStyle
  2
Facepattern
 70
    15
177
     2
291
     1
 71
     2
176
     1
 72
     2
176
     1
 73
     0
176
     1
 90
        0
176
     1
 40
-0.6
176
     1
 41
-30.0
176
     1
 62
     5
 63
     7
421
 16777215
176
     1
 74
     1
176
     1
 91
        4
176
     1
 64
     7
176
     1
 65
   257
176
     1
 75
     1
176
     1
175
     1
176
     1
 42
1.0
176
     1
 92
        8
176
     1
 66
     7
176
     1
 43
1.0
176
     1
 76
     1
176
     1
 77
     6
176
     1
 78
     2
176
     1
 67
     7
176
     1
 79
     5
176
     1
170
     0
176
     1
171
     0
176
     1
290
     0
176
     1
 93
        1
176
     1
 44
0.0
176
     1
173
     0
176
     1
  0
VISUALSTYLE
  5
2B
102
{ACAD_REACTORS
330
2A
102
}
330
2A
100
AcDbVisualStyle
  2
Flat
 70
     0
177
     2
291
     1
 71
     2
176
     1
 72
     1
176
     1
 73
     1
176
     1
 90
        2
176
     1
 40
-0.6
176
     1
 41
30.0
176
     1
 62
     5
 63
     7
421
 16777215
176
     1
 74
     0
176
     1
 91
        4
176
     1
 64
     7
176
     1
 65
   257
176
     1
 75
     1
176
     1
175
     1
176
     1
 42
1.0
176
     1
 92
        8
176
     1
 66
     7
176
     1
 43
1.0
176
     1
 76
     1
176
     1
 77
     6
176
     1
 78
     2
176
     1
 67
     7
176
     1
 79
     5
176
     1
170
     0
176
     1
171
     0
176
     1
290
     0
176
     1
 93
       13
176
     1
 44
0.0
176
     1
173
     0
176
     1
  0
VISUALSTYLE
  5
2C
102
{ACAD_REACTORS
330
2A
102
}
330
2A
100
AcDbVisualStyle
  2
FlatWithEdges
 70
     1
177
     2
291
     1
 71
     2
176
     1
 72
     1
176
     1
 73
     1
176
     1
 90
        2
176
     1
 40
-0.6
176
     1
 41
30.0
176
     1
 62
     5
 63
     7
421
 16777215
176
     1
 74
     1
176
     1
 91
        4
176
     1
 64
     7
176
     1
 65
   257
176
     1
 75
     1
176
     1
175
     1
176
     1
 42
1.0
176
     1
 92
        0
176
     1
 66
   257
176
     1
 43
1.0
176
     1
 76
     1
176
     1
 77
     6
176
     1
 78
     2
176
     1
 67
     7
176
     1
 79
     5
176
     1
170
     0
176
     1
171
     0
176
     1
290
     0
176
     1
 93
       13
176
     1
 44
0.0
176
     1
173
     0
176
     1
  0
VISUALSTYLE
  5
2D
102
{ACAD_REACTORS
330
2A
102
}
330
2A
100
AcDbVisualStyle
  2
Gouraud
 70
     2
177
     2
291
     1
 71
     2
176
     1
 72
     2
176
     1
 73
     1
176
     1
 90
        2
176
     1
 40
-0.6
176
     1
 41
30.0
176
     1
 62
     5
 63
     7
421
 16777215
176
     1
 74
     0
176
     1
 91
        4
176
     1
 64
     7
176
     1
 65
   257
176
     1
 75
     1
176
     1
175
     1
176
     1
 42
1.0
176
     1
 92
        0
176
     1
 66
     7
176
     1
 43
1.0
176
     1
 76
     1
176
     1
 77
     6
176
     1
 78
     2
176
     1
 67
     7
176
     1
 79
     5
176
     1
170
     0
176
     1
171
     0
176
     1
290
     0
176
     1
 93
       13
176
     1
 44
0.0
176
     1
173
     0
176
     1
  0
VISUALSTYLE
  5
2E
102
{ACAD_REACTORS
330
2A
102
}
330
2A
100
AcDbVisualStyle
  2
GouraudWithEdges
 70
     3
177
     2
291
     1
 71
     2
176
     1
 72
     2
176
     1
 73
     1
176
     1
 90
        2
176
     1
 40
-0.6
176
     1
 41
30.0
176
     1
 62
     5
 63
     7
421
 16777215
176
     1
 74
     1
176
     1
 91
        4
176
     1
 64
     7
176
     1
 65
   257
176
     1
 75
     1
176
     1
175
     1
176
     1
 42
1.0
176
     1
 92
        0
176
     1
 66
   257
176
     1
 43
1.0
176
     1
 76
     1
176
     1
 77
     6
176
     1
 78
     2
176
     1
 67
     7
176
     1
 79
     5
176
     1
170
     0
176
     1
171
     0
176
     1
290
     0
176
     1
 93
       13
176
     1
 44
0.0
176
     1
173
     0
176
     1
  0
VISUALSTYLE
  5
38
102
{ACAD_REACTORS
330
2A
102
}
330
2A
100
AcDbVisualStyle
  2
Linepattern
 70
    14
177
     2
291
     1
 71
     2
176
     1
 72
     2
176
     1
 73
     0
176
     1
 90
        0
176
     1
 40
-0.6
176
     1
 41
-30.0
176
     1
 62
     5
 63
     7
421
 16777215
176
     1
 74
     1
176
     1
 91
        4
176
     1
 64
     7
176
     1
 65
   257
176
     1
 75
     7
176
     1
175
     7
176
     1
 42
1.0
176
     1
 92
        8
176
     1
 66
     7
176
     1
 43
1.0
176
     1
 76
     1
176
     1
 77
     6
176
     1
 78
     2
176
     1
 67
     7
176
     1
 79
     5
176
     1
170
     0
176
     1
171
     0
176
     1
290
     0
176
     1
 93
        1
176
     1
 44
0.0
176
     1
173
     0
176
     1
  0
VISUALSTYLE
  5
33
102
{ACAD_REACTORS
330
2A
102
}
330
2A
100
AcDbVisualStyle
  2
Realistic
 70
     8
177
     2
291
     0
 71
     2
176
     1
 72
     2
176
     1
 73
     0
176
     1
 90
        0
176
     1
 40
-0.6
176
     1
 41
-30.0
176
     1
 62
     5
 63
     7
421
 16777215
176
     1
 74
     1
176
     1
 91
        0
176
     1
 64
     7
176
     1
 65
   257
176
     1
 75
     1
176
     1
175
     1
176
     1
 42
1.0
176
     1
 92
        8
176
     1
 66
     8
424
  7895160
176
     1
 43
1.0
176
     1
 76
     1
176
     1
 77
     6
176
     1
 78
     2
176
     1
 67
     7
176
     1
 79
     5
176
     1
170
     0
176
     1
171
     0
176
     1
290
     0
176
     1
 93
       13
176
     1
 44
0.0
176
     1
173
     0
176
     1
  0
VISUALSTYLE
  5
37
102
{ACAD_REACTORS
330
2A
102
}
330
2A
100
AcDbVisualStyle
  2
Thicken
 70
    13
177
     2
291
     1
 71
     2
176
     1
 72
     2
176
     1
 73
     0
176
     1
 90
        0
176
     1
 40
-0.6
176
     1
 41
-30.0
176
     1
 62
     5
 63
     7
421
 16777215
176
     1
 74
     1
176
     1
 91
        4
176
     1
 64
     7
176
     1
 65
   257
176
     1
 75
     1
176
     1
175
     1
176
     1
 42
1.0
176
     1
 92
       12
176
     1
 66
     7
176
     1
 43
1.0
176
     1
 76
     1
176
     1
 77
     6
176
     1
 78
     2
176
     1
 67
     7
176
     1
 79
     5
176
     1
170
     0
176
     1
171
     0
176
     1
290
     0
176
     1
 93
        1
176
     1
 44
0.0
176
     1
173
     0
176
     1
  0
ENDSEC
  0
EOF
