  0
SECTION
  2
HEADER
  9
$ACADVER
  1
AC1024
  9
$ACADMAINTVER
 70
     6
  9
$DWGCODEPAGE
  3
UNDEFINED
  9
$INSBASE
 10
0.0
 20
0.0
 30
0.0
  9
$EXTMIN
 10
1.000000000000000E+20
 20
1.000000000000000E+20
 30
1.000000000000000E+20
  9
$EXTMAX
 10
-1.000000000000000E+20
 20
-1.000000000000000E+20
 30
-1.000000000000000E+20
  9
$LIMMIN
 10
0.0
 20
0.0
  9
$LIMMAX
 10
12.0
 20
9.0
  9
$ORTHOMODE
 70
     0
  9
$REGENMODE
 70
     1
  9
$FILLMODE
 70
     1
  9
$QTEXTMODE
 70
     0
  9
$MIRRTEXT
 70
     1
  9
$LTSCALE
 40
1.0
  9
$ATTMODE
 70
     1
  9
$TEXTSIZE
 40
0.2
  9
$TRACEWID
 40
0.05
  9
$TEXTSTYLE
  7
Standard
  9
$CLAYER
  8
0
  9
$CELTYPE
  6
ByLayer
  9
$CECOLOR
 62
   256
  9
$CELTSCALE
 40
1.0
  9
$DISPSILH
 70
     0
  9
$DIMSCALE
 40
1.0
  9
$DIMASZ
 40
0.18
  9
$DIMEXO
 40
0.0625
  9
$DIMDLI
 40
0.38
  9
$DIMRND
 40
0.0
  9
$DIMDLE
 40
0.0
  9
$DIMEXE
 40
0.18
  9
$DIMTP
 40
0.0
  9
$DIMTM
 40
0.0
  9
$DIMTXT
 40
0.18
  9
$DIMCEN
 40
0.09
  9
$DIMTSZ
 40
0.0
  9
$DIMTOL
 70
     0
  9
$DIMLIM
 70
     0
  9
$DIMTIH
 70
     1
  9
$DIMTOH
 70
     1
  9
$DIMSE1
 70
     0
  9
$DIMSE2
 70
     0
  9
$DIMTAD
 70
     0
  9
$DIMZIN
 70
     0
  9
$DIMBLK
  1

  9
$DIMASO
 70
     1
  9
$DIMSHO
 70
     1
  9
$DIMPOST
  1

  9
$DIMAPOST
  1

  9
$DIMALT
 70
     0
  9
$DIMALTD
 70
     2
  9
$DIMALTF
 40
25.4
  9
$DIMLFAC
 40
1.0
  9
$DIMTOFL
 70
     0
  9
$DIMTVP
 40
0.0
  9
$DIMTIX
 70
     0
  9
$DIMSOXD
 70
     0
  9
$DIMSAH
 70
     0
  9
$DIMBLK1
  1

  9
$DIMBLK2
  1

  9
$DIMSTYLE
  2
Standard
  9
$DIMCLRD
 70
     0
  9
$DIMCLRE
 70
     0
  9
$DIMCLRT
 70
     0
  9
$DIMTFAC
 40
1.0
  9
$DIMGAP
 40
0.09
  9
$DIMJUST
 70
     0
  9
$DIMSD1
 70
     0
  9
$DIMSD2
 70
     0
  9
$DIMTOLJ
 70
     1
  9
$DIMTZIN
 70
     0
  9
$DIMALTZ
 70
     0
  9
$DIMALTTZ
 70
     0
  9
$DIMUPT
 70
     0
  9
$DIMDEC
 70
     4
  9
$DIMTDEC
 70
     4
  9
$DIMALTU
 70
     2
  9
$DIMALTTD
 70
     2
  9
$DIMTXSTY
  7
Standard
  9
$DIMAUNIT
 70
     0
  9
$DIMADEC
 70
     0
  9
$DIMALTRND
 40
0.0
  9
$DIMAZIN
 70
     0
  9
$DIMDSEP
 70
    46
  9
$DIMATFIT
 70
     3
  9
$DIMFRAC
 70
     0
  9
$DIMLDRBLK
  1

  9
$DIMLUNIT
 70
     2
  9
$DIMLWD
 70
    -2
  9
$DIMLWE
 70
    -2
  9
$DIMTMOVE
 70
     0
  9
$DIMFXL
 40
1.0
  9
$DIMFXLON
 70
     0
  9
$DIMJOGANG
 40
0.7853981633974483
  9
$DIMTFILL
 70
     0
  9
$DIMTFILLCLR
 70
     0
  9
$DIMARCSYM
 70
     0
  9
$DIMLTYPE
  6

  9
$DIMLTEX1
  6

  9
$DIMLTEX2
  6

  9
$DIMTXTDIRECTION
 70
     0
  9
$LUNITS
 70
     2
  9
$LUPREC
 70
     4
  9
$SKETCHINC
 40
0.1
  9
$FILLETRAD
 40
0.5
  9
$AUNITS
 70
     0
  9
$AUPREC
 70
     0
  9
$MENU
  1
.
  9
$ELEVATION
 40
0.0
  9
$PELEVATION
 40
0.0
  9
$THICKNESS
 40
0.0
  9
$LIMCHECK
 70
     0
  9
$CHAMFERA
 40
0.5
  9
$CHAMFERB
 40
0.5
  9
$CHAMFERC
 40
1.0
  9
$CHAMFERD
 40
0.0
  9
$SKPOLY
 70
     0
  9
$TDCREATE
 40
2458129.58591434
  9
$TDUCREATE
 40
2458129.919247685
  9
$TDUPDATE
 40
2458129.58591434
  9
$TDUUPDATE
 40
2458129.919247685
  9
$TDINDWG
 40
0.0000000116
  9
$TDUSRTIMER
 40
0.0000000116
  9
$USRTIMER
 70
     1
  9
$ANGBASE
 50
0.0
  9
$ANGDIR
 70
     0
  9
$PDMODE
 70
     0
  9
$PDSIZE
 40
0.0
  9
$PLINEWID
 40
0.0
  9
$SPLFRAME
 70
     0
  9
$SPLINETYPE
 70
     6
  9
$SPLINESEGS
 70
     8
  9
$HANDSEED
  5
51
  9
$SURFTAB1
 70
     6
  9
$SURFTAB2
 70
     6
  9
$SURFTYPE
 70
     6
  9
$SURFU
 70
     6
  9
$SURFV
 70
     6
  9
$UCSBASE
  2

  9
$UCSNAME
  2

  9
$UCSORG
 10
0.0
 20
0.0
 30
0.0
  9
$UCSXDIR
 10
1.0
 20
0.0
 30
0.0
  9
$UCSYDIR
 10
0.0
 20
1.0
 30
0.0
  9
$UCSORTHOREF
  2

  9
$UCSORTHOVIEW
 70
     0
  9
$UCSORGTOP
 10
0.0
 20
0.0
 30
0.0
  9
$UCSORGBOTTOM
 10
0.0
 20
0.0
 30
0.0
  9
$UCSORGLEFT
 10
0.0
 20
0.0
 30
0.0
  9
$UCSORGRIGHT
 10
0.0
 20
0.0
 30
0.0
  9
$UCSORGFRONT
 10
0.0
 20
0.0
 30
0.0
  9
$UCSORGBACK
 10
0.0
 20
0.0
 30
0.0
  9
$PUCSBASE
  2

  9
$PUCSNAME
  2

  9
$PUCSORG
 10
0.0
 20
0.0
 30
0.0
  9
$PUCSXDIR
 10
1.0
 20
0.0
 30
0.0
  9
$PUCSYDIR
 10
0.0
 20
1.0
 30
0.0
  9
$PUCSORTHOREF
  2

  9
$PUCSORTHOVIEW
 70
     0
  9
$PUCSORGTOP
 10
0.0
 20
0.0
 30
0.0
  9
$PUCSORGBOTTOM
 10
0.0
 20
0.0
 30
0.0
  9
$PUCSORGLEFT
 10
0.0
 20
0.0
 30
0.0
  9
$PUCSORGRIGHT
 10
0.0
 20
0.0
 30
0.0
  9
$PUCSORGFRONT
 10
0.0
 20
0.0
 30
0.0
  9
$PUCSORGBACK
 10
0.0
 20
0.0
 30
0.0
  9
$USERI1
 70
     0
  9
$USERI2
 70
     0
  9
$USERI3
 70
     0
  9
$USERI4
 70
     0
  9
$USERI5
 70
     0
  9
$USERR1
 40
0.0
  9
$USERR2
 40
0.0
  9
$USERR3
 40
0.0
  9
$USERR4
 40
0.0
  9
$USERR5
 40
0.0
  9
$WORLDVIEW
 70
     1
  9
$SHADEDGE
 70
     3
  9
$SHADEDIF
 70
    70
  9
$TILEMODE
 70
     1
  9
$MAXACTVP
 70
    64
  9
$PINSBASE
 10
0.0
 20
0.0
 30
0.0
  9
$PLIMCHECK
 70
     0
  9
$PEXTMIN
 10
1.000000000000000E+20
 20
1.000000000000000E+20
 30
1.000000000000000E+20
  9
$PEXTMAX
 10
-1.000000000000000E+20
 20
-1.000000000000000E+20
 30
-1.000000000000000E+20
  9
$PLIMMIN
 10
0.0
 20
0.0
  9
$PLIMMAX
 10
12.0
 20
9.0
  9
$UNITMODE
 70
     0
  9
$VISRETAIN
 70
     1
  9
$PLINEGEN
 70
     0
  9
$PSLTSCALE
 70
     1
  9
$TREEDEPTH
 70
  3020
  9
$CMLSTYLE
  2
Standard
  9
$CMLJUST
 70
     0
  9
$CMLSCALE
 40
1.0
  9
$PROXYGRAPHICS
 70
     1
  9
$MEASUREMENT
 70
     0
  9
$CELWEIGHT
370
    -1
  9
$ENDCAPS
280
     0
  9
$JOINSTYLE
280
     0
  9
$LWDISPLAY
290
     1
  9
$INSUNITS
 70
     1
  9
$HYPERLINKBASE
  1

  9
$STYLESHEET
  1

  9
$XEDIT
290
     1
  9
$CEPSNTYPE
380
     0
  9
$PSTYLEMODE
290
     1
  9
$FINGERPRINTGUID
  2
{E13A0277-A2DE-F189-99C2-4A27B8276604}
  9
$VERSIONGUID
  2
{FAEB1C32-E019-11D5-929B-00C0DF256EC4}
  9
$EXTNAMES
290
     1
  9
$PSVPSCALE
 40
0.0
  9
$OLESTARTUP
290
     0
  9
$SORTENTS
280
   127
  9
$INDEXCTL
280
     0
  9
$HIDETEXT
280
     1
  9
$XCLIPFRAME
280
     2
  9
$HALOGAP
280
     0
  9
$OBSCOLOR
 70
   257
  9
$OBSLTYPE
280
     0
  9
$INTERSECTIONDISPLAY
280
     0
  9
$INTERSECTIONCOLOR
 70
   257
  9
$DIMASSOC
280
     2
  9
$PROJECTNAME
  1

  9
$CAMERADISPLAY
290
     0
  9
$LENSLENGTH
 40
50.0
  9
$CAMERAHEIGHT
 40
0.0
  9
$STEPSPERSEC
 40
2.0
  9
$STEPSIZE
 40
6.0
  9
$3DDWFPREC
 40
2.0
  9
$PSOLWIDTH
 40
0.25
  9
$PSOLHEIGHT
 40
4.0
  9
$LOFTANG1
 40
1.570796326794897
  9
$LOFTANG2
 40
1.570796326794897
  9
$LOFTMAG1
 40
0.0
  9
$LOFTMAG2
 40
0.0
  9
$LOFTPARAM
 70
     7
  9
$LOFTNORMALS
280
     1
  9
$LATITUDE
 40
37.795
  9
$LONGITUDE
 40
-122.394
  9
$NORTHDIRECTION
 40
0.0
  9
$TIMEZONE
 70
 -8000
  9
$LIGHTGLYPHDISPLAY
280
     1
  9
$TILEMODELIGHTSYNCH
280
     1
  9
$CMATERIAL
347
3C
  9
$SOLIDHIST
280
     1
  9
$SHOWHIST
280
     1
  9
$DWFFRAME
280
     2
  9
$DGNFRAME
280
     2
  9
$REALWORLDSCALE
290
     1
  9
$INTERFERECOLOR
 62
   256
  9
$CSHADOW
280
     0
  9
$SHADOWPLANELOCATION
 40
0.0
  0
ENDSEC
  0
SECTION
  2
CLASSES
  0
CLASS
  1
ACDBDICTIONARYWDFLT
  2
AcDbDictionaryWithDefault
  3
ObjectDBX Classes
 90
        0
 91
        4
280
     0
281
     0
  0
CLASS
  1
VISUALSTYLE
  2
AcDbVisualStyle
  3
ObjectDBX Classes
 90
     4095
 91
        4
280
     0
281
     0
  0
CLASS
  1
MATERIAL
  2
AcDbMaterial
  3
ObjectDBX Classes
 90
     1153
 91
        4
280
     0
281
     0
  0
CLASS
  1
SUN
  2
AcDbSun
  3
SCENEOE
 90
     1024
 91
        4
280
     0
281
     0
  0
ENDSEC
  0
SECTION
  2
TABLES
  0
TABLE
  2
VPORT
  5
8
330
0
100
AcDbSymbolTable
 70
     1
  0
VPORT
  5
29
330
8
100
AcDbSymbolTableRecord
100
AcDbViewportTableRecord
  2
*Active
 70
     0
 10
0.0
 20
0.0
 11
1.0
 21
1.0
 12
0.0
 22
0.0
 13
0.0
 23
0.0
 14
0.5
 24
0.5
 15
0.5
 25
0.5
 16
0.0
 26
0.0
 36
1.0
 17
42.18531103499151
 27
37.75547554672075
 37
0.0
 40
112.0200730037715
 41
0.8771285179876382
 42
50.0
 43
0.0
 44
0.0
 50
0.0
 51
0.0
 71
     0
 72
   100
 73
     1
 74
     3
 75
     0
 76
     0
 77
     0
 78
     0
281
     0
 65
     1
110
0.0
120
0.0
130
0.0
111
1.0
121
0.0
131
0.0
112
0.0
122
1.0
132
0.0
 79
     0
146
0.0
 60
     3
 61
     5
292
     1
282
     1
141
0.0
142
0.0
 63
   250
361
3F
  0
ENDTAB
  0
TABLE
  2
LTYPE
  5
5
330
0
100
AcDbSymbolTable
 70
     1
  0
LTYPE
  5
14
330
5
100
AcDbSymbolTableRecord
100
AcDbLinetypeTableRecord
  2
ByBlock
 70
     0
  3

 72
    65
 73
     0
 40
0.0
  0
LTYPE
  5
15
330
5
100
AcDbSymbolTableRecord
100
AcDbLinetypeTableRecord
  2
ByLayer
 70
     0
  3

 72
    65
 73
     0
 40
0.0
  0
LTYPE
  5
16
330
5
100
AcDbSymbolTableRecord
100
AcDbLinetypeTableRecord
  2
Continuous
 70
     0
  3
Solid line
 72
    65
 73
     0
 40
0.0
  0
ENDTAB
  0
TABLE
  2
LAYER
  5
2
330
0
100
AcDbSymbolTable
 70
     2
  0
LAYER
  5
10
330
2
100
AcDbSymbolTableRecord
100
AcDbLayerTableRecord
  2
0
 70
     0
 62
     7
  6
Continuous
370
    -3
390
F
347
3E
  0
LAYER
  5
40
330
2
100
AcDbSymbolTableRecord
100
AcDbLayerTableRecord
  2
Layer 1
 70
     0
 62
     7
  6
Continuous
370
    -3
390
F
347
3E
  0
ENDTAB
  0
TABLE
  2
STYLE
  5
3
330
0
100
AcDbSymbolTable
 70
     1
  0
STYLE
  5
11
330
3
100
AcDbSymbolTableRecord
100
AcDbTextStyleTableRecord
  2
Standard
 70
     0
 40
0.0
 41
1.0
 50
0.0
 71
     0
 42
0.2
  3
txt
  4

  0
ENDTAB
  0
TABLE
  2
VIEW
  5
6
330
0
100
AcDbSymbolTable
 70
     0
  0
ENDTAB
  0
TABLE
  2
UCS
  5
7
330
0
100
AcDbSymbolTable
 70
     0
  0
ENDTAB
  0
TABLE
  2
APPID
  5
9
330
0
100
AcDbSymbolTable
 70
     1
  0
APPID
  5
12
330
9
100
AcDbSymbolTableRecord
100
AcDbRegAppTableRecord
  2
ACAD
 70
     0
  0
ENDTAB
  0
TABLE
  2
DIMSTYLE
  5
A
330
0
100
AcDbSymbolTable
 70
     1
100
AcDbDimStyleTable
  0
DIMSTYLE
105
27
330
A
100
AcDbSymbolTableRecord
100
AcDbDimStyleTableRecord
  2
Standard
 70
     0
178
     0
340
11
  0
ENDTAB
  0
TABLE
  2
BLOCK_RECORD
  5
1
330
0
100
AcDbSymbolTable
 70
     1
  0
BLOCK_RECORD
  5
1F
330
1
100
AcDbSymbolTableRecord
100
AcDbBlockTableRecord
  2
*Model_Space
340
22
 70
     0
280
     1
281
     0
  0
BLOCK_RECORD
  5
1B
330
1
100
AcDbSymbolTableRecord
100
AcDbBlockTableRecord
  2
*Paper_Space
340
1E
 70
     0
280
     1
281
     0
  0
BLOCK_RECORD
  5
23
330
1
100
AcDbSymbolTableRecord
100
AcDbBlockTableRecord
  2
*Paper_Space0
340
26
 70
     0
280
     1
281
     0
  0
ENDTAB
  0
ENDSEC
  0
SECTION
  2
BLOCKS
  0
BLOCK
  5
20
330
1F
100
AcDbEntity
  8
0
100
AcDbBlockBegin
  2
*Model_Space
 70
     0
 10
0.0
 20
0.0
 30
0.0
  3
*Model_Space
  1

  0
ENDBLK
  5
21
330
1F
100
AcDbEntity
  8
0
100
AcDbBlockEnd
  0
BLOCK
  5
1C
330
1B
100
AcDbEntity
 67
     1
  8
0
100
AcDbBlockBegin
  2
*Paper_Space
 70
     0
 10
0.0
 20
0.0
 30
0.0
  3
*Paper_Space
  1

  0
ENDBLK
  5
1D
330
1B
100
AcDbEntity
 67
     1
  8
0
100
AcDbBlockEnd
  0
BLOCK
  5
24
330
23
100
AcDbEntity
  8
0
100
AcDbBlockBegin
  2
*Paper_Space0
 70
     0
 10
0.0
 20
0.0
 30
0.0
  3
*Paper_Space0
  1

  0
ENDBLK
  5
25
330
23
100
AcDbEntity
  8
0
100
AcDbBlockEnd
  0
ENDSEC
  0
SECTION
  2
ENTITIES
  0
SPLINE
  5
41
330
1F
100
AcDbEntity
  8
Layer 1
370
     0
100
AcDbSpline
210
0.0
220
0.0
230
1.0
 70
    11
 71
     3
 72
    38
 73
    34
 74
     0
 42
0.0000000001
 43
0.0000000001
 12
1.0
 22
0.0
 32
0.0
 13
1.0
 23
0.0
 33
0.0
 40
0.0
 40
0.0
 40
0.0
 40
0.0
 40
1.0
 40
1.0
 40
1.0
 40
2.0
 40
2.0
 40
2.0
 40
3.0
 40
3.0
 40
3.0
 40
4.0
 40
4.0
 40
4.0
 40
5.0
 40
5.0
 40
5.0
 40
6.0
 40
6.0
 40
6.0
 40
7.0
 40
7.0
 40
7.0
 40
8.0
 40
8.0
 40
8.0
 40
9.0
 40
9.0
 40
9.0
 40
10.0
 40
10.0
 40
10.0
 40
11.0
 40
11.0
 40
11.0
 40
11.0
 10
52.17820613406469
 20
-3.708753858306915
 30
0.0
 10
52.44781715355568
 20
-5.517558179143776
 30
0.0
 10
51.65941781767964
 20
-7.321141027135806
 30
0.0
 10
50.1487219155508
 20
-8.351655214161164
 30
0.0
 10
48.63801524749889
 20
-9.382137103416348
 30
0.0
 10
46.64872022100511
 20
-9.445042393792331
 30
0.0
 10
45.06301813060804
 20
-8.53405148825836
 30
0.0
 10
45.06301813060804
 20
-8.53405148825836
 30
0.0
 10
6.360815449311683
 20
13.8436415976457
 30
0.0
 10
6.360815449311683
 20
13.8436415976457
 30
0.0
 10
4.776615205228023
 20
14.75394348408262
 30
0.0
 10
3.851811619982878
 20
16.48935650516027
 30
0.0
 10
3.979511620290038
 20
18.31196273978491
 30
0.0
 10
4.107211620597197
 20
20.13455820848617
 30
0.0
 10
5.288917052769761
 20
21.73355621427131
 30
0.0
 10
6.984614582456514
 20
22.41405946591868
 30
0.0
 10
6.984614582456514
 20
22.41405946591868
 30
0.0
 10
33.42882301768606
 20
32.94366007295967
 30
0.0
 10
33.42882301768606
 20
32.94366007295967
 30
0.0
 10
35.3253157845456
 20
33.69946019280653
 30
0.0
 10
37.49452015683316
 20
33.16314495314026
 30
0.0
 10
38.8227228915546
 20
31.61275509146731
 30
0.0
 10
40.21760975576176
 20
29.98374169126692
 30
0.0
 10
42.12281215464527
 20
28.87696170293685
 30
0.0
 10
44.22912200248024
 20
28.473153448372
 30
0.0
 10
46.22442441422643
 20
28.09114618867475
 30
0.0
 10
47.75972045130462
 20
26.48485965275362
 30
0.0
 10
48.0545129656081
 20
24.47474333042087
 30
0.0
 10
48.0545129656081
 20
24.47474333042087
 30
0.0
 10
52.17820613406469
 20
-3.708753858306915
 30
0.0
 10
52.17820613406469
 20
-3.708753858306915
 30
0.0
 10
52.17820613406469
 20
-3.708753858306915
 30
0.0
 10
52.17820613406469
 20
-3.708753858306915
 30
0.0
 10
52.17820613406469
 20
-3.708753858306915
 30
0.0
  0
SPLINE
  5
42
330
1F
100
AcDbEntity
  8
Layer 1
370
     0
100
AcDbSpline
210
0.0
220
0.0
230
1.0
 70
    11
 71
     3
 72
    38
 73
    34
 74
     0
 42
0.0000000001
 43
0.0000000001
 12
1.0
 22
0.0
 32
0.0
 13
1.0
 23
0.0
 33
0.0
 40
0.0
 40
0.0
 40
0.0
 40
0.0
 40
1.0
 40
1.0
 40
1.0
 40
2.0
 40
2.0
 40
2.0
 40
3.0
 40
3.0
 40
3.0
 40
4.0
 40
4.0
 40
4.0
 40
5.0
 40
5.0
 40
5.0
 40
6.0
 40
6.0
 40
6.0
 40
7.0
 40
7.0
 40
7.0
 40
8.0
 40
8.0
 40
8.0
 40
9.0
 40
9.0
 40
9.0
 40
10.0
 40
10.0
 40
10.0
 40
11.0
 40
11.0
 40
11.0
 40
11.0
 10
48.0758079620763
 20
51.06896414218658
 30
0.0
 10
47.78081089522838
 20
49.0570499106481
 30
0.0
 10
46.2406163630071
 20
47.45244285877539
 30
0.0
 10
44.24311770288907
 20
47.07206125351024
 30
0.0
 10
42.14011299353494
 20
46.67215026321308
 30
0.0
 10
40.23551348636168
 20
45.57294948495056
 30
0.0
 10
38.83791360945956
 20
43.95143993335398
 30
0.0
 10
37.51080899892436
 20
42.41094395527838
 30
0.0
 10
35.35050804528149
 20
41.88144354511823
 30
0.0
 10
33.46020568437169
 20
42.63065491985019
 30
0.0
 10
33.46020568437169
 20
42.63065491985019
 30
0.0
 10
7.011421731701114
 20
53.12324228227089
 30
0.0
 10
7.011421731701114
 20
53.12324228227089
 30
0.0
 10
5.309716816761957
 20
53.79294731275667
 30
0.0
 10
4.140914343773993
 20
55.37674383471315
 30
0.0
 10
4.002609908926298
 20
57.20024364097928
 30
0.0
 10
3.864413133312519
 20
59.02375421316881
 30
0.0
 10
4.803416971510928
 20
60.7786535555849
 30
0.0
 10
6.384715799240603
 20
61.69734209634372
 30
0.0
 10
6.384715799240603
 20
61.69734209634372
 30
0.0
 10
45.10121562680106
 20
84.0503381539879
 30
0.0
 10
45.10121562680106
 20
84.0503381539879
 30
0.0
 10
46.68240679529683
 20
84.96905899251689
 30
0.0
 10
48.64970704030164
 20
84.90256864965157
 30
0.0
 10
50.16532296942035
 20
83.87924609945168
 30
0.0
 10
51.6810142600028
 20
82.85607427217926
 30
0.0
 10
52.4742151977114
 20
81.03053970639215
 30
0.0
 10
52.21321691693355
 20
79.22057266582902
 30
0.0
 10
52.21321691693355
 20
79.22057266582902
 30
0.0
 10
48.0758079620763
 20
51.06896414218658
 30
0.0
 10
48.0758079620763
 20
51.06896414218658
 30
0.0
 10
48.0758079620763
 20
51.06896414218658
 30
0.0
 10
48.0758079620763
 20
51.06896414218658
 30
0.0
 10
48.0758079620763
 20
51.06896414218658
 30
0.0
  0
SPLINE
  5
43
330
1F
100
AcDbEntity
  8
Layer 1
370
     0
100
AcDbSpline
210
0.0
220
0.0
230
1.0
 70
    11
 71
     3
 72
    38
 73
    34
 74
     0
 42
0.0000000001
 43
0.0000000001
 12
1.0
 22
0.0
 32
0.0
 13
1.0
 23
0.0
 33
0.0
 40
0.0
 40
0.0
 40
0.0
 40
0.0
 40
1.0
 40
1.0
 40
1.0
 40
2.0
 40
2.0
 40
2.0
 40
3.0
 40
3.0
 40
3.0
 40
4.0
 40
4.0
 40
4.0
 40
5.0
 40
5.0
 40
5.0
 40
6.0
 40
6.0
 40
6.0
 40
7.0
 40
7.0
 40
7.0
 40
8.0
 40
8.0
 40
8.0
 40
9.0
 40
9.0
 40
9.0
 40
10.0
 40
10.0
 40
10.0
 40
11.0
 40
11.0
 40
11.0
 40
11.0
 10
56.49701013214407
 20
29.38105453389264
 30
0.0
 10
54.91051136341635
 20
30.63974170127545
 30
0.0
 10
54.29200906458009
 20
32.76535484975121
 30
0.0
 10
54.95251999648961
 20
34.67976211313437
 30
0.0
 10
55.64781562687676
 20
36.69374340196464
 30
0.0
 10
55.64352002344359
 20
38.88205728827259
 30
0.0
 10
54.93932097441174
 20
40.89294875709017
 30
0.0
 10
54.26620314621088
 20
42.81355719234614
 30
0.0
 10
54.88741845774178
 20
44.95154038679862
 30
0.0
 10
56.48271298588028
 20
46.21505068786078
 30
0.0
 10
56.48271298588028
 20
46.21505068786078
 30
0.0
 10
78.7943140680845
 20
63.87406108315881
 30
0.0
 10
78.7943140680845
 20
63.87406108315881
 30
0.0
 10
80.22522371195963
 20
65.01294505504174
 30
0.0
 10
82.1812197374038
 20
65.23324814540007
 30
0.0
 10
83.8295041404748
 20
64.4411453318774
 30
0.0
 10
85.47782084131597
 20
63.64915017758863
 30
0.0
 10
86.52812279553473
 20
61.95845880227888
 30
0.0
 10
86.53302129067782
 20
60.12974828909131
 30
0.0
 10
86.53302129067782
 20
60.12974828909131
 30
0.0
 10
86.53311818398834
 20
15.42384230118945
 30
0.0
 10
86.53311818398834
 20
15.42384230118945
 30
0.0
 10
86.53810280651857
 20
13.5938506431183
 30
0.0
 10
85.49550925344805
 20
11.92246256844934
 30
0.0
 10
83.84972254460385
 20
11.12214535537902
 30
0.0
 10
82.2040111972234
 20
10.32184967415549
 30
0.0
 10
80.22522371195963
 20
10.54995805897259
 30
0.0
 10
78.78882344715488
 20
11.68384664240223
 30
0.0
 10
78.78882344715488
 20
11.68384664240223
 30
0.0
 10
56.49701013214407
 20
29.38105453389264
 30
0.0
 10
56.49701013214407
 20
29.38105453389264
 30
0.0
 10
56.49701013214407
 20
29.38105453389264
 30
0.0
 10
56.49701013214407
 20
29.38105453389264
 30
0.0
 10
56.49701013214407
 20
29.38105453389264
 30
0.0
  0
SPLINE
  5
44
330
1F
100
AcDbEntity
  8
Layer 1
370
     0
100
AcDbSpline
210
0.0
220
0.0
230
1.0
 70
    11
 71
     3
 72
    44
 73
    40
 74
     0
 42
0.0000000001
 43
0.0000000001
 12
1.0
 22
0.0
 32
0.0
 13
1.0
 23
0.0
 33
0.0
 40
0.0
 40
0.0
 40
0.0
 40
0.0
 40
1.0
 40
1.0
 40
1.0
 40
2.0
 40
2.0
 40
2.0
 40
3.0
 40
3.0
 40
3.0
 40
4.0
 40
4.0
 40
4.0
 40
5.0
 40
5.0
 40
5.0
 40
6.0
 40
6.0
 40
6.0
 40
7.0
 40
7.0
 40
7.0
 40
8.0
 40
8.0
 40
8.0
 40
9.0
 40
9.0
 40
9.0
 40
10.0
 40
10.0
 40
10.0
 40
11.0
 40
11.0
 40
11.0
 40
12.0
 40
12.0
 40
12.0
 40
13.0
 40
13.0
 40
13.0
 40
13.0
 10
-3.767786809169622
 20
28.05185056829612
 30
0.0
 10
-3.767786809169622
 20
28.0854510152007
 30
0.0
 10
-3.754377851585627
 20
28.11774878537491
 30
0.0
 10
-3.730687437162838
 20
28.14165990122723
 30
0.0
 10
-3.706889363506136
 20
28.16545259192224
 30
0.0
 10
-3.674387040787482
 20
28.17885616654453
 30
0.0
 10
-3.640786593882904
 20
28.17885616654453
 30
0.0
 10
-3.640786593882904
 20
28.17885616654453
 30
0.0
 10
-0.7705860347724381
 20
28.17885616654453
 30
0.0
 10
-0.7705860347724381
 20
28.17885616654453
 30
0.0
 10
-0.6156859290168923
 20
28.17895305985506
 30
0.0
 10
-0.4671861647175373
 20
28.11755499875387
 30
0.0
 10
-0.3575890645930268
 20
28.00805479193988
 30
0.0
 10
-0.2480834748173433
 20
27.89864071251302
 30
0.0
 10
-0.1864808611717197
 20
27.74945731207832
 30
0.0
 10
-0.186383967861197
 20
27.59465409963329
 30
0.0
 10
-0.186383967861197
 20
27.59465409963329
 30
0.0
 10
-0.186383967861197
 20
22.41305823504328
 30
0.0
 10
-0.186383967861197
 20
22.41305823504328
 30
0.0
 10
-0.1862870745506744
 20
22.25814736336434
 30
0.0
 10
-0.2476851356518613
 20
22.10965298202668
 30
0.0
 10
-0.3570884491553264
 20
22.00004511597878
 30
0.0
 10
-0.4664863796970959
 20
21.89055567508818
 30
0.0
 10
-0.6156859290168923
 20
21.82895306144256
 30
0.0
 10
-0.7705860347724381
 20
21.82885616813203
 30
0.0
 10
-0.7705860347724381
 20
21.82885616813203
 30
0.0
 10
-3.640786593882904
 20
21.82885616813203
 30
0.0
 10
-3.640786593882904
 20
21.82885616813203
 30
0.0
 10
-3.674387040787482
 20
21.82885616813203
 30
0.0
 10
-3.706684810961699
 20
21.84214131759703
 30
0.0
 10
-3.730477501656706
 20
21.86594477421543
 30
0.0
 10
-3.754377851585627
 20
21.88975899675722
 30
0.0
 10
-3.767679149935709
 20
21.92215366024196
 30
0.0
 10
-3.767786809169622
 20
21.95585100045706
 30
0.0
 10
-3.767786809169622
 20
21.95585100045706
 30
0.0
 10
-3.767786809169622
 20
28.05185056829612
 30
0.0
 10
-3.767786809169622
 20
28.05185056829612
 30
0.0
 10
-3.767786809169622
 20
28.05185056829612
 30
0.0
 10
-3.767786809169622
 20
28.05185056829612
 30
0.0
 10
-3.767786809169622
 20
28.05185056829612
 30
0.0
  0
SPLINE
  5
45
330
1F
100
AcDbEntity
  8
Layer 1
370
     0
100
AcDbSpline
210
0.0
220
0.0
230
1.0
 70
    11
 71
     3
 72
    44
 73
    40
 74
     0
 42
0.0000000001
 43
0.0000000001
 12
1.0
 22
0.0
 32
0.0
 13
1.0
 23
0.0
 33
0.0
 40
0.0
 40
0.0
 40
0.0
 40
0.0
 40
1.0
 40
1.0
 40
1.0
 40
2.0
 40
2.0
 40
2.0
 40
3.0
 40
3.0
 40
3.0
 40
4.0
 40
4.0
 40
4.0
 40
5.0
 40
5.0
 40
5.0
 40
6.0
 40
6.0
 40
6.0
 40
7.0
 40
7.0
 40
7.0
 40
8.0
 40
8.0
 40
8.0
 40
9.0
 40
9.0
 40
9.0
 40
10.0
 40
10.0
 40
10.0
 40
11.0
 40
11.0
 40
11.0
 40
12.0
 40
12.0
 40
12.0
 40
13.0
 40
13.0
 40
13.0
 40
13.0
 10
-3.767786809169622
 20
53.57885616019518
 30
0.0
 10
-3.767786809169622
 20
53.61245660709975
 30
0.0
 10
-3.754485510819541
 20
53.64475437727397
 30
0.0
 10
-3.730687437162838
 20
53.6686439612795
 30
0.0
 10
-3.706889363506136
 20
53.6924474178979
 30
0.0
 10
-3.674483934098005
 20
53.7058509925202
 30
0.0
 10
-3.640786593882904
 20
53.7058509925202
 30
0.0
 10
-3.640786593882904
 20
53.7058509925202
 30
0.0
 10
-0.7705860347724381
 20
53.7058509925202
 30
0.0
 10
-0.7705860347724381
 20
53.7058509925202
 30
0.0
 10
-0.615782822327415
 20
53.70595865175412
 30
0.0
 10
-0.4671861647175373
 20
53.64454982472954
 30
0.0
 10
-0.3576805749418538
 20
53.53504961791555
 30
0.0
 10
-0.2480834748173433
 20
53.42565707033548
 30
0.0
 10
-0.1864808611717197
 20
53.27645213805398
 30
0.0
 10
-0.186383967861197
 20
53.12164892560896
 30
0.0
 10
-0.186383967861197
 20
53.12164892560896
 30
0.0
 10
-0.186383967861197
 20
47.94004229509555
 30
0.0
 10
-0.186383967861197
 20
47.94004229509555
 30
0.0
 10
-0.1862870745506744
 20
47.78516372118678
 30
0.0
 10
-0.2476851356518613
 20
47.63664780800234
 30
0.0
 10
-0.3570884491553264
 20
47.52705070787783
 30
0.0
 10
-0.4665778900459229
 20
47.41755050106384
 30
0.0
 10
-0.615782822327415
 20
47.35595865334162
 30
0.0
 10
-0.7705860347724381
 20
47.3558509941077
 30
0.0
 10
-0.7705860347724381
 20
47.3558509941077
 30
0.0
 10
-3.640786593882904
 20
47.3558509941077
 30
0.0
 10
-3.640786593882904
 20
47.3558509941077
 30
0.0
 10
-3.674483934098005
 20
47.3558509941077
 30
0.0
 10
-3.706684810961699
 20
47.36915767541948
 30
0.0
 10
-3.73058516089062
 20
47.39296113203788
 30
0.0
 10
-3.754377851585627
 20
47.41675382273353
 30
0.0
 10
-3.767786809169622
 20
47.44914848621762
 30
0.0
 10
-3.767786809169622
 20
47.48285659235611
 30
0.0
 10
-3.767786809169622
 20
47.48285659235611
 30
0.0
 10
-3.767786809169622
 20
53.57885616019518
 30
0.0
 10
-3.767786809169622
 20
53.57885616019518
 30
0.0
 10
-3.767786809169622
 20
53.57885616019518
 30
0.0
 10
-3.767786809169622
 20
53.57885616019518
 30
0.0
 10
-3.767786809169622
 20
53.57885616019518
 30
0.0
  0
SPLINE
  5
46
330
1F
100
AcDbEntity
  8
Layer 1
370
     0
100
AcDbSpline
210
0.0
220
0.0
230
1.0
 70
    11
 71
     3
 72
    44
 73
    40
 74
     0
 42
0.0000000001
 43
0.0000000001
 12
1.0
 22
0.0
 32
0.0
 13
1.0
 23
0.0
 33
0.0
 40
0.0
 40
0.0
 40
0.0
 40
0.0
 40
1.0
 40
1.0
 40
1.0
 40
2.0
 40
2.0
 40
2.0
 40
3.0
 40
3.0
 40
3.0
 40
4.0
 40
4.0
 40
4.0
 40
5.0
 40
5.0
 40
5.0
 40
6.0
 40
6.0
 40
6.0
 40
7.0
 40
7.0
 40
7.0
 40
8.0
 40
8.0
 40
8.0
 40
9.0
 40
9.0
 40
9.0
 40
10.0
 40
10.0
 40
10.0
 40
11.0
 40
11.0
 40
11.0
 40
12.0
 40
12.0
 40
12.0
 40
13.0
 40
13.0
 40
13.0
 40
13.0
 10
84.5945091248213
 20
72.97195536799371
 30
0.0
 10
84.62362018167167
 20
72.9551497615794
 30
0.0
 10
84.64491517813987
 20
72.92744904069332
 30
0.0
 10
84.65372170347403
 20
72.89495748389838
 30
0.0
 10
84.6624205695743
 20
72.862444395256
 30
0.0
 10
84.65781275436277
 20
72.82765969677838
 30
0.0
 10
84.64101791387218
 20
72.79846251254088
 30
0.0
 10
84.64101791387218
 20
72.79846251254088
 30
0.0
 10
83.20592032579779
 20
70.31276152439278
 30
0.0
 10
83.20592032579779
 20
70.31276152439278
 30
0.0
 10
83.12850257069019
 20
70.17866118262943
 30
0.0
 10
83.00110939919969
 20
70.08075587530799
 30
0.0
 10
82.85150612775271
 20
70.04054515144108
 30
0.0
 10
82.70202128146305
 20
70.00035595942097
 30
0.0
 10
82.54200736209658
 20
70.02164018996578
 30
0.0
 10
82.40782089294609
 20
70.09895028583946
 30
0.0
 10
82.40782089294609
 20
70.09895028583946
 30
0.0
 10
77.92042253455732
 20
72.68975898405786
 30
0.0
 10
77.92042253455732
 20
72.68975898405786
 30
0.0
 10
77.78632219279396
 20
72.76704754808476
 30
0.0
 10
77.68841688547252
 20
72.89453761288578
 30
0.0
 10
77.64820616160561
 20
73.04405475694563
 30
0.0
 10
77.6080169695855
 20
73.19364726246954
 30
0.0
 10
77.6293227319771
 20
73.35366118183568
 30
0.0
 10
77.706611296004
 20
73.48775075767564
 30
0.0
 10
77.706611296004
 20
73.48775075767564
 30
0.0
 10
79.14170888407838
 20
75.97346251174713
 30
0.0
 10
79.14170888407838
 20
75.97346251174713
 30
0.0
 10
79.15850372456897
 20
76.00265969598463
 30
0.0
 10
79.18621521137845
 20
76.0238685650657
 30
0.0
 10
79.21870676817372
 20
76.03265355855308
 30
0.0
 10
79.25120909089237
 20
76.04135242465334
 30
0.0
 10
79.28601532121678
 20
76.0367661412886
 30
0.0
 10
79.31522327137766
 20
76.01994976895122
 30
0.0
 10
79.31522327137766
 20
76.01994976895122
 30
0.0
 10
84.5945091248213
 20
72.97195536799371
 30
0.0
 10
84.5945091248213
 20
72.97195536799371
 30
0.0
 10
84.5945091248213
 20
72.97195536799371
 30
0.0
 10
84.5945091248213
 20
72.97195536799371
 30
0.0
 10
84.5945091248213
 20
72.97195536799371
 30
0.0
  0
SPLINE
  5
47
330
1F
100
AcDbEntity
  8
Layer 1
370
     0
100
AcDbSpline
210
0.0
220
0.0
230
1.0
 70
    11
 71
     3
 72
    44
 73
    40
 74
     0
 42
0.0000000001
 43
0.0000000001
 12
1.0
 22
0.0
 32
0.0
 13
1.0
 23
0.0
 33
0.0
 40
0.0
 40
0.0
 40
0.0
 40
0.0
 40
1.0
 40
1.0
 40
1.0
 40
2.0
 40
2.0
 40
2.0
 40
3.0
 40
3.0
 40
3.0
 40
4.0
 40
4.0
 40
4.0
 40
5.0
 40
5.0
 40
5.0
 40
6.0
 40
6.0
 40
6.0
 40
7.0
 40
7.0
 40
7.0
 40
8.0
 40
8.0
 40
8.0
 40
9.0
 40
9.0
 40
9.0
 40
10.0
 40
10.0
 40
10.0
 40
11.0
 40
11.0
 40
11.0
 40
12.0
 40
12.0
 40
12.0
 40
13.0
 40
13.0
 40
13.0
 40
13.0
 10
62.48740675743684
 20
85.73546354690428
 30
0.0
 10
62.51660394167433
 20
85.71864717456691
 30
0.0
 10
62.53792046998931
 20
85.69084956037031
 30
0.0
 10
62.54661933608956
 20
85.65833647172826
 30
0.0
 10
62.55542586142374
 20
85.62586644677978
 30
0.0
 10
62.5507103869783
 20
85.59104945053197
 30
0.0
 10
62.53390478056431
 20
85.5619599255284
 30
0.0
 10
62.53390478056431
 20
85.5619599255284
 30
0.0
 10
61.09880719248993
 20
83.0762374055335
 30
0.0
 10
61.09880719248993
 20
83.0762374055335
 30
0.0
 10
61.02150786253964
 20
82.94213706377016
 30
0.0
 10
60.89401779773861
 20
82.84416716090837
 30
0.0
 10
60.74452218552555
 20
82.80405333035199
 30
0.0
 10
60.5950050414657
 20
82.76385337240848
 30
0.0
 10
60.4349157606355
 20
82.78504070964276
 30
0.0
 10
60.30081541887215
 20
82.86244769882697
 30
0.0
 10
60.30081541887215
 20
82.86244769882697
 30
0.0
 10
55.81341706048337
 20
85.45326716296876
 30
0.0
 10
55.81341706048337
 20
85.45326716296876
 30
0.0
 10
55.67931671872002
 20
85.53054496107228
 30
0.0
 10
55.58130375216466
 20
85.65807808956687
 30
0.0
 10
55.54122221937846
 20
85.80755216993315
 30
0.0
 10
55.50101149551156
 20
85.9570477821462
 30
0.0
 10
55.52222036459263
 20
86.11713706297641
 30
0.0
 10
55.59961658785344
 20
86.25123740473975
 30
0.0
 10
55.59961658785344
 20
86.25123740473975
 30
0.0
 10
57.03471417592783
 20
88.73695992473465
 30
0.0
 10
57.03471417592783
 20
88.73695992473465
 30
0.0
 10
57.05150901641842
 20
88.76604944973822
 30
0.0
 10
57.07920973730451
 20
88.78734444620642
 30
0.0
 10
57.11171206002316
 20
88.7961509715406
 30
0.0
 10
57.14421438274181
 20
88.80484983764084
 30
0.0
 10
57.17902061306623
 20
88.80024202242933
 30
0.0
 10
57.20811013806981
 20
88.78346871378552
 30
0.0
 10
57.20811013806981
 20
88.78346871378552
 30
0.0
 10
62.48740675743684
 20
85.73546354690428
 30
0.0
 10
62.48740675743684
 20
85.73546354690428
 30
0.0
 10
62.48740675743684
 20
85.73546354690428
 30
0.0
 10
62.48740675743684
 20
85.73546354690428
 30
0.0
 10
62.48740675743684
 20
85.73546354690428
 30
0.0
  0
SPLINE
  5
48
330
1F
100
AcDbEntity
  8
Layer 1
370
     0
100
AcDbSpline
210
0.0
220
0.0
230
1.0
 70
    11
 71
     3
 72
    44
 73
    40
 74
     0
 42
0.0000000001
 43
0.0000000001
 12
1.0
 22
0.0
 32
0.0
 13
1.0
 23
0.0
 33
0.0
 40
0.0
 40
0.0
 40
0.0
 40
0.0
 40
1.0
 40
1.0
 40
1.0
 40
2.0
 40
2.0
 40
2.0
 40
3.0
 40
3.0
 40
3.0
 40
4.0
 40
4.0
 40
4.0
 40
5.0
 40
5.0
 40
5.0
 40
6.0
 40
6.0
 40
6.0
 40
7.0
 40
7.0
 40
7.0
 40
8.0
 40
8.0
 40
8.0
 40
9.0
 40
9.0
 40
9.0
 40
10.0
 40
10.0
 40
10.0
 40
11.0
 40
11.0
 40
11.0
 40
12.0
 40
12.0
 40
12.0
 40
13.0
 40
13.0
 40
13.0
 40
13.0
 10
79.3153093987648
 20
-0.4850488216779455
 30
0.0
 10
79.28611221452731
 20
-0.5019513214024525
 30
0.0
 10
79.25151053674733
 20
-0.5065376047671913
 30
0.0
 10
79.21901897995207
 20
-0.4978495045903269
 30
0.0
 10
79.18651665723341
 20
-0.4891398725666797
 30
0.0
 10
79.15862214972628
 20
-0.4677479827879565
 30
0.0
 10
79.14181654331229
 20
-0.4385400326270727
 30
0.0
 10
79.14181654331229
 20
-0.4385400326270727
 30
0.0
 10
77.7067189552379
 20
2.047053296287119
 30
0.0
 10
77.7067189552379
 20
2.047053296287119
 30
0.0
 10
77.62921507274318
 20
2.181153638050469
 30
0.0
 10
77.60811386289602
 20
2.340446240549709
 30
0.0
 10
77.6481200342185
 20
2.490049511996683
 30
0.0
 10
77.68811543961756
 20
2.639642017520266
 30
0.0
 10
77.78651597941501
 20
2.767659612567472
 30
0.0
 10
77.92051942786783
 20
2.845141963215418
 30
0.0
 10
77.92051942786783
 20
2.845141963215418
 30
0.0
 10
82.40790702033323
 20
5.43596142735721
 30
0.0
 10
82.40790702033323
 20
5.43596142735721
 30
0.0
 10
82.54200736209658
 20
5.513443778005158
 30
0.0
 10
82.7013214964426
 20
5.534458860465182
 30
0.0
 10
82.85092476788958
 20
5.49454958245324
 30
0.0
 10
83.00051727341315
 20
5.454543411130777
 30
0.0
 10
83.12841644330305
 20
5.356153637256719
 30
0.0
 10
83.20592032579779
 20
5.222053295493369
 30
0.0
 10
83.20592032579779
 20
5.222053295493369
 30
0.0
 10
84.64110404125931
 20
2.736459966579178
 30
0.0
 10
84.64110404125931
 20
2.736459966579178
 30
0.0
 10
84.65790964767329
 20
2.707252016418294
 30
0.0
 10
84.66250669696142
 20
2.672661104561707
 30
0.0
 10
84.65381859678456
 20
2.640148015919662
 30
0.0
 10
84.6451197306843
 20
2.607548799890485
 30
0.0
 10
84.62370630905879
 20
2.579740419770484
 30
0.0
 10
84.59460601813183
 20
2.562945579279891
 30
0.0
 10
84.59460601813183
 20
2.562945579279891
 30
0.0
 10
79.3153093987648
 20
-0.4850488216779455
 30
0.0
 10
79.3153093987648
 20
-0.4850488216779455
 30
0.0
 10
79.3153093987648
 20
-0.4850488216779455
 30
0.0
 10
79.3153093987648
 20
-0.4850488216779455
 30
0.0
 10
79.3153093987648
 20
-0.4850488216779455
 30
0.0
  0
SPLINE
  5
49
330
1F
100
AcDbEntity
  8
Layer 1
370
     0
100
AcDbSpline
210
0.0
220
0.0
230
1.0
 70
    11
 71
     3
 72
    44
 73
    40
 74
     0
 42
0.0000000001
 43
0.0000000001
 12
1.0
 22
0.0
 32
0.0
 13
1.0
 23
0.0
 33
0.0
 40
0.0
 40
0.0
 40
0.0
 40
0.0
 40
1.0
 40
1.0
 40
1.0
 40
2.0
 40
2.0
 40
2.0
 40
3.0
 40
3.0
 40
3.0
 40
4.0
 40
4.0
 40
4.0
 40
5.0
 40
5.0
 40
5.0
 40
6.0
 40
6.0
 40
6.0
 40
7.0
 40
7.0
 40
7.0
 40
8.0
 40
8.0
 40
8.0
 40
9.0
 40
9.0
 40
9.0
 40
10.0
 40
10.0
 40
10.0
 40
11.0
 40
11.0
 40
11.0
 40
12.0
 40
12.0
 40
12.0
 40
13.0
 40
13.0
 40
13.0
 40
13.0
 10
57.20830392469085
 20
-13.24864851093768
 30
0.0
 10
57.17910674045336
 20
-13.26544873438996
 30
0.0
 10
57.14450506267338
 20
-13.27005116663979
 30
0.0
 10
57.11201350587812
 20
-13.26134691757784
 30
0.0
 10
57.07941428984895
 20
-13.25264805147758
 30
0.0
 10
57.05161667565233
 20
-13.23125077873716
 30
0.0
 10
57.03482183516174
 20
-13.2021451048485
 30
0.0
 10
57.03482183516174
 20
-13.2021451048485
 30
0.0
 10
55.59970271524057
 20
-10.71644411670039
 30
0.0
 10
55.59970271524057
 20
-10.71644411670039
 30
0.0
 10
55.52222036459263
 20
-10.58244066824757
 30
0.0
 10
55.50111915474547
 20
-10.4230511724378
 30
0.0
 10
55.54111456014454
 20
-10.27344790099083
 30
0.0
 10
55.58110996554362
 20
-10.12385539546725
 30
0.0
 10
55.67951050534106
 20
-9.995956225577347
 30
0.0
 10
55.81352471971729
 20
-9.918452343082615
 30
0.0
 10
55.81352471971729
 20
-9.918452343082615
 30
0.0
 10
60.30091231218267
 20
-7.327654410787606
 30
0.0
 10
60.30091231218267
 20
-7.327654410787606
 30
0.0
 10
60.4349157606355
 20
-7.250150528292877
 30
0.0
 10
60.59431602236866
 20
-7.22903855252233
 30
0.0
 10
60.74391929381563
 20
-7.269055489768186
 30
0.0
 10
60.89352256526261
 20
-7.308943235933344
 30
0.0
 10
61.02142173515251
 20
-7.407343775730793
 30
0.0
 10
61.09891485172385
 20
-7.541444117494142
 30
0.0
 10
61.09891485172385
 20
-7.541444117494142
 30
0.0
 10
62.53401243979823
 20
-10.02714510564225
 30
0.0
 10
62.53401243979823
 20
-10.02714510564225
 30
0.0
 10
62.55090417359934
 20
-10.05625616249261
 30
0.0
 10
62.55552275473426
 20
-10.09085784027259
 30
0.0
 10
62.54681312271061
 20
-10.12345705630176
 30
0.0
 10
62.53812502253375
 20
-10.15594861309703
 30
0.0
 10
62.51672236683163
 20
-10.18374622729364
 30
0.0
 10
62.48761130998127
 20
-10.20054106778423
 30
0.0
 10
62.48761130998127
 20
-10.20054106778423
 30
0.0
 10
57.20830392469085
 20
-13.24864851093768
 30
0.0
 10
57.20830392469085
 20
-13.24864851093768
 30
0.0
 10
57.20830392469085
 20
-13.24864851093768
 30
0.0
 10
57.20830392469085
 20
-13.24864851093768
 30
0.0
 10
57.20830392469085
 20
-13.24864851093768
 30
0.0
  0
SPLINE
  5
4A
330
1F
100
AcDbEntity
  8
Layer 1
370
     0
100
AcDbSpline
210
0.0
220
0.0
230
1.0
 70
    11
 71
     3
 72
    44
 73
    40
 74
     0
 42
0.0000000001
 43
0.0000000001
 12
1.0
 22
0.0
 32
0.0
 13
1.0
 23
0.0
 33
0.0
 40
0.0
 40
0.0
 40
0.0
 40
0.0
 40
1.0
 40
1.0
 40
1.0
 40
2.0
 40
2.0
 40
2.0
 40
3.0
 40
3.0
 40
3.0
 40
4.0
 40
4.0
 40
4.0
 40
5.0
 40
5.0
 40
5.0
 40
6.0
 40
6.0
 40
6.0
 40
7.0
 40
7.0
 40
7.0
 40
8.0
 40
8.0
 40
8.0
 40
9.0
 40
9.0
 40
9.0
 40
10.0
 40
10.0
 40
10.0
 40
11.0
 40
11.0
 40
11.0
 40
12.0
 40
12.0
 40
12.0
 40
13.0
 40
13.0
 40
13.0
 40
13.0
 10
88.92070931227056
 20
1.400355044088768
 30
0.0
 10
90.39850455251526
 20
2.253952812023155
 30
0.0
 10
91.30872031156505
 20
3.829158127113295
 30
0.0
 10
91.30831120647619
 20
5.535761537195541
 30
0.0
 10
91.30831120647619
 20
5.535761537195541
 30
0.0
 10
91.30822507908906
 20
69.99905328269061
 30
0.0
 10
91.30822507908906
 20
69.99905328269061
 30
0.0
 10
91.3079236332341
 20
71.70576435200677
 30
0.0
 10
90.39880599837022
 20
73.28156179288344
 30
0.0
 10
88.92062318488344
 20
74.13455666910791
 30
0.0
 10
88.92062318488344
 20
74.13455666910791
 30
0.0
 10
56.03591639921355
 20
93.1205424838601
 30
0.0
 10
56.03591639921355
 20
93.1205424838601
 30
0.0
 10
54.55772281980337
 20
93.97354812600797
 30
0.0
 10
52.73851861697041
 20
93.97415101771789
 30
0.0
 10
51.26070184487892
 20
93.12045635647297
 30
0.0
 10
51.26070184487892
 20
93.12045635647297
 30
0.0
 10
-4.550087249444425
 20
60.89805841191898
 30
0.0
 10
-4.550087249444425
 20
60.89805841191898
 30
0.0
 10
-6.027882489689126
 20
60.04435298475068
 30
0.0
 10
-6.938087482815524
 20
58.46925532889446
 30
0.0
 10
-6.937689143650042
 20
56.76254425957829
 30
0.0
 10
-6.937689143650042
 20
56.76254425957829
 30
0.0
 10
-6.937689143650042
 20
18.77186145521898
 30
0.0
 10
-6.937689143650042
 20
18.77186145521898
 30
0.0
 10
-6.937285421522865
 20
17.06635616932266
 30
0.0
 10
-6.029384336002226
 20
15.49134464085356
 30
0.0
 10
-4.55268721994345
 20
14.63795142546361
 30
0.0
 10
-4.55268721994345
 20
14.63795142546361
 30
0.0
 10
51.21681994113555
 20
-17.60805080612604
 30
0.0
 10
51.21681994113555
 20
-17.60805080612604
 30
0.0
 10
52.69532573232409
 20
-18.46254752866361
 30
0.0
 10
54.51582184596402
 20
-18.46374792912175
 30
0.0
 10
55.99461831708412
 20
-17.60954726947744
 30
0.0
 10
55.99461831708412
 20
-17.60954726947744
 30
0.0
 10
88.92070931227056
 20
1.400355044088768
 30
0.0
 10
88.92070931227056
 20
1.400355044088768
 30
0.0
 10
88.92070931227056
 20
1.400355044088768
 30
0.0
 10
88.92070931227056
 20
1.400355044088768
 30
0.0
 10
88.92070931227056
 20
1.400355044088768
 30
0.0
  0
SPLINE
  5
4B
330
1F
100
AcDbEntity
  8
Layer 1
370
     0
100
AcDbSpline
210
0.0
220
0.0
230
1.0
 70
    11
 71
     3
 72
    17
 73
    13
 74
     0
 42
0.0000000001
 43
0.0000000001
 12
1.0
 22
0.0
 32
0.0
 13
1.0
 23
0.0
 33
0.0
 40
0.0
 40
0.0
 40
0.0
 40
0.0
 40
1.0
 40
1.0
 40
1.0
 40
2.0
 40
2.0
 40
2.0
 40
3.0
 40
3.0
 40
3.0
 40
4.0
 40
4.0
 40
4.0
 40
4.0
 10
5.217808202861059
 20
37.79411152633079
 30
0.0
 10
5.217808202861059
 20
37.10375558925337
 30
0.0
 10
4.658164140250777
 20
36.54411152664374
 30
0.0
 10
3.967808203173362
 20
36.54411152664374
 30
0.0
 10
3.277452266095948
 20
36.54411152664374
 30
0.0
 10
2.717808203485987
 20
37.10375558925337
 30
0.0
 10
2.717808203485987
 20
37.79411152633079
 30
0.0
 10
2.717808203485987
 20
38.48446746340821
 30
0.0
 10
3.277452266095948
 20
39.04411152601784
 30
0.0
 10
3.967808203173362
 20
39.04411152601784
 30
0.0
 10
4.658164140250777
 20
39.04411152601784
 30
0.0
 10
5.217808202861059
 20
38.48446746340821
 30
0.0
 10
5.217808202861059
 20
37.79411152633079
 30
0.0
  0
SPLINE
  5
4C
330
1F
100
AcDbEntity
  8
Layer 1
370
     0
100
AcDbSpline
210
0.0
220
0.0
230
1.0
 70
    11
 71
     3
 72
    17
 73
    13
 74
     0
 42
0.0000000001
 43
0.0000000001
 12
1.0
 22
0.0
 32
0.0
 13
1.0
 23
0.0
 33
0.0
 40
0.0
 40
0.0
 40
0.0
 40
0.0
 40
1.0
 40
1.0
 40
1.0
 40
2.0
 40
2.0
 40
2.0
 40
3.0
 40
3.0
 40
3.0
 40
4.0
 40
4.0
 40
4.0
 40
4.0
 10
47.22534759356099
 20
37.77964763744514
 30
0.0
 10
47.22534759356099
 20
37.08929170036901
 30
0.0
 10
46.66570353095135
 20
36.52964763775808
 30
0.0
 10
45.97534759387393
 20
36.52964763775808
 30
0.0
 10
45.28499165679652
 20
36.52964763775808
 30
0.0
 10
44.72534759418688
 20
37.08929170036901
 30
0.0
 10
44.72534759418688
 20
37.77964763744514
 30
0.0
 10
44.72534759418688
 20
38.47000357452255
 30
0.0
 10
45.28499165679652
 20
39.02964763713348
 30
0.0
 10
45.97534759387393
 20
39.02964763713348
 30
0.0
 10
46.66570353095135
 20
39.02964763713348
 30
0.0
 10
47.22534759356099
 20
38.47000357452255
 30
0.0
 10
47.22534759356099
 20
37.77964763744514
 30
0.0
  0
SPLINE
  5
4D
330
1F
100
AcDbEntity
  8
Layer 1
370
     0
100
AcDbSpline
210
0.0
220
0.0
230
1.0
 70
    11
 71
     3
 72
    17
 73
    13
 74
     0
 42
0.0000000001
 43
0.0000000001
 12
1.0
 22
0.0
 32
0.0
 13
1.0
 23
0.0
 33
0.0
 40
0.0
 40
0.0
 40
0.0
 40
0.0
 40
1.0
 40
1.0
 40
1.0
 40
2.0
 40
2.0
 40
2.0
 40
3.0
 40
3.0
 40
3.0
 40
4.0
 40
4.0
 40
4.0
 40
4.0
 10
68.29341652042567
 20
74.20885679500545
 30
0.0
 10
68.29341652042567
 20
73.51850085792802
 30
0.0
 10
67.73377245781602
 20
72.95885679531807
 30
0.0
 10
67.0434165207386
 20
72.95885679531807
 30
0.0
 10
66.35306058366119
 20
72.95885679531807
 30
0.0
 10
65.79341652105028
 20
73.51850085792802
 30
0.0
 10
65.79341652105028
 20
74.20885679500545
 30
0.0
 10
65.79341652105028
 20
74.89921273208317
 30
0.0
 10
66.35306058366119
 20
75.4588567946925
 30
0.0
 10
67.0434165207386
 20
75.4588567946925
 30
0.0
 10
67.73377245781602
 20
75.4588567946925
 30
0.0
 10
68.29341652042567
 20
74.89921273208317
 30
0.0
 10
68.29341652042567
 20
74.20885679500545
 30
0.0
  0
SPLINE
  5
4E
330
1F
100
AcDbEntity
  8
Layer 1
370
     0
100
AcDbSpline
210
0.0
220
0.0
230
1.0
 70
    11
 71
     3
 72
    17
 73
    13
 74
     0
 42
0.0000000001
 43
0.0000000001
 12
1.0
 22
0.0
 32
0.0
 13
1.0
 23
0.0
 33
0.0
 40
0.0
 40
0.0
 40
0.0
 40
0.0
 40
1.0
 40
1.0
 40
1.0
 40
2.0
 40
2.0
 40
2.0
 40
3.0
 40
3.0
 40
3.0
 40
4.0
 40
4.0
 40
4.0
 40
4.0
 10
68.26067455690509
 20
1.315936813228559
 30
0.0
 10
68.26067455690509
 20
0.625580876151144
 30
0.0
 10
67.70103049429545
 20
0.0659368135415034
 30
0.0
 10
67.01067455721804
 20
0.0659368135415034
 30
0.0
 10
66.32031862014063
 20
0.0659368135415034
 30
0.0
 10
65.7606745575297
 20
0.625580876151144
 30
0.0
 10
65.7606745575297
 20
1.315936813228559
 30
0.0
 10
65.7606745575297
 20
2.006292750305974
 30
0.0
 10
66.32031862014063
 20
2.565936812915614
 30
0.0
 10
67.01067455721804
 20
2.565936812915614
 30
0.0
 10
67.70103049429545
 20
2.565936812915614
 30
0.0
 10
68.26067455690509
 20
2.006292750305974
 30
0.0
 10
68.26067455690509
 20
1.315936813228559
 30
0.0
  0
ENDSEC
  0
SECTION
  2
OBJECTS
  0
DICTIONARY
  5
C
330
0
100
AcDbDictionary
281
     1
  3
ACAD_GROUP
350
D
  3
ACAD_LAYOUT
350
1A
  3
ACAD_MATERIAL
350
3B
  3
ACAD_MLEADERSTYLE
350
50
  3
ACAD_MLINESTYLE
350
17
  3
ACAD_PLOTSETTINGS
350
19
  3
ACAD_PLOTSTYLENAME
350
E
  3
ACAD_TABLESTYLE
350
4F
  3
ACAD_VISUALSTYLE
350
2A
  0
SUN
  5
3F
330
29
100
AcDbSun
 90
        1
290
     0
 63
     7
421
 16777215
 40
1.0
291
     1
 91
  2455826
 92
 54000000
292
     0
 70
     2
 71
   256
280
     1
  0
DICTIONARY
  5
D
102
{ACAD_REACTORS
330
C
102
}
330
C
100
AcDbDictionary
281
     1
  0
DICTIONARY
  5
1A
102
{ACAD_REACTORS
330
C
102
}
330
C
100
AcDbDictionary
281
     1
  3
Layout1
350
1E
  3
Layout2
350
26
  3
Model
350
22
  0
DICTIONARY
  5
3B
102
{ACAD_REACTORS
330
C
102
}
330
C
100
AcDbDictionary
281
     1
  3
ByBlock
350
3D
  3
ByLayer
350
3C
  3
Global
350
3E
  0
DICTIONARY
  5
50
102
{ACAD_REACTORS
330
C
102
}
330
C
100
AcDbDictionary
281
     1
  0
DICTIONARY
  5
17
102
{ACAD_REACTORS
330
C
102
}
330
C
100
AcDbDictionary
281
     1
  3
Standard
350
18
  0
DICTIONARY
  5
19
102
{ACAD_REACTORS
330
C
102
}
330
C
100
AcDbDictionary
281
     1
  0
ACDBDICTIONARYWDFLT
  5
E
102
{ACAD_REACTORS
330
C
102
}
330
C
100
AcDbDictionary
281
     1
  3
Normal
350
F
100
AcDbDictionaryWithDefault
340
F
  0
DICTIONARY
  5
4F
102
{ACAD_REACTORS
330
C
102
}
330
C
100
AcDbDictionary
281
     1
  0
DICTIONARY
  5
2A
102
{ACAD_REACTORS
330
C
102
}
330
C
100
AcDbDictionary
281
     1
  3
2dWireframe
350
2F
  3
3D Hidden
350
31
  3
3dWireframe
350
30
  3
Basic
350
32
  3
Brighten
350
36
  3
ColorChange
350
3A
  3
Conceptual
350
34
  3
Dim
350
35
  3
Facepattern
350
39
  3
Flat
350
2B
  3
FlatWithEdges
350
2C
  3
Gouraud
350
2D
  3
GouraudWithEdges
350
2E
  3
Linepattern
350
38
  3
Realistic
350
33
  3
Thicken
350
37
  0
LAYOUT
  5
1E
102
{ACAD_REACTORS
330
1A
102
}
330
1A
100
AcDbPlotSettings
  1

  2
none_device
  4

  6

 40
0.0
 41
0.0
 42
0.0
 43
0.0
 44
0.0
 45
0.0
 46
0.0
 47
0.0
 48
0.0
 49
0.0
140
0.0
141
0.0
142
1.0
143
1.0
 70
   688
 72
     0
 73
     0
 74
     5
  7

 75
    16
 76
     0
 77
     2
 78
   300
147
1.0
148
0.0
149
0.0
100
AcDbLayout
  1
Layout1
 70
     1
 71
     1
 10
0.0
 20
0.0
 11
12.0
 21
9.0
 12
0.0
 22
0.0
 32
0.0
 14
1.000000000000000E+20
 24
1.000000000000000E+20
 34
1.000000000000000E+20
 15
-1.000000000000000E+20
 25
-1.000000000000000E+20
 35
-1.000000000000000E+20
146
0.0
 13
0.0
 23
0.0
 33
0.0
 16
1.0
 26
0.0
 36
0.0
 17
0.0
 27
1.0
 37
0.0
 76
     0
330
1B
  0
LAYOUT
  5
26
102
{ACAD_REACTORS
330
1A
102
}
330
1A
100
AcDbPlotSettings
  1

  2
none_device
  4

  6

 40
0.0
 41
0.0
 42
0.0
 43
0.0
 44
0.0
 45
0.0
 46
0.0
 47
0.0
 48
0.0
 49
0.0
140
0.0
141
0.0
142
1.0
143
1.0
 70
   688
 72
     0
 73
     0
 74
     5
  7

 75
    16
 76
     0
 77
     2
 78
   300
147
1.0
148
0.0
149
0.0
100
AcDbLayout
  1
Layout2
 70
     1
 71
     2
 10
0.0
 20
0.0
 11
0.0
 21
0.0
 12
0.0
 22
0.0
 32
0.0
 14
0.0
 24
0.0
 34
0.0
 15
0.0
 25
0.0
 35
0.0
146
0.0
 13
0.0
 23
0.0
 33
0.0
 16
1.0
 26
0.0
 36
0.0
 17
0.0
 27
1.0
 37
0.0
 76
     0
330
23
  0
LAYOUT
  5
22
102
{ACAD_REACTORS
330
1A
102
}
330
1A
100
AcDbPlotSettings
  1

  2
none_device
  4

  6

 40
0.0
 41
0.0
 42
0.0
 43
0.0
 44
0.0
 45
0.0
 46
0.0
 47
0.0
 48
0.0
 49
0.0
140
0.0
141
0.0
142
1.0
143
1.0
 70
  1712
 72
     0
 73
     0
 74
     0
  7

 75
     0
 76
     0
 77
     2
 78
   300
147
1.0
148
0.0
149
0.0
100
AcDbLayout
  1
Model
 70
     1
 71
     0
 10
0.0
 20
0.0
 11
12.0
 21
9.0
 12
0.0
 22
0.0
 32
0.0
 14
1.000000000000000E+20
 24
1.000000000000000E+20
 34
1.000000000000000E+20
 15
-1.000000000000000E+20
 25
-1.000000000000000E+20
 35
-1.000000000000000E+20
146
0.0
 13
0.0
 23
0.0
 33
0.0
 16
1.0
 26
0.0
 36
0.0
 17
0.0
 27
1.0
 37
0.0
 76
     0
330
1F
331
29
  0
MATERIAL
  5
3D
102
{ACAD_REACTORS
330
3B
102
}
330
3B
100
AcDbMaterial
  1
ByBlock
 72
     1
 94
      127
  0
MATERIAL
  5
3C
102
{ACAD_REACTORS
330
3B
102
}
330
3B
100
AcDbMaterial
  1
ByLayer
 72
     1
 94
      127
  0
MATERIAL
  5
3E
102
{ACAD_REACTORS
330
3B
102
}
330
3B
100
AcDbMaterial
  1
Global
 72
     1
 94
      127
  0
MLINESTYLE
  5
18
102
{ACAD_REACTORS
330
17
102
}
330
17
100
AcDbMlineStyle
  2
Standard
 70
     0
  3

 62
   256
 51
90.0
 52
90.0
 71
     2
 49
0.5
 62
   256
  6
BYLAYER
 49
-0.5
 62
   256
  6
BYLAYER
  0
ACDBPLACEHOLDER
  5
F
102
{ACAD_REACTORS
330
E
102
}
330
E
  0
VISUALSTYLE
  5
2F
102
{ACAD_REACTORS
330
2A
102
}
330
2A
100
AcDbVisualStyle
  2
2dWireframe
 70
     4
177
     2
291
     0
 71
     0
176
     1
 72
     2
176
     1
 73
     0
176
     1
 90
        0
176
     1
 40
-0.6
176
     1
 41
-30.0
176
     1
 62
     5
 63
     7
421
 16777215
176
     1
 74
     1
176
     1
 91
        4
176
     1
 64
     7
176
     1
 65
   257
176
     1
 75
     1
176
     1
175
     1
176
     1
 42
1.0
176
     1
 92
        0
176
     1
 66
   257
176
     1
 43
1.0
176
     1
 76
     1
176
     1
 77
     6
176
     1
 78
     2
176
     1
 67
     7
176
     1
 79
     5
176
     1
170
     0
176
     1
171
     0
176
     1
290
     0
176
     1
 93
        1
176
     1
 44
0.0
176
     1
173
     0
176
     1
  0
VISUALSTYLE
  5
31
102
{ACAD_REACTORS
330
2A
102
}
330
2A
100
AcDbVisualStyle
  2
3D Hidden
 70
     6
177
     2
291
     0
 71
     1
176
     1
 72
     2
176
     1
 73
     2
176
     1
 90
        0
176
     1
 40
-0.6
176
     1
 41
-30.0
176
     1
 62
     5
 63
     7
421
 16777215
176
     1
 74
     2
176
     1
 91
        2
176
     1
 64
     7
176
     1
 65
   257
176
     1
 75
     2
176
     1
175
     1
176
     1
 42
40.0
176
     1
 92
        0
176
     1
 66
   257
176
     1
 43
1.0
176
     1
 76
     1
176
     1
 77
     6
176
     1
 78
     2
176
     1
 67
     7
176
     1
 79
     3
176
     1
170
     0
176
     1
171
     0
176
     1
290
     0
176
     1
 93
        1
176
     1
 44
0.0
176
     1
173
     0
176
     1
  0
VISUALSTYLE
  5
30
102
{ACAD_REACTORS
330
2A
102
}
330
2A
100
AcDbVisualStyle
  2
3dWireframe
 70
     5
177
     2
291
     0
 71
     0
176
     1
 72
     2
176
     1
 73
     0
176
     1
 90
        0
176
     1
 40
-0.6
176
     1
 41
-30.0
176
     1
 62
     5
 63
     7
421
 16777215
176
     1
 74
     1
176
     1
 91
        4
176
     1
 64
     7
176
     1
 65
   257
176
     1
 75
     1
176
     1
175
     1
176
     1
 42
1.0
176
     1
 92
        0
176
     1
 66
   257
176
     1
 43
1.0
176
     1
 76
     1
176
     1
 77
     6
176
     1
 78
     2
176
     1
 67
     7
176
     1
 79
     5
176
     1
170
     0
176
     1
171
     0
176
     1
290
     0
176
     1
 93
        1
176
     1
 44
0.0
176
     1
173
     0
176
     1
  0
VISUALSTYLE
  5
32
102
{ACAD_REACTORS
330
2A
102
}
330
2A
100
AcDbVisualStyle
  2
Basic
 70
     7
177
     2
291
     1
 71
     1
176
     1
 72
     0
176
     1
 73
     1
176
     1
 90
        0
176
     1
 40
-0.6
176
     1
 41
-30.0
176
     1
 62
     5
 63
     7
421
 16777215
176
     1
 74
     0
176
     1
 91
        4
176
     1
 64
     7
176
     1
 65
   257
176
     1
 75
     1
176
     1
175
     1
176
     1
 42
1.0
176
     1
 92
        8
176
     1
 66
     7
176
     1
 43
1.0
176
     1
 76
     1
176
     1
 77
     6
176
     1
 78
     2
176
     1
 67
     7
176
     1
 79
     5
176
     1
170
     0
176
     1
171
     0
176
     1
290
     0
176
     1
 93
        1
176
     1
 44
0.0
176
     1
173
     0
176
     1
  0
VISUALSTYLE
  5
36
102
{ACAD_REACTORS
330
2A
102
}
330
2A
100
AcDbVisualStyle
  2
Brighten
 70
    12
177
     2
291
     1
 71
     2
176
     1
 72
     2
176
     1
 73
     0
176
     1
 90
        0
176
     1
 40
-0.6
176
     1
 41
-30.0
176
     1
 62
     5
 63
     7
421
 16777215
176
     1
 74
     1
176
     1
 91
        4
176
     1
 64
     7
176
     1
 65
   257
176
     1
 75
     1
176
     1
175
     1
176
     1
 42
1.0
176
     1
 92
        8
176
     1
 66
     7
176
     1
 43
1.0
176
     1
 76
     1
176
     1
 77
     6
176
     1
 78
     2
176
     1
 67
     7
176
     1
 79
     5
176
     1
170
     0
176
     1
171
     0
176
     1
290
     0
176
     1
 93
        1
176
     1
 44
50.0
176
     1
173
     0
176
     1
  0
VISUALSTYLE
  5
3A
102
{ACAD_REACTORS
330
2A
102
}
330
2A
100
AcDbVisualStyle
  2
ColorChange
 70
    16
177
     2
291
     1
 71
     2
176
     1
 72
     2
176
     1
 73
     3
176
     1
 90
        0
176
     1
 40
-0.6
176
     1
 41
-30.0
176
     1
 62
     5
 63
     8
421
  8421504
176
     1
 74
     1
176
     1
 91
        4
176
     1
 64
     7
176
     1
 65
   257
176
     1
 75
     1
176
     1
175
     1
176
     1
 42
1.0
176
     1
 92
        8
176
     1
 66
     8
424
  8421504
176
     1
 43
1.0
176
     1
 76
     1
176
     1
 77
     6
176
     1
 78
     2
176
     1
 67
     7
176
     1
 79
     5
176
     1
170
     0
176
     1
171
     0
176
     1
290
     0
176
     1
 93
        1
176
     1
 44
0.0
176
     1
173
     0
176
     1
  0
VISUALSTYLE
  5
34
102
{ACAD_REACTORS
330
2A
102
}
330
2A
100
AcDbVisualStyle
  2
Conceptual
 70
     9
177
     2
291
     0
 71
     3
176
     1
 72
     2
176
     1
 73
     0
176
     1
 90
        0
176
     1
 40
-0.6
176
     1
 41
-30.0
176
     1
 62
     5
 63
     7
421
 16777215
176
     1
 74
     2
176
     1
 91
        2
176
     1
 64
     7
176
     1
 65
   257
176
     1
 75
     1
176
     1
175
     1
176
     1
 42
40.0
176
     1
 92
        8
176
     1
 66
     7
176
     1
 43
1.0
176
     1
 76
     1
176
     1
 77
     6
176
     1
 78
     2
176
     1
 67
     7
176
     1
 79
     3
176
     1
170
     0
176
     1
171
     0
176
     1
290
     0
176
     1
 93
        1
176
     1
 44
0.0
176
     1
173
     0
176
     1
  0
VISUALSTYLE
  5
35
102
{ACAD_REACTORS
330
2A
102
}
330
2A
100
AcDbVisualStyle
  2
Dim
 70
    11
177
     2
291
     1
 71
     2
176
     1
 72
     2
176
     1
 73
     0
176
     1
 90
        0
176
     1
 40
-0.6
176
     1
 41
-30.0
176
     1
 62
     5
 63
     7
421
 16777215
176
     1
 74
     1
176
     1
 91
        4
176
     1
 64
     7
176
     1
 65
   257
176
     1
 75
     1
176
     1
175
     1
176
     1
 42
1.0
176
     1
 92
        8
176
     1
 66
     7
176
     1
 43
1.0
176
     1
 76
     1
176
     1
 77
     6
176
     1
 78
     2
176
     1
 67
     7
176
     1
 79
     5
176
     1
170
     0
176
     1
171
     0
176
     1
290
     0
176
     1
 93
        1
176
     1
 44
-50.0
176
     1
173
     0
176
     1
  0
VISUALSTYLE
  5
39
102
{ACAD_REACTORS
330
2A
102
}
330
2A
100
AcDbVisualStyle
  2
Facepattern
 70
    15
177
     2
291
     1
 71
     2
176
     1
 72
     2
176
     1
 73
     0
176
     1
 90
        0
176
     1
 40
-0.6
176
     1
 41
-30.0
176
     1
 62
     5
 63
     7
421
 16777215
176
     1
 74
     1
176
     1
 91
        4
176
     1
 64
     7
176
     1
 65
   257
176
     1
 75
     1
176
     1
175
     1
176
     1
 42
1.0
176
     1
 92
        8
176
     1
 66
     7
176
     1
 43
1.0
176
     1
 76
     1
176
     1
 77
     6
176
     1
 78
     2
176
     1
 67
     7
176
     1
 79
     5
176
     1
170
     0
176
     1
171
     0
176
     1
290
     0
176
     1
 93
        1
176
     1
 44
0.0
176
     1
173
     0
176
     1
  0
VISUALSTYLE
  5
2B
102
{ACAD_REACTORS
330
2A
102
}
330
2A
100
AcDbVisualStyle
  2
Flat
 70
     0
177
     2
291
     1
 71
     2
176
     1
 72
     1
176
     1
 73
     1
176
     1
 90
        2
176
     1
 40
-0.6
176
     1
 41
30.0
176
     1
 62
     5
 63
     7
421
 16777215
176
     1
 74
     0
176
     1
 91
        4
176
     1
 64
     7
176
     1
 65
   257
176
     1
 75
     1
176
     1
175
     1
176
     1
 42
1.0
176
     1
 92
        8
176
     1
 66
     7
176
     1
 43
1.0
176
     1
 76
     1
176
     1
 77
     6
176
     1
 78
     2
176
     1
 67
     7
176
     1
 79
     5
176
     1
170
     0
176
     1
171
     0
176
     1
290
     0
176
     1
 93
       13
176
     1
 44
0.0
176
     1
173
     0
176
     1
  0
VISUALSTYLE
  5
2C
102
{ACAD_REACTORS
330
2A
102
}
330
2A
100
AcDbVisualStyle
  2
FlatWithEdges
 70
     1
177
     2
291
     1
 71
     2
176
     1
 72
     1
176
     1
 73
     1
176
     1
 90
        2
176
     1
 40
-0.6
176
     1
 41
30.0
176
     1
 62
     5
 63
     7
421
 16777215
176
     1
 74
     1
176
     1
 91
        4
176
     1
 64
     7
176
     1
 65
   257
176
     1
 75
     1
176
     1
175
     1
176
     1
 42
1.0
176
     1
 92
        0
176
     1
 66
   257
176
     1
 43
1.0
176
     1
 76
     1
176
     1
 77
     6
176
     1
 78
     2
176
     1
 67
     7
176
     1
 79
     5
176
     1
170
     0
176
     1
171
     0
176
     1
290
     0
176
     1
 93
       13
176
     1
 44
0.0
176
     1
173
     0
176
     1
  0
VISUALSTYLE
  5
2D
102
{ACAD_REACTORS
330
2A
102
}
330
2A
100
AcDbVisualStyle
  2
Gouraud
 70
     2
177
     2
291
     1
 71
     2
176
     1
 72
     2
176
     1
 73
     1
176
     1
 90
        2
176
     1
 40
-0.6
176
     1
 41
30.0
176
     1
 62
     5
 63
     7
421
 16777215
176
     1
 74
     0
176
     1
 91
        4
176
     1
 64
     7
176
     1
 65
   257
176
     1
 75
     1
176
     1
175
     1
176
     1
 42
1.0
176
     1
 92
        0
176
     1
 66
     7
176
     1
 43
1.0
176
     1
 76
     1
176
     1
 77
     6
176
     1
 78
     2
176
     1
 67
     7
176
     1
 79
     5
176
     1
170
     0
176
     1
171
     0
176
     1
290
     0
176
     1
 93
       13
176
     1
 44
0.0
176
     1
173
     0
176
     1
  0
VISUALSTYLE
  5
2E
102
{ACAD_REACTORS
330
2A
102
}
330
2A
100
AcDbVisualStyle
  2
GouraudWithEdges
 70
     3
177
     2
291
     1
 71
     2
176
     1
 72
     2
176
     1
 73
     1
176
     1
 90
        2
176
     1
 40
-0.6
176
     1
 41
30.0
176
     1
 62
     5
 63
     7
421
 16777215
176
     1
 74
     1
176
     1
 91
        4
176
     1
 64
     7
176
     1
 65
   257
176
     1
 75
     1
176
     1
175
     1
176
     1
 42
1.0
176
     1
 92
        0
176
     1
 66
   257
176
     1
 43
1.0
176
     1
 76
     1
176
     1
 77
     6
176
     1
 78
     2
176
     1
 67
     7
176
     1
 79
     5
176
     1
170
     0
176
     1
171
     0
176
     1
290
     0
176
     1
 93
       13
176
     1
 44
0.0
176
     1
173
     0
176
     1
  0
VISUALSTYLE
  5
38
102
{ACAD_REACTORS
330
2A
102
}
330
2A
100
AcDbVisualStyle
  2
Linepattern
 70
    14
177
     2
291
     1
 71
     2
176
     1
 72
     2
176
     1
 73
     0
176
     1
 90
        0
176
     1
 40
-0.6
176
     1
 41
-30.0
176
     1
 62
     5
 63
     7
421
 16777215
176
     1
 74
     1
176
     1
 91
        4
176
     1
 64
     7
176
     1
 65
   257
176
     1
 75
     7
176
     1
175
     7
176
     1
 42
1.0
176
     1
 92
        8
176
     1
 66
     7
176
     1
 43
1.0
176
     1
 76
     1
176
     1
 77
     6
176
     1
 78
     2
176
     1
 67
     7
176
     1
 79
     5
176
     1
170
     0
176
     1
171
     0
176
     1
290
     0
176
     1
 93
        1
176
     1
 44
0.0
176
     1
173
     0
176
     1
  0
VISUALSTYLE
  5
33
102
{ACAD_REACTORS
330
2A
102
}
330
2A
100
AcDbVisualStyle
  2
Realistic
 70
     8
177
     2
291
     0
 71
     2
176
     1
 72
     2
176
     1
 73
     0
176
     1
 90
        0
176
     1
 40
-0.6
176
     1
 41
-30.0
176
     1
 62
     5
 63
     7
421
 16777215
176
     1
 74
     1
176
     1
 91
        0
176
     1
 64
     7
176
     1
 65
   257
176
     1
 75
     1
176
     1
175
     1
176
     1
 42
1.0
176
     1
 92
        8
176
     1
 66
     8
424
  7895160
176
     1
 43
1.0
176
     1
 76
     1
176
     1
 77
     6
176
     1
 78
     2
176
     1
 67
     7
176
     1
 79
     5
176
     1
170
     0
176
     1
171
     0
176
     1
290
     0
176
     1
 93
       13
176
     1
 44
0.0
176
     1
173
     0
176
     1
  0
VISUALSTYLE
  5
37
102
{ACAD_REACTORS
330
2A
102
}
330
2A
100
AcDbVisualStyle
  2
Thicken
 70
    13
177
     2
291
     1
 71
     2
176
     1
 72
     2
176
     1
 73
     0
176
     1
 90
        0
176
     1
 40
-0.6
176
     1
 41
-30.0
176
     1
 62
     5
 63
     7
421
 16777215
176
     1
 74
     1
176
     1
 91
        4
176
     1
 64
     7
176
     1
 65
   257
176
     1
 75
     1
176
     1
175
     1
176
     1
 42
1.0
176
     1
 92
       12
176
     1
 66
     7
176
     1
 43
1.0
176
     1
 76
     1
176
     1
 77
     6
176
     1
 78
     2
176
     1
 67
     7
176
     1
 79
     5
176
     1
170
     0
176
     1
171
     0
176
     1
290
     0
176
     1
 93
        1
176
     1
 44
0.0
176
     1
173
     0
176
     1
  0
ENDSEC
  0
EOF
