  0
SECTION
  2
HEADER
  9
$ACADVER
  1
AC1024
  9
$ACADMAINTVER
 70
     6
  9
$DWGCODEPAGE
  3
UNDEFINED
  9
$INSBASE
 10
0.0
 20
0.0
 30
0.0
  9
$EXTMIN
 10
1.000000000000000E+20
 20
1.000000000000000E+20
 30
1.000000000000000E+20
  9
$EXTMAX
 10
-1.000000000000000E+20
 20
-1.000000000000000E+20
 30
-1.000000000000000E+20
  9
$LIMMIN
 10
0.0
 20
0.0
  9
$LIMMAX
 10
12.0
 20
9.0
  9
$ORTHOMODE
 70
     0
  9
$REGENMODE
 70
     1
  9
$FILLMODE
 70
     1
  9
$QTEXTMODE
 70
     0
  9
$MIRRTEXT
 70
     1
  9
$LTSCALE
 40
1.0
  9
$ATTMODE
 70
     1
  9
$TEXTSIZE
 40
0.2
  9
$TRACEWID
 40
0.05
  9
$TEXTSTYLE
  7
Standard
  9
$CLAYER
  8
0
  9
$CELTYPE
  6
ByLayer
  9
$CECOLOR
 62
   256
  9
$CELTSCALE
 40
1.0
  9
$DISPSILH
 70
     0
  9
$DIMSCALE
 40
1.0
  9
$DIMASZ
 40
0.18
  9
$DIMEXO
 40
0.0625
  9
$DIMDLI
 40
0.38
  9
$DIMRND
 40
0.0
  9
$DIMDLE
 40
0.0
  9
$DIMEXE
 40
0.18
  9
$DIMTP
 40
0.0
  9
$DIMTM
 40
0.0
  9
$DIMTXT
 40
0.18
  9
$DIMCEN
 40
0.09
  9
$DIMTSZ
 40
0.0
  9
$DIMTOL
 70
     0
  9
$DIMLIM
 70
     0
  9
$DIMTIH
 70
     1
  9
$DIMTOH
 70
     1
  9
$DIMSE1
 70
     0
  9
$DIMSE2
 70
     0
  9
$DIMTAD
 70
     0
  9
$DIMZIN
 70
     0
  9
$DIMBLK
  1

  9
$DIMASO
 70
     1
  9
$DIMSHO
 70
     1
  9
$DIMPOST
  1

  9
$DIMAPOST
  1

  9
$DIMALT
 70
     0
  9
$DIMALTD
 70
     2
  9
$DIMALTF
 40
25.4
  9
$DIMLFAC
 40
1.0
  9
$DIMTOFL
 70
     0
  9
$DIMTVP
 40
0.0
  9
$DIMTIX
 70
     0
  9
$DIMSOXD
 70
     0
  9
$DIMSAH
 70
     0
  9
$DIMBLK1
  1

  9
$DIMBLK2
  1

  9
$DIMSTYLE
  2
Standard
  9
$DIMCLRD
 70
     0
  9
$DIMCLRE
 70
     0
  9
$DIMCLRT
 70
     0
  9
$DIMTFAC
 40
1.0
  9
$DIMGAP
 40
0.09
  9
$DIMJUST
 70
     0
  9
$DIMSD1
 70
     0
  9
$DIMSD2
 70
     0
  9
$DIMTOLJ
 70
     1
  9
$DIMTZIN
 70
     0
  9
$DIMALTZ
 70
     0
  9
$DIMALTTZ
 70
     0
  9
$DIMUPT
 70
     0
  9
$DIMDEC
 70
     4
  9
$DIMTDEC
 70
     4
  9
$DIMALTU
 70
     2
  9
$DIMALTTD
 70
     2
  9
$DIMTXSTY
  7
Standard
  9
$DIMAUNIT
 70
     0
  9
$DIMADEC
 70
     0
  9
$DIMALTRND
 40
0.0
  9
$DIMAZIN
 70
     0
  9
$DIMDSEP
 70
    46
  9
$DIMATFIT
 70
     3
  9
$DIMFRAC
 70
     0
  9
$DIMLDRBLK
  1

  9
$DIMLUNIT
 70
     2
  9
$DIMLWD
 70
    -2
  9
$DIMLWE
 70
    -2
  9
$DIMTMOVE
 70
     0
  9
$DIMFXL
 40
1.0
  9
$DIMFXLON
 70
     0
  9
$DIMJOGANG
 40
0.7853981633974483
  9
$DIMTFILL
 70
     0
  9
$DIMTFILLCLR
 70
     0
  9
$DIMARCSYM
 70
     0
  9
$DIMLTYPE
  6

  9
$DIMLTEX1
  6

  9
$DIMLTEX2
  6

  9
$DIMTXTDIRECTION
 70
     0
  9
$LUNITS
 70
     2
  9
$LUPREC
 70
     4
  9
$SKETCHINC
 40
0.1
  9
$FILLETRAD
 40
0.5
  9
$AUNITS
 70
     0
  9
$AUPREC
 70
     0
  9
$MENU
  1
.
  9
$ELEVATION
 40
0.0
  9
$PELEVATION
 40
0.0
  9
$THICKNESS
 40
0.0
  9
$LIMCHECK
 70
     0
  9
$CHAMFERA
 40
0.5
  9
$CHAMFERB
 40
0.5
  9
$CHAMFERC
 40
1.0
  9
$CHAMFERD
 40
0.0
  9
$SKPOLY
 70
     0
  9
$TDCREATE
 40
2458129.58616897
  9
$TDUCREATE
 40
2458129.919502315
  9
$TDUPDATE
 40
2458129.58616897
  9
$TDUUPDATE
 40
2458129.919502315
  9
$TDINDWG
 40
0.0000000116
  9
$TDUSRTIMER
 40
0.0000000116
  9
$USRTIMER
 70
     1
  9
$ANGBASE
 50
0.0
  9
$ANGDIR
 70
     0
  9
$PDMODE
 70
     0
  9
$PDSIZE
 40
0.0
  9
$PLINEWID
 40
0.0
  9
$SPLFRAME
 70
     0
  9
$SPLINETYPE
 70
     6
  9
$SPLINESEGS
 70
     8
  9
$HANDSEED
  5
58
  9
$SURFTAB1
 70
     6
  9
$SURFTAB2
 70
     6
  9
$SURFTYPE
 70
     6
  9
$SURFU
 70
     6
  9
$SURFV
 70
     6
  9
$UCSBASE
  2

  9
$UCSNAME
  2

  9
$UCSORG
 10
0.0
 20
0.0
 30
0.0
  9
$UCSXDIR
 10
1.0
 20
0.0
 30
0.0
  9
$UCSYDIR
 10
0.0
 20
1.0
 30
0.0
  9
$UCSORTHOREF
  2

  9
$UCSORTHOVIEW
 70
     0
  9
$UCSORGTOP
 10
0.0
 20
0.0
 30
0.0
  9
$UCSORGBOTTOM
 10
0.0
 20
0.0
 30
0.0
  9
$UCSORGLEFT
 10
0.0
 20
0.0
 30
0.0
  9
$UCSORGRIGHT
 10
0.0
 20
0.0
 30
0.0
  9
$UCSORGFRONT
 10
0.0
 20
0.0
 30
0.0
  9
$UCSORGBACK
 10
0.0
 20
0.0
 30
0.0
  9
$PUCSBASE
  2

  9
$PUCSNAME
  2

  9
$PUCSORG
 10
0.0
 20
0.0
 30
0.0
  9
$PUCSXDIR
 10
1.0
 20
0.0
 30
0.0
  9
$PUCSYDIR
 10
0.0
 20
1.0
 30
0.0
  9
$PUCSORTHOREF
  2

  9
$PUCSORTHOVIEW
 70
     0
  9
$PUCSORGTOP
 10
0.0
 20
0.0
 30
0.0
  9
$PUCSORGBOTTOM
 10
0.0
 20
0.0
 30
0.0
  9
$PUCSORGLEFT
 10
0.0
 20
0.0
 30
0.0
  9
$PUCSORGRIGHT
 10
0.0
 20
0.0
 30
0.0
  9
$PUCSORGFRONT
 10
0.0
 20
0.0
 30
0.0
  9
$PUCSORGBACK
 10
0.0
 20
0.0
 30
0.0
  9
$USERI1
 70
     0
  9
$USERI2
 70
     0
  9
$USERI3
 70
     0
  9
$USERI4
 70
     0
  9
$USERI5
 70
     0
  9
$USERR1
 40
0.0
  9
$USERR2
 40
0.0
  9
$USERR3
 40
0.0
  9
$USERR4
 40
0.0
  9
$USERR5
 40
0.0
  9
$WORLDVIEW
 70
     1
  9
$SHADEDGE
 70
     3
  9
$SHADEDIF
 70
    70
  9
$TILEMODE
 70
     1
  9
$MAXACTVP
 70
    64
  9
$PINSBASE
 10
0.0
 20
0.0
 30
0.0
  9
$PLIMCHECK
 70
     0
  9
$PEXTMIN
 10
1.000000000000000E+20
 20
1.000000000000000E+20
 30
1.000000000000000E+20
  9
$PEXTMAX
 10
-1.000000000000000E+20
 20
-1.000000000000000E+20
 30
-1.000000000000000E+20
  9
$PLIMMIN
 10
0.0
 20
0.0
  9
$PLIMMAX
 10
12.0
 20
9.0
  9
$UNITMODE
 70
     0
  9
$VISRETAIN
 70
     1
  9
$PLINEGEN
 70
     0
  9
$PSLTSCALE
 70
     1
  9
$TREEDEPTH
 70
  3020
  9
$CMLSTYLE
  2
Standard
  9
$CMLJUST
 70
     0
  9
$CMLSCALE
 40
1.0
  9
$PROXYGRAPHICS
 70
     1
  9
$MEASUREMENT
 70
     0
  9
$CELWEIGHT
370
    -1
  9
$ENDCAPS
280
     0
  9
$JOINSTYLE
280
     0
  9
$LWDISPLAY
290
     1
  9
$INSUNITS
 70
     1
  9
$HYPERLINKBASE
  1

  9
$STYLESHEET
  1

  9
$XEDIT
290
     1
  9
$CEPSNTYPE
380
     0
  9
$PSTYLEMODE
290
     1
  9
$FINGERPRINTGUID
  2
{1CDF6898-8DB0-CE51-009B-0191850C3E94}
  9
$VERSIONGUID
  2
{FAEB1C32-E019-11D5-929B-00C0DF256EC4}
  9
$EXTNAMES
290
     1
  9
$PSVPSCALE
 40
0.0
  9
$OLESTARTUP
290
     0
  9
$SORTENTS
280
   127
  9
$INDEXCTL
280
     0
  9
$HIDETEXT
280
     1
  9
$XCLIPFRAME
280
     2
  9
$HALOGAP
280
     0
  9
$OBSCOLOR
 70
   257
  9
$OBSLTYPE
280
     0
  9
$INTERSECTIONDISPLAY
280
     0
  9
$INTERSECTIONCOLOR
 70
   257
  9
$DIMASSOC
280
     2
  9
$PROJECTNAME
  1

  9
$CAMERADISPLAY
290
     0
  9
$LENSLENGTH
 40
50.0
  9
$CAMERAHEIGHT
 40
0.0
  9
$STEPSPERSEC
 40
2.0
  9
$STEPSIZE
 40
6.0
  9
$3DDWFPREC
 40
2.0
  9
$PSOLWIDTH
 40
0.25
  9
$PSOLHEIGHT
 40
4.0
  9
$LOFTANG1
 40
1.570796326794897
  9
$LOFTANG2
 40
1.570796326794897
  9
$LOFTMAG1
 40
0.0
  9
$LOFTMAG2
 40
0.0
  9
$LOFTPARAM
 70
     7
  9
$LOFTNORMALS
280
     1
  9
$LATITUDE
 40
37.795
  9
$LONGITUDE
 40
-122.394
  9
$NORTHDIRECTION
 40
0.0
  9
$TIMEZONE
 70
 -8000
  9
$LIGHTGLYPHDISPLAY
280
     1
  9
$TILEMODELIGHTSYNCH
280
     1
  9
$CMATERIAL
347
3C
  9
$SOLIDHIST
280
     1
  9
$SHOWHIST
280
     1
  9
$DWFFRAME
280
     2
  9
$DGNFRAME
280
     2
  9
$REALWORLDSCALE
290
     1
  9
$INTERFERECOLOR
 62
   256
  9
$CSHADOW
280
     0
  9
$SHADOWPLANELOCATION
 40
0.0
  0
ENDSEC
  0
SECTION
  2
CLASSES
  0
CLASS
  1
ACDBDICTIONARYWDFLT
  2
AcDbDictionaryWithDefault
  3
ObjectDBX Classes
 90
        0
 91
        4
280
     0
281
     0
  0
CLASS
  1
VISUALSTYLE
  2
AcDbVisualStyle
  3
ObjectDBX Classes
 90
     4095
 91
        4
280
     0
281
     0
  0
CLASS
  1
MATERIAL
  2
AcDbMaterial
  3
ObjectDBX Classes
 90
     1153
 91
        4
280
     0
281
     0
  0
CLASS
  1
SUN
  2
AcDbSun
  3
SCENEOE
 90
     1024
 91
        4
280
     0
281
     0
  0
ENDSEC
  0
SECTION
  2
TABLES
  0
TABLE
  2
VPORT
  5
8
330
0
100
AcDbSymbolTable
 70
     1
  0
VPORT
  5
29
330
8
100
AcDbSymbolTableRecord
100
AcDbViewportTableRecord
  2
*Active
 70
     0
 10
0.0
 20
0.0
 11
1.0
 21
1.0
 12
0.0
 22
0.0
 13
0.0
 23
0.0
 14
0.5
 24
0.5
 15
0.5
 25
0.5
 16
0.0
 26
0.0
 36
1.0
 17
139.5795943192236
 27
-108.1594617785157
 37
0.0
 40
149.2911457960105
 41
0.8774299460988033
 42
50.0
 43
0.0
 44
0.0
 50
0.0
 51
0.0
 71
     0
 72
   100
 73
     1
 74
     3
 75
     0
 76
     0
 77
     0
 78
     0
281
     0
 65
     1
110
0.0
120
0.0
130
0.0
111
1.0
121
0.0
131
0.0
112
0.0
122
1.0
132
0.0
 79
     0
146
0.0
 60
     3
 61
     5
292
     1
282
     1
141
0.0
142
0.0
 63
   250
361
3F
  0
ENDTAB
  0
TABLE
  2
LTYPE
  5
5
330
0
100
AcDbSymbolTable
 70
     1
  0
LTYPE
  5
14
330
5
100
AcDbSymbolTableRecord
100
AcDbLinetypeTableRecord
  2
ByBlock
 70
     0
  3

 72
    65
 73
     0
 40
0.0
  0
LTYPE
  5
15
330
5
100
AcDbSymbolTableRecord
100
AcDbLinetypeTableRecord
  2
ByLayer
 70
     0
  3

 72
    65
 73
     0
 40
0.0
  0
LTYPE
  5
16
330
5
100
AcDbSymbolTableRecord
100
AcDbLinetypeTableRecord
  2
Continuous
 70
     0
  3
Solid line
 72
    65
 73
     0
 40
0.0
  0
ENDTAB
  0
TABLE
  2
LAYER
  5
2
330
0
100
AcDbSymbolTable
 70
     2
  0
LAYER
  5
10
330
2
100
AcDbSymbolTableRecord
100
AcDbLayerTableRecord
  2
0
 70
     0
 62
     7
  6
Continuous
370
    -3
390
F
347
3E
  0
LAYER
  5
40
330
2
100
AcDbSymbolTableRecord
100
AcDbLayerTableRecord
  2
Layer 1
 70
     0
 62
     7
  6
Continuous
370
    -3
390
F
347
3E
  0
ENDTAB
  0
TABLE
  2
STYLE
  5
3
330
0
100
AcDbSymbolTable
 70
     1
  0
STYLE
  5
11
330
3
100
AcDbSymbolTableRecord
100
AcDbTextStyleTableRecord
  2
Standard
 70
     0
 40
0.0
 41
1.0
 50
0.0
 71
     0
 42
0.2
  3
txt
  4

  0
ENDTAB
  0
TABLE
  2
VIEW
  5
6
330
0
100
AcDbSymbolTable
 70
     0
  0
ENDTAB
  0
TABLE
  2
UCS
  5
7
330
0
100
AcDbSymbolTable
 70
     0
  0
ENDTAB
  0
TABLE
  2
APPID
  5
9
330
0
100
AcDbSymbolTable
 70
     1
  0
APPID
  5
12
330
9
100
AcDbSymbolTableRecord
100
AcDbRegAppTableRecord
  2
ACAD
 70
     0
  0
ENDTAB
  0
TABLE
  2
DIMSTYLE
  5
A
330
0
100
AcDbSymbolTable
 70
     1
100
AcDbDimStyleTable
  0
DIMSTYLE
105
27
330
A
100
AcDbSymbolTableRecord
100
AcDbDimStyleTableRecord
  2
Standard
 70
     0
178
     0
340
11
  0
ENDTAB
  0
TABLE
  2
BLOCK_RECORD
  5
1
330
0
100
AcDbSymbolTable
 70
     1
  0
BLOCK_RECORD
  5
1F
330
1
100
AcDbSymbolTableRecord
100
AcDbBlockTableRecord
  2
*Model_Space
340
22
 70
     0
280
     1
281
     0
  0
BLOCK_RECORD
  5
1B
330
1
100
AcDbSymbolTableRecord
100
AcDbBlockTableRecord
  2
*Paper_Space
340
1E
 70
     0
280
     1
281
     0
  0
BLOCK_RECORD
  5
23
330
1
100
AcDbSymbolTableRecord
100
AcDbBlockTableRecord
  2
*Paper_Space0
340
26
 70
     0
280
     1
281
     0
  0
ENDTAB
  0
ENDSEC
  0
SECTION
  2
BLOCKS
  0
BLOCK
  5
20
330
1F
100
AcDbEntity
  8
0
100
AcDbBlockBegin
  2
*Model_Space
 70
     0
 10
0.0
 20
0.0
 30
0.0
  3
*Model_Space
  1

  0
ENDBLK
  5
21
330
1F
100
AcDbEntity
  8
0
100
AcDbBlockEnd
  0
BLOCK
  5
1C
330
1B
100
AcDbEntity
 67
     1
  8
0
100
AcDbBlockBegin
  2
*Paper_Space
 70
     0
 10
0.0
 20
0.0
 30
0.0
  3
*Paper_Space
  1

  0
ENDBLK
  5
1D
330
1B
100
AcDbEntity
 67
     1
  8
0
100
AcDbBlockEnd
  0
BLOCK
  5
24
330
23
100
AcDbEntity
  8
0
100
AcDbBlockBegin
  2
*Paper_Space0
 70
     0
 10
0.0
 20
0.0
 30
0.0
  3
*Paper_Space0
  1

  0
ENDBLK
  5
25
330
23
100
AcDbEntity
  8
0
100
AcDbBlockEnd
  0
ENDSEC
  0
SECTION
  2
ENTITIES
  0
SPLINE
  5
41
330
1F
100
AcDbEntity
  8
Layer 1
370
     0
100
AcDbSpline
210
0.0
220
0.0
230
1.0
 70
    11
 71
     3
 72
    47
 73
    43
 74
     0
 42
0.0000000001
 43
0.0000000001
 12
1.0
 22
0.0
 32
0.0
 13
1.0
 23
0.0
 33
0.0
 40
0.0
 40
0.0
 40
0.0
 40
0.0
 40
1.0
 40
1.0
 40
1.0
 40
2.0
 40
2.0
 40
2.0
 40
3.0
 40
3.0
 40
3.0
 40
4.0
 40
4.0
 40
4.0
 40
5.0
 40
5.0
 40
5.0
 40
6.0
 40
6.0
 40
6.0
 40
7.0
 40
7.0
 40
7.0
 40
8.0
 40
8.0
 40
8.0
 40
9.0
 40
9.0
 40
9.0
 40
10.0
 40
10.0
 40
10.0
 40
11.0
 40
11.0
 40
11.0
 40
12.0
 40
12.0
 40
12.0
 40
13.0
 40
13.0
 40
13.0
 40
14.0
 40
14.0
 40
14.0
 40
14.0
 10
201.8860387383469
 20
-156.6105791275139
 30
0.0
 10
203.8566200769621
 20
-155.473364683354
 30
0.0
 10
205.0699992126729
 20
-153.3735960727676
 30
0.0
 10
205.0696464349041
 20
-151.0998374622252
 30
0.0
 10
205.0696464349041
 20
-151.0998374622252
 30
0.0
 10
205.0696464349041
 20
-65.1879358170364
 30
0.0
 10
205.0696464349041
 20
-65.1879358170364
 30
0.0
 10
205.0692936571353
 20
-62.91329526204954
 30
0.0
 10
203.8569728547309
 20
-60.81317387368546
 30
0.0
 10
201.8860387383469
 20
-59.67645331841435
 30
0.0
 10
201.8860387383469
 20
-59.67645331841435
 30
0.0
 10
158.0447971827111
 20
-34.37343193585102
 30
0.0
 10
158.0447971827111
 20
-34.37343193585102
 30
0.0
 10
156.0741805165373
 20
-33.23657026946854
 30
0.0
 10
153.6488332949214
 20
-33.23586471391334
 30
0.0
 10
151.6789536303475
 20
-34.3736083247399
 30
0.0
 10
151.6789536303475
 20
-34.3736083247399
 30
0.0
 10
77.27297163971336
 20
-77.31707081400417
 30
0.0
 10
77.27297163971336
 20
-77.31707081400417
 30
0.0
 10
75.3027078010901
 20
-78.45463803594184
 30
0.0
 10
74.0891875542718
 20
-80.55373636875048
 30
0.0
 10
74.08989310980935
 20
-82.82837692373734
 30
0.0
 10
74.08989310980935
 20
-82.82837692373734
 30
0.0
 10
74.08989310980935
 20
-133.4592199666354
 30
0.0
 10
74.08989310980935
 20
-133.4592199666354
 30
0.0
 10
74.09038887036645
 20
-135.7326257994001
 30
0.0
 10
75.30083807891558
 20
-137.8320769099861
 30
0.0
 10
77.26951441757934
 20
-138.9686210763687
 30
0.0
 10
77.26951441757934
 20
-138.9686210763687
 30
0.0
 10
151.6203610732063
 20
-181.9437630100697
 30
0.0
 10
151.6203610732063
 20
-181.9437630100697
 30
0.0
 10
153.5916441371063
 20
-183.0823532875625
 30
0.0
 10
156.018367130751
 20
-183.0844346764509
 30
0.0
 10
157.9896540249037
 20
-181.9458443989581
 30
0.0
 10
157.9896540249037
 20
-181.9458443989581
 30
0.0
 10
201.8860387383469
 20
-156.6105791275139
 30
0.0
 10
201.8860387383469
 20
-156.6105791275139
 30
0.0
 10
201.8860387383469
 20
-156.6105791275139
 30
0.0
 10
201.8860387383469
 20
-156.6105791275139
 30
0.0
 10
201.8860387383469
 20
-156.6105791275139
 30
0.0
 10
201.8860387383469
 20
-156.6105791275139
 30
0.0
 10
201.8860387383469
 20
-156.6105791275139
 30
0.0
 10
201.8860387383469
 20
-156.6105791275139
 30
0.0
  0
SPLINE
  5
42
330
1F
100
AcDbEntity
  8
Layer 1
370
     0
100
AcDbSpline
210
0.0
220
0.0
230
1.0
 70
    11
 71
     3
 72
    41
 73
    37
 74
     0
 42
0.0000000001
 43
0.0000000001
 12
1.0
 22
0.0
 32
0.0
 13
1.0
 23
0.0
 33
0.0
 40
0.0
 40
0.0
 40
0.0
 40
0.0
 40
1.0
 40
1.0
 40
1.0
 40
2.0
 40
2.0
 40
2.0
 40
3.0
 40
3.0
 40
3.0
 40
4.0
 40
4.0
 40
4.0
 40
5.0
 40
5.0
 40
5.0
 40
6.0
 40
6.0
 40
6.0
 40
7.0
 40
7.0
 40
7.0
 40
8.0
 40
8.0
 40
8.0
 40
9.0
 40
9.0
 40
9.0
 40
10.0
 40
10.0
 40
10.0
 40
11.0
 40
11.0
 40
11.0
 40
12.0
 40
12.0
 40
12.0
 40
12.0
 10
158.6594026189281
 20
-119.3205216368367
 30
0.0
 10
156.5447860719748
 20
-117.6427810817003
 30
0.0
 10
155.7197054717038
 20
-114.8098696935195
 30
0.0
 10
156.6009443381104
 20
-112.2584396941578
 30
0.0
 10
157.5276915366893
 20
-109.5747180281618
 30
0.0
 10
157.5221529257195
 20
-106.6580924733356
 30
0.0
 10
156.5830232274565
 20
-103.9781455295612
 30
0.0
 10
155.6859446392318
 20
-101.4186016413122
 30
0.0
 10
156.5137729514454
 20
-98.56970941980211
 30
0.0
 10
158.6407759527366
 20
-96.88505442022311
 30
0.0
 10
158.6407759527366
 20
-96.88505442022311
 30
0.0
 10
188.38540991611
 20
-73.35089609277324
 30
0.0
 10
188.38540991611
 20
-73.35089609277324
 30
0.0
 10
190.2933026452134
 20
-71.83299914870852
 30
0.0
 10
192.9012123009023
 20
-71.53948803767068
 30
0.0
 10
195.0985239115109
 20
-72.59489331518478
 30
0.0
 10
197.2958002443426
 20
-73.6504397038096
 30
0.0
 10
198.6965749308281
 20
-75.90373720324638
 30
0.0
 10
198.7031013195505
 20
-78.34093775819255
 30
0.0
 10
198.7031013195505
 20
-78.34093775819255
 30
0.0
 10
198.7031013195505
 20
-137.9212944099643
 30
0.0
 10
198.7031013195505
 20
-137.9212944099643
 30
0.0
 10
198.7096629860497
 20
-140.3607527426875
 30
0.0
 10
197.3198999506702
 20
-142.5876624643529
 30
0.0
 10
195.1253702997149
 20
-143.6549563529752
 30
0.0
 10
192.9315511890172
 20
-144.7208744082645
 30
0.0
 10
190.2933026452134
 20
-144.4170269083403
 30
0.0
 10
188.378495471842
 20
-142.9063619087181
 30
0.0
 10
188.378495471842
 20
-142.9063619087181
 30
0.0
 10
158.6594026189281
 20
-119.3205216368367
 30
0.0
 10
158.6594026189281
 20
-119.3205216368367
 30
0.0
 10
158.6594026189281
 20
-119.3205216368367
 30
0.0
 10
158.6594026189281
 20
-119.3205216368367
 30
0.0
 10
158.6594026189281
 20
-119.3205216368367
 30
0.0
 10
158.6594026189281
 20
-119.3205216368367
 30
0.0
 10
158.6594026189281
 20
-119.3205216368367
 30
0.0
 10
158.6594026189281
 20
-119.3205216368367
 30
0.0
  0
SPLINE
  5
43
330
1F
100
AcDbEntity
  8
Layer 1
370
     0
100
AcDbSpline
210
0.0
220
0.0
230
1.0
 70
    11
 71
     3
 72
    41
 73
    37
 74
     0
 42
0.0000000001
 43
0.0000000001
 12
1.0
 22
0.0
 32
0.0
 13
1.0
 23
0.0
 33
0.0
 40
0.0
 40
0.0
 40
0.0
 40
0.0
 40
1.0
 40
1.0
 40
1.0
 40
2.0
 40
2.0
 40
2.0
 40
3.0
 40
3.0
 40
3.0
 40
4.0
 40
4.0
 40
4.0
 40
5.0
 40
5.0
 40
5.0
 40
6.0
 40
6.0
 40
6.0
 40
7.0
 40
7.0
 40
7.0
 40
8.0
 40
8.0
 40
8.0
 40
9.0
 40
9.0
 40
9.0
 40
10.0
 40
10.0
 40
10.0
 40
11.0
 40
11.0
 40
11.0
 40
12.0
 40
12.0
 40
12.0
 40
12.0
 10
147.432497072017
 20
-90.41669747739572
 30
0.0
 10
147.0390793042761
 20
-93.0980202545034
 30
0.0
 10
144.9861596344282
 20
-95.23620636507985
 30
0.0
 10
142.3230755357025
 20
-95.74314803161975
 30
0.0
 10
139.5193036627882
 20
-96.27612469815318
 30
0.0
 10
136.9799387275728
 20
-97.74114025334242
 30
0.0
 10
135.1171662750961
 20
-99.90190414169112
 30
0.0
 10
133.3475977091305
 20
-101.9551766411779
 30
0.0
 10
130.4674847270527
 20
-102.660908585446
 30
0.0
 10
127.9473814580126
 20
-101.6621946968067
 30
0.0
 10
127.9473814580126
 20
-101.6621946968067
 30
0.0
 10
92.68650263537032
 20
-87.67836581141358
 30
0.0
 10
92.68650263537032
 20
-87.67836581141358
 30
0.0
 10
90.41789463769177
 20
-86.78608497830359
 30
0.0
 10
88.8595341218933
 20
-84.67562720105347
 30
0.0
 10
88.67503134882259
 20
-82.24509414610533
 30
0.0
 10
88.49088135352065
 20
-79.81494914671279
 30
0.0
 10
89.74267798825132
 20
-77.47606775840865
 30
0.0
 10
91.85073682335914
 20
-76.25168192538146
 30
0.0
 10
91.85073682335914
 20
-76.25168192538146
 30
0.0
 10
143.4668516176335
 20
-46.46157415505142
 30
0.0
 10
143.4668516176335
 20
-46.46157415505142
 30
0.0
 10
145.5749104527413
 20
-45.23718832202392
 30
0.0
 10
148.1980248302645
 20
-45.32573554422408
 30
0.0
 10
150.2185595009386
 20
-46.6894685994388
 30
0.0
 10
152.2390941716127
 20
-48.05306054354217
 30
0.0
 10
153.2967610727868
 20
-50.48599248737864
 30
0.0
 10
152.9484597090708
 20
-52.89839276455312
 30
0.0
 10
152.9484597090708
 20
-52.89839276455312
 30
0.0
 10
147.432497072017
 20
-90.41669747739572
 30
0.0
 10
147.432497072017
 20
-90.41669747739572
 30
0.0
 10
147.432497072017
 20
-90.41669747739572
 30
0.0
 10
147.432497072017
 20
-90.41669747739572
 30
0.0
 10
147.432497072017
 20
-90.41669747739572
 30
0.0
 10
147.432497072017
 20
-90.41669747739572
 30
0.0
 10
147.432497072017
 20
-90.41669747739572
 30
0.0
 10
147.432497072017
 20
-90.41669747739572
 30
0.0
  0
SPLINE
  5
44
330
1F
100
AcDbEntity
  8
Layer 1
370
     0
100
AcDbSpline
210
0.0
220
0.0
230
1.0
 70
    11
 71
     3
 72
    41
 73
    37
 74
     0
 42
0.0000000001
 43
0.0000000001
 12
1.0
 22
0.0
 32
0.0
 13
1.0
 23
0.0
 33
0.0
 40
0.0
 40
0.0
 40
0.0
 40
0.0
 40
1.0
 40
1.0
 40
1.0
 40
2.0
 40
2.0
 40
2.0
 40
3.0
 40
3.0
 40
3.0
 40
4.0
 40
4.0
 40
4.0
 40
5.0
 40
5.0
 40
5.0
 40
6.0
 40
6.0
 40
6.0
 40
7.0
 40
7.0
 40
7.0
 40
8.0
 40
8.0
 40
8.0
 40
9.0
 40
9.0
 40
9.0
 40
10.0
 40
10.0
 40
10.0
 40
11.0
 40
11.0
 40
11.0
 40
12.0
 40
12.0
 40
12.0
 40
12.0
 10
152.9022810991378
 20
-163.4194724591453
 30
0.0
 10
153.261267756646
 20
-165.8307085696533
 30
0.0
 10
152.2098136168042
 20
-168.2340071801636
 30
0.0
 10
150.19651089039
 20
-169.607547457598
 30
0.0
 10
148.1825026084383
 20
-170.9804174572551
 30
0.0
 10
145.5301429538834
 20
-171.0641669016786
 30
0.0
 10
143.4162280078139
 20
-169.8507877353152
 30
0.0
 10
143.4162280078139
 20
-169.8507877353152
 30
0.0
 10
91.81902210194603
 20
-140.0276246872155
 30
0.0
 10
91.81902210194603
 20
-140.0276246872155
 30
0.0
 10
89.7070121558279
 20
-138.8145982986298
 30
0.0
 10
88.47419720010356
 20
-136.5012227436525
 30
0.0
 10
88.64419857183142
 20
-134.0724535775929
 30
0.0
 10
88.81473134525855
 20
-131.6436491337557
 30
0.0
 10
90.39016630506585
 20
-129.5121658009554
 30
0.0
 10
92.65066041406251
 20
-128.6054210789601
 30
0.0
 10
92.65066041406251
 20
-128.6054210789601
 30
0.0
 10
127.9057184035199
 20
-114.5721680269128
 30
0.0
 10
127.9057184035199
 20
-114.5721680269128
 30
0.0
 10
130.4342530612339
 20
-113.5648110827197
 30
0.0
 10
133.3262193763426
 20
-114.2796799714301
 30
0.0
 10
135.0966698867302
 20
-116.3463933042471
 30
0.0
 10
136.9563378948416
 20
-118.5171408037044
 30
0.0
 10
139.4960556078258
 20
-119.9916460811131
 30
0.0
 10
142.3044841472879
 20
-120.5304435809783
 30
0.0
 10
144.9644638016484
 20
-121.0392902475177
 30
0.0
 10
147.0111745827658
 20
-123.1797341358714
 30
0.0
 10
147.403922072746
 20
-125.858975524091
 30
0.0
 10
147.403922072746
 20
-125.858975524091
 30
0.0
 10
152.9022810991378
 20
-163.4194724591453
 30
0.0
 10
152.9022810991378
 20
-163.4194724591453
 30
0.0
 10
152.9022810991378
 20
-163.4194724591453
 30
0.0
 10
152.9022810991378
 20
-163.4194724591453
 30
0.0
 10
152.9022810991378
 20
-163.4194724591453
 30
0.0
 10
152.9022810991378
 20
-163.4194724591453
 30
0.0
 10
152.9022810991378
 20
-163.4194724591453
 30
0.0
 10
152.9022810991378
 20
-163.4194724591453
 30
0.0
  0
POLYLINE
  5
45
330
1F
100
AcDbEntity
  8
Layer 1
370
     0
100
AcDb2dPolyline
 66
     1
 10
0.0
 20
0.0
 30
0.0
  0
VERTEX
  5
46
330
45
100
AcDbEntity
  8
Layer 1
370
     0
100
AcDbVertex
100
AcDb2dVertex
 10
74.0833333148125
 20
-33.51388888051042
 30
0.0
  0
VERTEX
  5
47
330
45
100
AcDbEntity
  8
Layer 1
370
     0
100
AcDbVertex
100
AcDb2dVertex
 10
74.0833333148125
 20
-182.805034676521
 30
0.0
  0
VERTEX
  5
48
330
45
100
AcDbEntity
  8
Layer 1
370
     0
100
AcDbVertex
100
AcDb2dVertex
 10
205.0758553236346
 20
-182.805034676521
 30
0.0
  0
VERTEX
  5
49
330
45
100
AcDbEntity
  8
Layer 1
370
     0
100
AcDbVertex
100
AcDb2dVertex
 10
205.0758553236346
 20
-33.51388888051042
 30
0.0
  0
VERTEX
  5
4A
330
45
100
AcDbEntity
  8
Layer 1
370
     0
100
AcDbVertex
100
AcDb2dVertex
 10
74.0833333148125
 20
-33.51388888051042
 30
0.0
  0
SEQEND
  5
4B
330
45
100
AcDbEntity
  8
Layer 1
370
     0
  0
SPLINE
  5
4C
330
1F
100
AcDbEntity
  8
Layer 1
370
     0
100
AcDbSpline
210
0.0
220
0.0
230
1.0
 70
    11
 71
     3
 72
    44
 73
    40
 74
     0
 42
0.0000000001
 43
0.0000000001
 12
1.0
 22
0.0
 32
0.0
 13
1.0
 23
0.0
 33
0.0
 40
0.0
 40
0.0
 40
0.0
 40
0.0
 40
1.0
 40
1.0
 40
1.0
 40
2.0
 40
2.0
 40
2.0
 40
3.0
 40
3.0
 40
3.0
 40
4.0
 40
4.0
 40
4.0
 40
5.0
 40
5.0
 40
5.0
 40
6.0
 40
6.0
 40
6.0
 40
7.0
 40
7.0
 40
7.0
 40
8.0
 40
8.0
 40
8.0
 40
9.0
 40
9.0
 40
9.0
 40
10.0
 40
10.0
 40
10.0
 40
11.0
 40
11.0
 40
11.0
 40
12.0
 40
12.0
 40
12.0
 40
13.0
 40
13.0
 40
13.0
 40
13.0
 10
78.91254159788446
 20
-88.08571831131177
 30
0.0
 10
78.91254159788446
 20
-88.05209858909797
 30
0.0
 10
78.92584131976737
 20
-88.01981942243953
 30
0.0
 10
78.94965381915986
 20
-87.99593636688977
 30
0.0
 10
78.97343104077548
 20
-87.972123866896
 30
0.0
 10
79.00585131772614
 20
-87.95871831134363
 30
0.0
 10
79.0395415946444
 20
-87.95871831134363
 30
0.0
 10
79.0395415946444
 20
-87.95871831134363
 30
0.0
 10
81.9097415214195
 20
-87.95871831134363
 30
0.0
 10
81.9097415214195
 20
-87.95871831134363
 30
0.0
 10
82.06454040635916
 20
-87.95861247801044
 30
0.0
 10
82.21313040256831
 20
-88.02003108910625
 30
0.0
 10
82.32263262199689
 20
-88.12953331130089
 30
0.0
 10
82.43224067475612
 20
-88.23892970016264
 30
0.0
 10
82.49383567318469
 20
-88.38811942234742
 30
0.0
 10
82.49394150651533
 20
-88.54291831119757
 30
0.0
 10
82.49394150651533
 20
-88.54291831119757
 30
0.0
 10
82.49394150651533
 20
-93.7245183099022
 30
0.0
 10
82.49394150651533
 20
-93.7245183099022
 30
0.0
 10
82.49404733984596
 20
-93.87942303208588
 30
0.0
 10
82.43262873030177
 20
-94.02790719871513
 30
0.0
 10
82.32323234420382
 20
-94.13751525424328
 30
0.0
 10
82.2137654025521
 20
-94.24701747643823
 30
0.0
 10
82.06454040635916
 20
-94.30861247642294
 30
0.0
 10
81.9097415214195
 20
-94.30871830975613
 30
0.0
 10
81.9097415214195
 20
-94.30871830975613
 30
0.0
 10
79.0395415946444
 20
-94.30871830975613
 30
0.0
 10
79.0395415946444
 20
-94.30871830975613
 30
0.0
 10
79.00585131772614
 20
-94.30871830975613
 30
0.0
 10
78.97364270743674
 20
-94.29541858753728
 30
0.0
 10
78.94972437471361
 20
-94.2716060875432
 30
0.0
 10
78.92594715309801
 20
-94.24782886532695
 30
0.0
 10
78.91254159788446
 20
-94.21540858755716
 30
0.0
 10
78.91254159788446
 20
-94.181718309788
 30
0.0
 10
78.91254159788446
 20
-94.181718309788
 30
0.0
 10
78.91254159788446
 20
-88.08571831131177
 30
0.0
 10
78.91254159788446
 20
-88.08571831131177
 30
0.0
 10
78.91254159788446
 20
-88.08571831131177
 30
0.0
 10
78.91254159788446
 20
-88.08571831131177
 30
0.0
 10
78.91254159788446
 20
-88.08571831131177
 30
0.0
  0
SPLINE
  5
4D
330
1F
100
AcDbEntity
  8
Layer 1
370
     0
100
AcDbSpline
210
0.0
220
0.0
230
1.0
 70
    11
 71
     3
 72
    44
 73
    40
 74
     0
 42
0.0000000001
 43
0.0000000001
 12
1.0
 22
0.0
 32
0.0
 13
1.0
 23
0.0
 33
0.0
 40
0.0
 40
0.0
 40
0.0
 40
0.0
 40
1.0
 40
1.0
 40
1.0
 40
2.0
 40
2.0
 40
2.0
 40
3.0
 40
3.0
 40
3.0
 40
4.0
 40
4.0
 40
4.0
 40
5.0
 40
5.0
 40
5.0
 40
6.0
 40
6.0
 40
6.0
 40
7.0
 40
7.0
 40
7.0
 40
8.0
 40
8.0
 40
8.0
 40
9.0
 40
9.0
 40
9.0
 40
10.0
 40
10.0
 40
10.0
 40
11.0
 40
11.0
 40
11.0
 40
12.0
 40
12.0
 40
12.0
 40
13.0
 40
13.0
 40
13.0
 40
13.0
 10
78.91254159788446
 20
-122.1045027472515
 30
0.0
 10
78.91254159788446
 20
-122.0709183028156
 30
0.0
 10
78.92584131976737
 20
-122.0386038583793
 30
0.0
 10
78.94965381915986
 20
-122.0147208028298
 30
0.0
 10
78.97343104077548
 20
-121.9909083028354
 30
0.0
 10
79.00585131772614
 20
-121.9775027472837
 30
0.0
 10
79.0395415946444
 20
-121.9775027472837
 30
0.0
 10
79.0395415946444
 20
-121.9775027472837
 30
0.0
 10
81.9097415214195
 20
-121.9775027472837
 30
0.0
 10
81.9097415214195
 20
-121.9775027472837
 30
0.0
 10
82.06454040635916
 20
-121.9773969139499
 30
0.0
 10
82.21313040256831
 20
-122.0388155250457
 30
0.0
 10
82.32263262199689
 20
-122.1483177472406
 30
0.0
 10
82.43224067475612
 20
-122.2577141361024
 30
0.0
 10
82.49383567318469
 20
-122.4069038582872
 30
0.0
 10
82.49394150651533
 20
-122.5617027471373
 30
0.0
 10
82.49394150651533
 20
-122.5617027471373
 30
0.0
 10
82.49394150651533
 20
-127.7433380236195
 30
0.0
 10
82.49394150651533
 20
-127.7433380236195
 30
0.0
 10
82.49404733984596
 20
-127.8982074680253
 30
0.0
 10
82.43262873030177
 20
-128.0467269124327
 30
0.0
 10
82.32323234420382
 20
-128.1562996901833
 30
0.0
 10
82.2137654025521
 20
-128.2658019123783
 30
0.0
 10
82.06454040635916
 20
-128.3273969123624
 30
0.0
 10
81.9097415214195
 20
-128.3275027456962
 30
0.0
 10
81.9097415214195
 20
-128.3275027456962
 30
0.0
 10
79.0395415946444
 20
-128.3275027456962
 30
0.0
 10
79.0395415946444
 20
-128.3275027456962
 30
0.0
 10
79.00585131772614
 20
-128.3275027456962
 30
0.0
 10
78.97364270743674
 20
-128.314203023477
 30
0.0
 10
78.94972437471361
 20
-128.2903905234833
 30
0.0
 10
78.92594715309801
 20
-128.266613301267
 30
0.0
 10
78.91254159788446
 20
-128.2342283012751
 30
0.0
 10
78.91254159788446
 20
-128.2005027457277
 30
0.0
 10
78.91254159788446
 20
-128.2005027457277
 30
0.0
 10
78.91254159788446
 20
-122.1045027472515
 30
0.0
 10
78.91254159788446
 20
-122.1045027472515
 30
0.0
 10
78.91254159788446
 20
-122.1045027472515
 30
0.0
 10
78.91254159788446
 20
-122.1045027472515
 30
0.0
 10
78.91254159788446
 20
-122.1045027472515
 30
0.0
  0
SPLINE
  5
4E
330
1F
100
AcDbEntity
  8
Layer 1
370
     0
100
AcDbSpline
210
0.0
220
0.0
230
1.0
 70
    11
 71
     3
 72
    44
 73
    40
 74
     0
 42
0.0000000001
 43
0.0000000001
 12
1.0
 22
0.0
 32
0.0
 13
1.0
 23
0.0
 33
0.0
 40
0.0
 40
0.0
 40
0.0
 40
0.0
 40
1.0
 40
1.0
 40
1.0
 40
2.0
 40
2.0
 40
2.0
 40
3.0
 40
3.0
 40
3.0
 40
4.0
 40
4.0
 40
4.0
 40
5.0
 40
5.0
 40
5.0
 40
6.0
 40
6.0
 40
6.0
 40
7.0
 40
7.0
 40
7.0
 40
8.0
 40
8.0
 40
8.0
 40
9.0
 40
9.0
 40
9.0
 40
10.0
 40
10.0
 40
10.0
 40
11.0
 40
11.0
 40
11.0
 40
12.0
 40
12.0
 40
12.0
 40
13.0
 40
13.0
 40
13.0
 40
13.0
 10
194.8996630832509
 20
-61.30374665134082
 30
0.0
 10
194.9287319713982
 20
-61.32057415133664
 30
0.0
 10
194.9500397486323
 20
-61.3482319291073
 30
0.0
 10
194.958788637298
 20
-61.38079331798814
 30
0.0
 10
194.9675022481869
 20
-61.41331942909113
 30
0.0
 10
194.962845581639
 20
-61.44810331797142
 30
0.0
 10
194.9459828042914
 20
-61.47724276240848
 30
0.0
 10
194.9459828042914
 20
-61.47724276240848
 30
0.0
 10
193.5086956187374
 20
-63.96164498400969
 30
0.0
 10
193.5086956187374
 20
-63.96164498400969
 30
0.0
 10
193.4312608984907
 20
-64.09570053953178
 30
0.0
 10
193.3036964573007
 20
-64.19356109506285
 30
0.0
 10
193.1540834055621
 20
-64.23353081727507
 30
0.0
 10
193.0045056316004
 20
-64.2736063728205
 30
0.0
 10
192.8445209134597
 20
-64.25222803949258
 30
0.0
 10
192.7104653613242
 20
-64.17479331728966
 30
0.0
 10
192.7104653613242
 20
-64.17479331728966
 30
0.0
 10
188.2253546424156
 20
-61.5800069290494
 30
0.0
 10
188.2253546424156
 20
-61.5800069290494
 30
0.0
 10
188.0912332863107
 20
-61.50253692906897
 30
0.0
 10
187.9934385372212
 20
-61.37500776243387
 30
0.0
 10
187.953362982688
 20
-61.2254299846935
 30
0.0
 10
187.9133932614855
 20
-61.0758169291756
 30
0.0
 10
187.9348068720503
 20
-60.91583220699319
 30
0.0
 10
188.012241592297
 20
-60.78177665147111
 30
0.0
 10
188.012241592297
 20
-60.78177665147111
 30
0.0
 10
189.449528777851
 20
-58.29737442987021
 30
0.0
 10
189.449528777851
 20
-58.29737442987021
 30
0.0
 10
189.4664268329754
 20
-58.26823498543283
 30
0.0
 10
189.4940493322707
 20
-58.24699776321595
 30
0.0
 10
189.5266107203289
 20
-58.2382488743292
 30
0.0
 10
189.5591416192771
 20
-58.22957054099813
 30
0.0
 10
189.5938854408348
 20
-58.2341919298859
 30
0.0
 10
189.6230601623127
 20
-58.25105470765956
 30
0.0
 10
189.6230601623127
 20
-58.25105470765956
 30
0.0
 10
194.8996630832509
 20
-61.30374665134082
 30
0.0
 10
194.8996630832509
 20
-61.30374665134082
 30
0.0
 10
194.8996630832509
 20
-61.30374665134082
 30
0.0
 10
194.8996630832509
 20
-61.30374665134082
 30
0.0
 10
194.8996630832509
 20
-61.30374665134082
 30
0.0
  0
SPLINE
  5
4F
330
1F
100
AcDbEntity
  8
Layer 1
370
     0
100
AcDbSpline
210
0.0
220
0.0
230
1.0
 70
    11
 71
     3
 72
    44
 73
    40
 74
     0
 42
0.0000000001
 43
0.0000000001
 12
1.0
 22
0.0
 32
0.0
 13
1.0
 23
0.0
 33
0.0
 40
0.0
 40
0.0
 40
0.0
 40
0.0
 40
1.0
 40
1.0
 40
1.0
 40
2.0
 40
2.0
 40
2.0
 40
3.0
 40
3.0
 40
3.0
 40
4.0
 40
4.0
 40
4.0
 40
5.0
 40
5.0
 40
5.0
 40
6.0
 40
6.0
 40
6.0
 40
7.0
 40
7.0
 40
7.0
 40
8.0
 40
8.0
 40
8.0
 40
9.0
 40
9.0
 40
9.0
 40
10.0
 40
10.0
 40
10.0
 40
11.0
 40
11.0
 40
11.0
 40
12.0
 40
12.0
 40
12.0
 40
13.0
 40
13.0
 40
13.0
 40
13.0
 10
165.4535849455941
 20
-44.26828415559973
 30
0.0
 10
165.4826538337413
 20
-44.28511165559555
 30
0.0
 10
165.5039616109755
 20
-44.31276943336621
 30
0.0
 10
165.5127104996412
 20
-44.34533082224705
 30
0.0
 10
165.52142411053
 20
-44.37785693335005
 30
0.0
 10
165.5167674439821
 20
-44.41264082223033
 30
0.0
 10
165.4999046666346
 20
-44.44178026666739
 30
0.0
 10
165.4999046666346
 20
-44.44178026666739
 30
0.0
 10
164.0626174810806
 20
-46.92618248826861
 30
0.0
 10
164.0626174810806
 20
-46.92618248826861
 30
0.0
 10
163.9851827608339
 20
-47.06023804379037
 30
0.0
 10
163.8576183196439
 20
-47.15809859932144
 30
0.0
 10
163.7080052679053
 20
-47.19806832153398
 30
0.0
 10
163.5584274939436
 20
-47.23814387707941
 30
0.0
 10
163.3984427758029
 20
-47.21676554375149
 30
0.0
 10
163.2643872236674
 20
-47.13933082154858
 30
0.0
 10
163.2643872236674
 20
-47.13933082154858
 30
0.0
 10
158.7792805158609
 20
-44.54454443330832
 30
0.0
 10
158.7792805158609
 20
-44.54454443330832
 30
0.0
 10
158.6451503970695
 20
-44.46707443332756
 30
0.0
 10
158.5473603995643
 20
-44.33954526669279
 30
0.0
 10
158.507288849262
 20
-44.18996748895241
 30
0.0
 10
158.4673151238287
 20
-44.04035443343452
 30
0.0
 10
158.4887287343934
 20
-43.8803697112521
 30
0.0
 10
158.5661634546402
 20
-43.74631415573002
 30
0.0
 10
158.5661634546402
 20
-43.74631415573002
 30
0.0
 10
160.0034506401941
 20
-41.26191193412912
 30
0.0
 10
160.0034506401941
 20
-41.26191193412912
 30
0.0
 10
160.0203527377729
 20
-41.23277248969174
 30
0.0
 10
160.0479711946139
 20
-41.21153526747486
 30
0.0
 10
160.080532582672
 20
-41.20278637858812
 30
0.0
 10
160.1130586929533
 20
-41.19410804525704
 30
0.0
 10
160.1478073031779
 20
-41.19872943414482
 30
0.0
 10
160.1769860710669
 20
-41.21559221191848
 30
0.0
 10
160.1769860710669
 20
-41.21559221191848
 30
0.0
 10
165.4535849455941
 20
-44.26828415559973
 30
0.0
 10
165.4535849455941
 20
-44.26828415559973
 30
0.0
 10
165.4535849455941
 20
-44.26828415559973
 30
0.0
 10
165.4535849455941
 20
-44.26828415559973
 30
0.0
 10
165.4535849455941
 20
-44.26828415559973
 30
0.0
  0
SPLINE
  5
50
330
1F
100
AcDbEntity
  8
Layer 1
370
     0
100
AcDbSpline
210
0.0
220
0.0
230
1.0
 70
    11
 71
     3
 72
    44
 73
    40
 74
     0
 42
0.0000000001
 43
0.0000000001
 12
1.0
 22
0.0
 32
0.0
 13
1.0
 23
0.0
 33
0.0
 40
0.0
 40
0.0
 40
0.0
 40
0.0
 40
1.0
 40
1.0
 40
1.0
 40
2.0
 40
2.0
 40
2.0
 40
3.0
 40
3.0
 40
3.0
 40
4.0
 40
4.0
 40
4.0
 40
5.0
 40
5.0
 40
5.0
 40
6.0
 40
6.0
 40
6.0
 40
7.0
 40
7.0
 40
7.0
 40
8.0
 40
8.0
 40
8.0
 40
9.0
 40
9.0
 40
9.0
 40
10.0
 40
10.0
 40
10.0
 40
11.0
 40
11.0
 40
11.0
 40
12.0
 40
12.0
 40
12.0
 40
13.0
 40
13.0
 40
13.0
 40
13.0
 10
160.0585192499003
 20
-175.0980396784475
 30
0.0
 10
160.0293798061993
 20
-175.1148319006661
 30
0.0
 10
159.9947723070822
 20
-175.1194180117757
 30
0.0
 10
159.9621756412471
 20
-175.1107396784443
 30
0.0
 10
159.9296888489062
 20
-175.1019907895579
 30
0.0
 10
159.901885920563
 20
-175.0806124562296
 30
0.0
 10
159.8850584209923
 20
-175.0514024562369
 30
0.0
 10
159.8850584209923
 20
-175.0514024562369
 30
0.0
 10
158.4521809575481
 20
-172.5644602346369
 30
0.0
 10
158.4521809575481
 20
-172.5644602346369
 30
0.0
 10
158.3747815150783
 20
-172.4304046791145
 30
0.0
 10
158.3538305159672
 20
-172.2709844013766
 30
0.0
 10
158.3940079034766
 20
-172.1214419014141
 30
0.0
 10
158.4340834580098
 20
-171.971864123674
 30
0.0
 10
158.5326142888294
 20
-171.8439821792612
 30
0.0
 10
158.6667051187418
 20
-171.7666180126136
 30
0.0
 10
158.6667051187418
 20
-171.7666180126136
 30
0.0
 10
163.1564019486445
 20
-169.1798044021495
 30
0.0
 10
163.1564019486445
 20
-169.1798044021495
 30
0.0
 10
163.2905633341107
 20
-169.1024049577245
 30
0.0
 10
163.4498777744907
 20
-169.0814499577297
 30
0.0
 10
163.5994555484524
 20
-169.1215255132754
 30
0.0
 10
163.7489980446372
 20
-169.1617421799319
 30
0.0
 10
163.8768447080423
 20
-169.2602730132406
 30
0.0
 10
163.9542441505121
 20
-169.3943285687624
 30
0.0
 10
163.9542441505121
 20
-169.3943285687624
 30
0.0
 10
165.3871216139563
 20
-171.881270790363
 30
0.0
 10
165.3871216139563
 20
-171.881270790363
 30
0.0
 10
165.403949113527
 20
-171.9104807903557
 30
0.0
 10
165.4084999467443
 20
-171.9450177347917
 30
0.0
 10
165.3998216136323
 20
-171.9776144014501
 30
0.0
 10
165.3910727249666
 20
-172.0101052347753
 30
0.0
 10
165.3696943921787
 20
-172.037904123657
 30
0.0
 10
165.3404843929239
 20
-172.0547316236531
 30
0.0
 10
165.3404843929239
 20
-172.0547316236531
 30
0.0
 10
160.0585192499003
 20
-175.0980396784475
 30
0.0
 10
160.0585192499003
 20
-175.0980396784475
 30
0.0
 10
160.0585192499003
 20
-175.0980396784475
 30
0.0
 10
160.0585192499003
 20
-175.0980396784475
 30
0.0
 10
160.0585192499003
 20
-175.0980396784475
 30
0.0
  0
SPLINE
  5
51
330
1F
100
AcDbEntity
  8
Layer 1
370
     0
100
AcDbSpline
210
0.0
220
0.0
230
1.0
 70
    11
 71
     3
 72
    44
 73
    40
 74
     0
 42
0.0000000001
 43
0.0000000001
 12
1.0
 22
0.0
 32
0.0
 13
1.0
 23
0.0
 33
0.0
 40
0.0
 40
0.0
 40
0.0
 40
0.0
 40
1.0
 40
1.0
 40
1.0
 40
2.0
 40
2.0
 40
2.0
 40
3.0
 40
3.0
 40
3.0
 40
4.0
 40
4.0
 40
4.0
 40
5.0
 40
5.0
 40
5.0
 40
6.0
 40
6.0
 40
6.0
 40
7.0
 40
7.0
 40
7.0
 40
8.0
 40
8.0
 40
8.0
 40
9.0
 40
9.0
 40
9.0
 40
10.0
 40
10.0
 40
10.0
 40
11.0
 40
11.0
 40
11.0
 40
12.0
 40
12.0
 40
12.0
 40
13.0
 40
13.0
 40
13.0
 40
13.0
 10
189.5346893312339
 20
-158.1147177382488
 30
0.0
 10
189.5055851653098
 20
-158.1315099604674
 30
0.0
 10
189.4709471748547
 20
-158.136096071577
 30
0.0
 10
189.4383810003576
 20
-158.1274177382456
 30
0.0
 10
189.4058548900763
 20
-158.1186688493592
 30
0.0
 10
189.3780560018966
 20
-158.097290516031
 30
0.0
 10
189.3612637801028
 20
-158.0680805160382
 30
0.0
 10
189.3612637801028
 20
-158.0680805160382
 30
0.0
 10
187.9283510388817
 20
-155.5811382944383
 30
0.0
 10
187.9283510388817
 20
-155.5811382944383
 30
0.0
 10
187.8509916197039
 20
-155.4470827389159
 30
0.0
 10
187.8299965969464
 20
-155.2876624611779
 30
0.0
 10
187.8702132625871
 20
-155.1381199612154
 30
0.0
 10
187.9102888171203
 20
-154.9885421834753
 30
0.0
 10
188.0088196479398
 20
-154.8606602390625
 30
0.0
 10
188.1428752000754
 20
-154.7832960724156
 30
0.0
 10
188.1428752000754
 20
-154.7832960724156
 30
0.0
 10
192.6325720299781
 20
-152.1964824619509
 30
0.0
 10
192.6325720299781
 20
-152.1964824619509
 30
0.0
 10
192.7667334154443
 20
-152.1190830175258
 30
0.0
 10
192.9260831336011
 20
-152.098128017531
 30
0.0
 10
193.0756609075628
 20
-152.1382035730767
 30
0.0
 10
193.2252082850272
 20
-152.1784202397332
 30
0.0
 10
193.3530500671527
 20
-152.276951073042
 30
0.0
 10
193.4304142318457
 20
-152.4110066285637
 30
0.0
 10
193.4304142318457
 20
-152.4110066285637
 30
0.0
 10
194.8633269730668
 20
-154.8979488501643
 30
0.0
 10
194.8633269730668
 20
-154.8979488501643
 30
0.0
 10
194.8801544726375
 20
-154.9271588501571
 30
0.0
 10
194.8846749512789
 20
-154.9616957945931
 30
0.0
 10
194.8759916949659
 20
-154.9942924612515
 30
0.0
 10
194.8672428063002
 20
-155.0267832945766
 30
0.0
 10
194.8458693957328
 20
-155.0545821834583
 30
0.0
 10
194.8166897520344
 20
-155.0714096834544
 30
0.0
 10
194.8166897520344
 20
-155.0714096834544
 30
0.0
 10
189.5346893312339
 20
-158.1147177382488
 30
0.0
 10
189.5346893312339
 20
-158.1147177382488
 30
0.0
 10
189.5346893312339
 20
-158.1147177382488
 30
0.0
 10
189.5346893312339
 20
-158.1147177382488
 30
0.0
 10
189.5346893312339
 20
-158.1147177382488
 30
0.0
  0
SPLINE
  5
52
330
1F
100
AcDbEntity
  8
Layer 1
370
     0
100
AcDbSpline
210
0.0
220
0.0
230
1.0
 70
    11
 71
     3
 72
    17
 73
    13
 74
     0
 42
0.0000000001
 43
0.0000000001
 12
1.0
 22
0.0
 32
0.0
 13
1.0
 23
0.0
 33
0.0
 40
0.0
 40
0.0
 40
0.0
 40
0.0
 40
1.0
 40
1.0
 40
1.0
 40
2.0
 40
2.0
 40
2.0
 40
3.0
 40
3.0
 40
3.0
 40
4.0
 40
4.0
 40
4.0
 40
4.0
 10
103.8998615159604
 20
-108.1431105285199
 30
0.0
 10
103.8998615159604
 20
-108.8334613616807
 30
0.0
 10
103.3402148635715
 20
-109.3931080282075
 30
0.0
 10
102.6498666410041
 20
-109.3931080282075
 30
0.0
 10
101.9595132321294
 20
-109.3931080282075
 30
0.0
 10
101.3998665797405
 20
-108.8334613616807
 30
0.0
 10
101.3998665797405
 20
-108.1431105285199
 30
0.0
 10
101.3998665797405
 20
-107.4527596953591
 30
0.0
 10
101.9595132321294
 20
-106.8931130288323
 30
0.0
 10
102.6498666410041
 20
-106.8931130288323
 30
0.0
 10
103.3402148635715
 20
-106.8931130288323
 30
0.0
 10
103.8998615159604
 20
-107.4527596953591
 30
0.0
 10
103.8998615159604
 20
-108.1431105285199
 30
0.0
  0
SPLINE
  5
53
330
1F
100
AcDbEntity
  8
Layer 1
370
     0
100
AcDbSpline
210
0.0
220
0.0
230
1.0
 70
    11
 71
     3
 72
    17
 73
    13
 74
     0
 42
0.0000000001
 43
0.0000000001
 12
1.0
 22
0.0
 32
0.0
 13
1.0
 23
0.0
 33
0.0
 40
0.0
 40
0.0
 40
0.0
 40
0.0
 40
1.0
 40
1.0
 40
1.0
 40
2.0
 40
2.0
 40
2.0
 40
3.0
 40
3.0
 40
3.0
 40
4.0
 40
4.0
 40
4.0
 40
4.0
 10
145.9074034998143
 20
-108.1575744174049
 30
0.0
 10
145.9074034998143
 20
-108.8479252505657
 30
0.0
 10
145.3477568474254
 20
-109.4075719170925
 30
0.0
 10
144.6574060317043
 20
-109.4075719170925
 30
0.0
 10
143.9670552159833
 20
-109.4075719170925
 30
0.0
 10
143.4074085635944
 20
-108.8479252505657
 30
0.0
 10
143.4074085635944
 20
-108.1575744174049
 30
0.0
 10
143.4074085635944
 20
-107.4672235842445
 30
0.0
 10
143.9670552159833
 20
-106.9075769177176
 30
0.0
 10
144.6574060317043
 20
-106.9075769177176
 30
0.0
 10
145.3477568474254
 20
-106.9075769177176
 30
0.0
 10
145.9074034998143
 20
-107.4672235842445
 30
0.0
 10
145.9074034998143
 20
-108.1575744174049
 30
0.0
  0
SPLINE
  5
54
330
1F
100
AcDbEntity
  8
Layer 1
370
     0
100
AcDbSpline
210
0.0
220
0.0
230
1.0
 70
    11
 71
     3
 72
    17
 73
    13
 74
     0
 42
0.0000000001
 43
0.0000000001
 12
1.0
 22
0.0
 32
0.0
 13
1.0
 23
0.0
 33
0.0
 40
0.0
 40
0.0
 40
0.0
 40
0.0
 40
1.0
 40
1.0
 40
1.0
 40
2.0
 40
2.0
 40
2.0
 40
3.0
 40
3.0
 40
3.0
 40
4.0
 40
4.0
 40
4.0
 40
4.0
 10
166.9754682401009
 20
-71.72836525984559
 30
0.0
 10
166.9754682401009
 20
-72.41871609300638
 30
0.0
 10
166.415821587712
 20
-72.97836275953318
 30
0.0
 10
165.7254749585684
 20
-72.97836275953318
 30
0.0
 10
165.03511995627
 20
-72.97836275953318
 30
0.0
 10
164.4754733038811
 20
-72.41871609300638
 30
0.0
 10
164.4754733038811
 20
-71.72836525984559
 30
0.0
 10
164.4754733038811
 20
-71.0380144266848
 30
0.0
 10
165.03511995627
 20
-70.47836776015832
 30
0.0
 10
165.7254749585684
 20
-70.47836776015832
 30
0.0
 10
166.415821587712
 20
-70.47836776015832
 30
0.0
 10
166.9754682401009
 20
-71.0380144266848
 30
0.0
 10
166.9754682401009
 20
-71.72836525984559
 30
0.0
  0
SPLINE
  5
55
330
1F
100
AcDbEntity
  8
Layer 1
370
     0
100
AcDbSpline
210
0.0
220
0.0
230
1.0
 70
    11
 71
     3
 72
    17
 73
    13
 74
     0
 42
0.0000000001
 43
0.0000000001
 12
1.0
 22
0.0
 32
0.0
 13
1.0
 23
0.0
 33
0.0
 40
0.0
 40
0.0
 40
0.0
 40
0.0
 40
1.0
 40
1.0
 40
1.0
 40
2.0
 40
2.0
 40
2.0
 40
3.0
 40
3.0
 40
3.0
 40
4.0
 40
4.0
 40
4.0
 40
4.0
 10
166.9427304631583
 20
-144.6212852416225
 30
0.0
 10
166.9427304631583
 20
-145.3116360747829
 30
0.0
 10
166.3830838107694
 20
-145.8712827413098
 30
0.0
 10
165.6927329950484
 20
-145.8712827413098
 30
0.0
 10
165.0023821793274
 20
-145.8712827413098
 30
0.0
 10
164.4427355269385
 20
-145.3116360747829
 30
0.0
 10
164.4427355269385
 20
-144.6212852416225
 30
0.0
 10
164.4427355269385
 20
-143.930934408462
 30
0.0
 10
165.0023821793274
 20
-143.3712877419352
 30
0.0
 10
165.6927329950484
 20
-143.3712877419352
 30
0.0
 10
166.3830838107694
 20
-143.3712877419352
 30
0.0
 10
166.9427304631583
 20
-143.930934408462
 30
0.0
 10
166.9427304631583
 20
-144.6212852416225
 30
0.0
  0
ENDSEC
  0
SECTION
  2
OBJECTS
  0
DICTIONARY
  5
C
330
0
100
AcDbDictionary
281
     1
  3
ACAD_GROUP
350
D
  3
ACAD_LAYOUT
350
1A
  3
ACAD_MATERIAL
350
3B
  3
ACAD_MLEADERSTYLE
350
57
  3
ACAD_MLINESTYLE
350
17
  3
ACAD_PLOTSETTINGS
350
19
  3
ACAD_PLOTSTYLENAME
350
E
  3
ACAD_TABLESTYLE
350
56
  3
ACAD_VISUALSTYLE
350
2A
  0
SUN
  5
3F
330
29
100
AcDbSun
 90
        1
290
     0
 63
     7
421
 16777215
 40
1.0
291
     1
 91
  2455826
 92
 54000000
292
     0
 70
     2
 71
   256
280
     1
  0
DICTIONARY
  5
D
102
{ACAD_REACTORS
330
C
102
}
330
C
100
AcDbDictionary
281
     1
  0
DICTIONARY
  5
1A
102
{ACAD_REACTORS
330
C
102
}
330
C
100
AcDbDictionary
281
     1
  3
Layout1
350
1E
  3
Layout2
350
26
  3
Model
350
22
  0
DICTIONARY
  5
3B
102
{ACAD_REACTORS
330
C
102
}
330
C
100
AcDbDictionary
281
     1
  3
ByBlock
350
3D
  3
ByLayer
350
3C
  3
Global
350
3E
  0
DICTIONARY
  5
57
102
{ACAD_REACTORS
330
C
102
}
330
C
100
AcDbDictionary
281
     1
  0
DICTIONARY
  5
17
102
{ACAD_REACTORS
330
C
102
}
330
C
100
AcDbDictionary
281
     1
  3
Standard
350
18
  0
DICTIONARY
  5
19
102
{ACAD_REACTORS
330
C
102
}
330
C
100
AcDbDictionary
281
     1
  0
ACDBDICTIONARYWDFLT
  5
E
102
{ACAD_REACTORS
330
C
102
}
330
C
100
AcDbDictionary
281
     1
  3
Normal
350
F
100
AcDbDictionaryWithDefault
340
F
  0
DICTIONARY
  5
56
102
{ACAD_REACTORS
330
C
102
}
330
C
100
AcDbDictionary
281
     1
  0
DICTIONARY
  5
2A
102
{ACAD_REACTORS
330
C
102
}
330
C
100
AcDbDictionary
281
     1
  3
2dWireframe
350
2F
  3
3D Hidden
350
31
  3
3dWireframe
350
30
  3
Basic
350
32
  3
Brighten
350
36
  3
ColorChange
350
3A
  3
Conceptual
350
34
  3
Dim
350
35
  3
Facepattern
350
39
  3
Flat
350
2B
  3
FlatWithEdges
350
2C
  3
Gouraud
350
2D
  3
GouraudWithEdges
350
2E
  3
Linepattern
350
38
  3
Realistic
350
33
  3
Thicken
350
37
  0
LAYOUT
  5
1E
102
{ACAD_REACTORS
330
1A
102
}
330
1A
100
AcDbPlotSettings
  1

  2
none_device
  4

  6

 40
0.0
 41
0.0
 42
0.0
 43
0.0
 44
0.0
 45
0.0
 46
0.0
 47
0.0
 48
0.0
 49
0.0
140
0.0
141
0.0
142
1.0
143
1.0
 70
   688
 72
     0
 73
     0
 74
     5
  7

 75
    16
 76
     0
 77
     2
 78
   300
147
1.0
148
0.0
149
0.0
100
AcDbLayout
  1
Layout1
 70
     1
 71
     1
 10
0.0
 20
0.0
 11
12.0
 21
9.0
 12
0.0
 22
0.0
 32
0.0
 14
1.000000000000000E+20
 24
1.000000000000000E+20
 34
1.000000000000000E+20
 15
-1.000000000000000E+20
 25
-1.000000000000000E+20
 35
-1.000000000000000E+20
146
0.0
 13
0.0
 23
0.0
 33
0.0
 16
1.0
 26
0.0
 36
0.0
 17
0.0
 27
1.0
 37
0.0
 76
     0
330
1B
  0
LAYOUT
  5
26
102
{ACAD_REACTORS
330
1A
102
}
330
1A
100
AcDbPlotSettings
  1

  2
none_device
  4

  6

 40
0.0
 41
0.0
 42
0.0
 43
0.0
 44
0.0
 45
0.0
 46
0.0
 47
0.0
 48
0.0
 49
0.0
140
0.0
141
0.0
142
1.0
143
1.0
 70
   688
 72
     0
 73
     0
 74
     5
  7

 75
    16
 76
     0
 77
     2
 78
   300
147
1.0
148
0.0
149
0.0
100
AcDbLayout
  1
Layout2
 70
     1
 71
     2
 10
0.0
 20
0.0
 11
0.0
 21
0.0
 12
0.0
 22
0.0
 32
0.0
 14
0.0
 24
0.0
 34
0.0
 15
0.0
 25
0.0
 35
0.0
146
0.0
 13
0.0
 23
0.0
 33
0.0
 16
1.0
 26
0.0
 36
0.0
 17
0.0
 27
1.0
 37
0.0
 76
     0
330
23
  0
LAYOUT
  5
22
102
{ACAD_REACTORS
330
1A
102
}
330
1A
100
AcDbPlotSettings
  1

  2
none_device
  4

  6

 40
0.0
 41
0.0
 42
0.0
 43
0.0
 44
0.0
 45
0.0
 46
0.0
 47
0.0
 48
0.0
 49
0.0
140
0.0
141
0.0
142
1.0
143
1.0
 70
  1712
 72
     0
 73
     0
 74
     0
  7

 75
     0
 76
     0
 77
     2
 78
   300
147
1.0
148
0.0
149
0.0
100
AcDbLayout
  1
Model
 70
     1
 71
     0
 10
0.0
 20
0.0
 11
12.0
 21
9.0
 12
0.0
 22
0.0
 32
0.0
 14
1.000000000000000E+20
 24
1.000000000000000E+20
 34
1.000000000000000E+20
 15
-1.000000000000000E+20
 25
-1.000000000000000E+20
 35
-1.000000000000000E+20
146
0.0
 13
0.0
 23
0.0
 33
0.0
 16
1.0
 26
0.0
 36
0.0
 17
0.0
 27
1.0
 37
0.0
 76
     0
330
1F
331
29
  0
MATERIAL
  5
3D
102
{ACAD_REACTORS
330
3B
102
}
330
3B
100
AcDbMaterial
  1
ByBlock
 72
     1
 94
      127
  0
MATERIAL
  5
3C
102
{ACAD_REACTORS
330
3B
102
}
330
3B
100
AcDbMaterial
  1
ByLayer
 72
     1
 94
      127
  0
MATERIAL
  5
3E
102
{ACAD_REACTORS
330
3B
102
}
330
3B
100
AcDbMaterial
  1
Global
 72
     1
 94
      127
  0
MLINESTYLE
  5
18
102
{ACAD_REACTORS
330
17
102
}
330
17
100
AcDbMlineStyle
  2
Standard
 70
     0
  3

 62
   256
 51
90.0
 52
90.0
 71
     2
 49
0.5
 62
   256
  6
BYLAYER
 49
-0.5
 62
   256
  6
BYLAYER
  0
ACDBPLACEHOLDER
  5
F
102
{ACAD_REACTORS
330
E
102
}
330
E
  0
VISUALSTYLE
  5
2F
102
{ACAD_REACTORS
330
2A
102
}
330
2A
100
AcDbVisualStyle
  2
2dWireframe
 70
     4
177
     2
291
     0
 71
     0
176
     1
 72
     2
176
     1
 73
     0
176
     1
 90
        0
176
     1
 40
-0.6
176
     1
 41
-30.0
176
     1
 62
     5
 63
     7
421
 16777215
176
     1
 74
     1
176
     1
 91
        4
176
     1
 64
     7
176
     1
 65
   257
176
     1
 75
     1
176
     1
175
     1
176
     1
 42
1.0
176
     1
 92
        0
176
     1
 66
   257
176
     1
 43
1.0
176
     1
 76
     1
176
     1
 77
     6
176
     1
 78
     2
176
     1
 67
     7
176
     1
 79
     5
176
     1
170
     0
176
     1
171
     0
176
     1
290
     0
176
     1
 93
        1
176
     1
 44
0.0
176
     1
173
     0
176
     1
  0
VISUALSTYLE
  5
31
102
{ACAD_REACTORS
330
2A
102
}
330
2A
100
AcDbVisualStyle
  2
3D Hidden
 70
     6
177
     2
291
     0
 71
     1
176
     1
 72
     2
176
     1
 73
     2
176
     1
 90
        0
176
     1
 40
-0.6
176
     1
 41
-30.0
176
     1
 62
     5
 63
     7
421
 16777215
176
     1
 74
     2
176
     1
 91
        2
176
     1
 64
     7
176
     1
 65
   257
176
     1
 75
     2
176
     1
175
     1
176
     1
 42
40.0
176
     1
 92
        0
176
     1
 66
   257
176
     1
 43
1.0
176
     1
 76
     1
176
     1
 77
     6
176
     1
 78
     2
176
     1
 67
     7
176
     1
 79
     3
176
     1
170
     0
176
     1
171
     0
176
     1
290
     0
176
     1
 93
        1
176
     1
 44
0.0
176
     1
173
     0
176
     1
  0
VISUALSTYLE
  5
30
102
{ACAD_REACTORS
330
2A
102
}
330
2A
100
AcDbVisualStyle
  2
3dWireframe
 70
     5
177
     2
291
     0
 71
     0
176
     1
 72
     2
176
     1
 73
     0
176
     1
 90
        0
176
     1
 40
-0.6
176
     1
 41
-30.0
176
     1
 62
     5
 63
     7
421
 16777215
176
     1
 74
     1
176
     1
 91
        4
176
     1
 64
     7
176
     1
 65
   257
176
     1
 75
     1
176
     1
175
     1
176
     1
 42
1.0
176
     1
 92
        0
176
     1
 66
   257
176
     1
 43
1.0
176
     1
 76
     1
176
     1
 77
     6
176
     1
 78
     2
176
     1
 67
     7
176
     1
 79
     5
176
     1
170
     0
176
     1
171
     0
176
     1
290
     0
176
     1
 93
        1
176
     1
 44
0.0
176
     1
173
     0
176
     1
  0
VISUALSTYLE
  5
32
102
{ACAD_REACTORS
330
2A
102
}
330
2A
100
AcDbVisualStyle
  2
Basic
 70
     7
177
     2
291
     1
 71
     1
176
     1
 72
     0
176
     1
 73
     1
176
     1
 90
        0
176
     1
 40
-0.6
176
     1
 41
-30.0
176
     1
 62
     5
 63
     7
421
 16777215
176
     1
 74
     0
176
     1
 91
        4
176
     1
 64
     7
176
     1
 65
   257
176
     1
 75
     1
176
     1
175
     1
176
     1
 42
1.0
176
     1
 92
        8
176
     1
 66
     7
176
     1
 43
1.0
176
     1
 76
     1
176
     1
 77
     6
176
     1
 78
     2
176
     1
 67
     7
176
     1
 79
     5
176
     1
170
     0
176
     1
171
     0
176
     1
290
     0
176
     1
 93
        1
176
     1
 44
0.0
176
     1
173
     0
176
     1
  0
VISUALSTYLE
  5
36
102
{ACAD_REACTORS
330
2A
102
}
330
2A
100
AcDbVisualStyle
  2
Brighten
 70
    12
177
     2
291
     1
 71
     2
176
     1
 72
     2
176
     1
 73
     0
176
     1
 90
        0
176
     1
 40
-0.6
176
     1
 41
-30.0
176
     1
 62
     5
 63
     7
421
 16777215
176
     1
 74
     1
176
     1
 91
        4
176
     1
 64
     7
176
     1
 65
   257
176
     1
 75
     1
176
     1
175
     1
176
     1
 42
1.0
176
     1
 92
        8
176
     1
 66
     7
176
     1
 43
1.0
176
     1
 76
     1
176
     1
 77
     6
176
     1
 78
     2
176
     1
 67
     7
176
     1
 79
     5
176
     1
170
     0
176
     1
171
     0
176
     1
290
     0
176
     1
 93
        1
176
     1
 44
50.0
176
     1
173
     0
176
     1
  0
VISUALSTYLE
  5
3A
102
{ACAD_REACTORS
330
2A
102
}
330
2A
100
AcDbVisualStyle
  2
ColorChange
 70
    16
177
     2
291
     1
 71
     2
176
     1
 72
     2
176
     1
 73
     3
176
     1
 90
        0
176
     1
 40
-0.6
176
     1
 41
-30.0
176
     1
 62
     5
 63
     8
421
  8421504
176
     1
 74
     1
176
     1
 91
        4
176
     1
 64
     7
176
     1
 65
   257
176
     1
 75
     1
176
     1
175
     1
176
     1
 42
1.0
176
     1
 92
        8
176
     1
 66
     8
424
  8421504
176
     1
 43
1.0
176
     1
 76
     1
176
     1
 77
     6
176
     1
 78
     2
176
     1
 67
     7
176
     1
 79
     5
176
     1
170
     0
176
     1
171
     0
176
     1
290
     0
176
     1
 93
        1
176
     1
 44
0.0
176
     1
173
     0
176
     1
  0
VISUALSTYLE
  5
34
102
{ACAD_REACTORS
330
2A
102
}
330
2A
100
AcDbVisualStyle
  2
Conceptual
 70
     9
177
     2
291
     0
 71
     3
176
     1
 72
     2
176
     1
 73
     0
176
     1
 90
        0
176
     1
 40
-0.6
176
     1
 41
-30.0
176
     1
 62
     5
 63
     7
421
 16777215
176
     1
 74
     2
176
     1
 91
        2
176
     1
 64
     7
176
     1
 65
   257
176
     1
 75
     1
176
     1
175
     1
176
     1
 42
40.0
176
     1
 92
        8
176
     1
 66
     7
176
     1
 43
1.0
176
     1
 76
     1
176
     1
 77
     6
176
     1
 78
     2
176
     1
 67
     7
176
     1
 79
     3
176
     1
170
     0
176
     1
171
     0
176
     1
290
     0
176
     1
 93
        1
176
     1
 44
0.0
176
     1
173
     0
176
     1
  0
VISUALSTYLE
  5
35
102
{ACAD_REACTORS
330
2A
102
}
330
2A
100
AcDbVisualStyle
  2
Dim
 70
    11
177
     2
291
     1
 71
     2
176
     1
 72
     2
176
     1
 73
     0
176
     1
 90
        0
176
     1
 40
-0.6
176
     1
 41
-30.0
176
     1
 62
     5
 63
     7
421
 16777215
176
     1
 74
     1
176
     1
 91
        4
176
     1
 64
     7
176
     1
 65
   257
176
     1
 75
     1
176
     1
175
     1
176
     1
 42
1.0
176
     1
 92
        8
176
     1
 66
     7
176
     1
 43
1.0
176
     1
 76
     1
176
     1
 77
     6
176
     1
 78
     2
176
     1
 67
     7
176
     1
 79
     5
176
     1
170
     0
176
     1
171
     0
176
     1
290
     0
176
     1
 93
        1
176
     1
 44
-50.0
176
     1
173
     0
176
     1
  0
VISUALSTYLE
  5
39
102
{ACAD_REACTORS
330
2A
102
}
330
2A
100
AcDbVisualStyle
  2
Facepattern
 70
    15
177
     2
291
     1
 71
     2
176
     1
 72
     2
176
     1
 73
     0
176
     1
 90
        0
176
     1
 40
-0.6
176
     1
 41
-30.0
176
     1
 62
     5
 63
     7
421
 16777215
176
     1
 74
     1
176
     1
 91
        4
176
     1
 64
     7
176
     1
 65
   257
176
     1
 75
     1
176
     1
175
     1
176
     1
 42
1.0
176
     1
 92
        8
176
     1
 66
     7
176
     1
 43
1.0
176
     1
 76
     1
176
     1
 77
     6
176
     1
 78
     2
176
     1
 67
     7
176
     1
 79
     5
176
     1
170
     0
176
     1
171
     0
176
     1
290
     0
176
     1
 93
        1
176
     1
 44
0.0
176
     1
173
     0
176
     1
  0
VISUALSTYLE
  5
2B
102
{ACAD_REACTORS
330
2A
102
}
330
2A
100
AcDbVisualStyle
  2
Flat
 70
     0
177
     2
291
     1
 71
     2
176
     1
 72
     1
176
     1
 73
     1
176
     1
 90
        2
176
     1
 40
-0.6
176
     1
 41
30.0
176
     1
 62
     5
 63
     7
421
 16777215
176
     1
 74
     0
176
     1
 91
        4
176
     1
 64
     7
176
     1
 65
   257
176
     1
 75
     1
176
     1
175
     1
176
     1
 42
1.0
176
     1
 92
        8
176
     1
 66
     7
176
     1
 43
1.0
176
     1
 76
     1
176
     1
 77
     6
176
     1
 78
     2
176
     1
 67
     7
176
     1
 79
     5
176
     1
170
     0
176
     1
171
     0
176
     1
290
     0
176
     1
 93
       13
176
     1
 44
0.0
176
     1
173
     0
176
     1
  0
VISUALSTYLE
  5
2C
102
{ACAD_REACTORS
330
2A
102
}
330
2A
100
AcDbVisualStyle
  2
FlatWithEdges
 70
     1
177
     2
291
     1
 71
     2
176
     1
 72
     1
176
     1
 73
     1
176
     1
 90
        2
176
     1
 40
-0.6
176
     1
 41
30.0
176
     1
 62
     5
 63
     7
421
 16777215
176
     1
 74
     1
176
     1
 91
        4
176
     1
 64
     7
176
     1
 65
   257
176
     1
 75
     1
176
     1
175
     1
176
     1
 42
1.0
176
     1
 92
        0
176
     1
 66
   257
176
     1
 43
1.0
176
     1
 76
     1
176
     1
 77
     6
176
     1
 78
     2
176
     1
 67
     7
176
     1
 79
     5
176
     1
170
     0
176
     1
171
     0
176
     1
290
     0
176
     1
 93
       13
176
     1
 44
0.0
176
     1
173
     0
176
     1
  0
VISUALSTYLE
  5
2D
102
{ACAD_REACTORS
330
2A
102
}
330
2A
100
AcDbVisualStyle
  2
Gouraud
 70
     2
177
     2
291
     1
 71
     2
176
     1
 72
     2
176
     1
 73
     1
176
     1
 90
        2
176
     1
 40
-0.6
176
     1
 41
30.0
176
     1
 62
     5
 63
     7
421
 16777215
176
     1
 74
     0
176
     1
 91
        4
176
     1
 64
     7
176
     1
 65
   257
176
     1
 75
     1
176
     1
175
     1
176
     1
 42
1.0
176
     1
 92
        0
176
     1
 66
     7
176
     1
 43
1.0
176
     1
 76
     1
176
     1
 77
     6
176
     1
 78
     2
176
     1
 67
     7
176
     1
 79
     5
176
     1
170
     0
176
     1
171
     0
176
     1
290
     0
176
     1
 93
       13
176
     1
 44
0.0
176
     1
173
     0
176
     1
  0
VISUALSTYLE
  5
2E
102
{ACAD_REACTORS
330
2A
102
}
330
2A
100
AcDbVisualStyle
  2
GouraudWithEdges
 70
     3
177
     2
291
     1
 71
     2
176
     1
 72
     2
176
     1
 73
     1
176
     1
 90
        2
176
     1
 40
-0.6
176
     1
 41
30.0
176
     1
 62
     5
 63
     7
421
 16777215
176
     1
 74
     1
176
     1
 91
        4
176
     1
 64
     7
176
     1
 65
   257
176
     1
 75
     1
176
     1
175
     1
176
     1
 42
1.0
176
     1
 92
        0
176
     1
 66
   257
176
     1
 43
1.0
176
     1
 76
     1
176
     1
 77
     6
176
     1
 78
     2
176
     1
 67
     7
176
     1
 79
     5
176
     1
170
     0
176
     1
171
     0
176
     1
290
     0
176
     1
 93
       13
176
     1
 44
0.0
176
     1
173
     0
176
     1
  0
VISUALSTYLE
  5
38
102
{ACAD_REACTORS
330
2A
102
}
330
2A
100
AcDbVisualStyle
  2
Linepattern
 70
    14
177
     2
291
     1
 71
     2
176
     1
 72
     2
176
     1
 73
     0
176
     1
 90
        0
176
     1
 40
-0.6
176
     1
 41
-30.0
176
     1
 62
     5
 63
     7
421
 16777215
176
     1
 74
     1
176
     1
 91
        4
176
     1
 64
     7
176
     1
 65
   257
176
     1
 75
     7
176
     1
175
     7
176
     1
 42
1.0
176
     1
 92
        8
176
     1
 66
     7
176
     1
 43
1.0
176
     1
 76
     1
176
     1
 77
     6
176
     1
 78
     2
176
     1
 67
     7
176
     1
 79
     5
176
     1
170
     0
176
     1
171
     0
176
     1
290
     0
176
     1
 93
        1
176
     1
 44
0.0
176
     1
173
     0
176
     1
  0
VISUALSTYLE
  5
33
102
{ACAD_REACTORS
330
2A
102
}
330
2A
100
AcDbVisualStyle
  2
Realistic
 70
     8
177
     2
291
     0
 71
     2
176
     1
 72
     2
176
     1
 73
     0
176
     1
 90
        0
176
     1
 40
-0.6
176
     1
 41
-30.0
176
     1
 62
     5
 63
     7
421
 16777215
176
     1
 74
     1
176
     1
 91
        0
176
     1
 64
     7
176
     1
 65
   257
176
     1
 75
     1
176
     1
175
     1
176
     1
 42
1.0
176
     1
 92
        8
176
     1
 66
     8
424
  7895160
176
     1
 43
1.0
176
     1
 76
     1
176
     1
 77
     6
176
     1
 78
     2
176
     1
 67
     7
176
     1
 79
     5
176
     1
170
     0
176
     1
171
     0
176
     1
290
     0
176
     1
 93
       13
176
     1
 44
0.0
176
     1
173
     0
176
     1
  0
VISUALSTYLE
  5
37
102
{ACAD_REACTORS
330
2A
102
}
330
2A
100
AcDbVisualStyle
  2
Thicken
 70
    13
177
     2
291
     1
 71
     2
176
     1
 72
     2
176
     1
 73
     0
176
     1
 90
        0
176
     1
 40
-0.6
176
     1
 41
-30.0
176
     1
 62
     5
 63
     7
421
 16777215
176
     1
 74
     1
176
     1
 91
        4
176
     1
 64
     7
176
     1
 65
   257
176
     1
 75
     1
176
     1
175
     1
176
     1
 42
1.0
176
     1
 92
       12
176
     1
 66
     7
176
     1
 43
1.0
176
     1
 76
     1
176
     1
 77
     6
176
     1
 78
     2
176
     1
 67
     7
176
     1
 79
     5
176
     1
170
     0
176
     1
171
     0
176
     1
290
     0
176
     1
 93
        1
176
     1
 44
0.0
176
     1
173
     0
176
     1
  0
ENDSEC
  0
EOF
